<svg width="1920" height="1080" viewBox="0 0 1920 1080" fill="none" xmlns="http://www.w3.org/2000/svg">
<rect width="1920" height="1080" fill="white"/>
<path d="M334.4 643.72C340.693 644.893 345.867 648.04 349.92 653.16C353.973 658.28 356 664.147 356 670.76C356 676.733 354.507 682.013 351.52 686.6C348.64 691.08 344.427 694.6 338.88 697.16C333.333 699.72 326.773 701 319.2 701H271.04V589.32H317.12C324.693 589.32 331.2 590.547 336.64 593C342.187 595.453 346.347 598.867 349.12 603.24C352 607.613 353.44 612.573 353.44 618.12C353.44 624.627 351.68 630.067 348.16 634.44C344.747 638.813 340.16 641.907 334.4 643.72ZM293.44 635.4H313.92C319.253 635.4 323.36 634.227 326.24 631.88C329.12 629.427 330.56 625.96 330.56 621.48C330.56 617 329.12 613.533 326.24 611.08C323.36 608.627 319.253 607.4 313.92 607.4H293.44V635.4ZM316 682.76C321.44 682.76 325.653 681.48 328.64 678.92C331.733 676.36 333.28 672.733 333.28 668.04C333.28 663.24 331.68 659.507 328.48 656.84C325.28 654.067 320.96 652.68 315.52 652.68H293.44V682.76H316ZM385.213 601.8C381.266 601.8 377.959 600.573 375.293 598.12C372.733 595.56 371.453 592.413 371.453 588.68C371.453 584.947 372.733 581.853 375.293 579.4C377.959 576.84 381.266 575.56 385.213 575.56C389.159 575.56 392.413 576.84 394.973 579.4C397.639 581.853 398.973 584.947 398.973 588.68C398.973 592.413 397.639 595.56 394.973 598.12C392.413 600.573 389.159 601.8 385.213 601.8ZM396.253 612.36V701H373.853V612.36H396.253ZM453.104 610.92C459.717 610.92 465.53 612.253 470.544 614.92C475.557 617.48 479.504 620.84 482.384 625V612.36H504.944V701.64C504.944 709.853 503.29 717.16 499.984 723.56C496.677 730.067 491.717 735.187 485.104 738.92C478.49 742.76 470.49 744.68 461.104 744.68C448.517 744.68 438.17 741.747 430.064 735.88C422.064 730.013 417.53 722.013 416.464 711.88H438.704C439.877 715.933 442.384 719.133 446.224 721.48C450.17 723.933 454.917 725.16 460.464 725.16C466.97 725.16 472.25 723.187 476.304 719.24C480.357 715.4 482.384 709.533 482.384 701.64V687.88C479.504 692.04 475.504 695.507 470.384 698.28C465.37 701.053 459.61 702.44 453.104 702.44C445.637 702.44 438.81 700.52 432.624 696.68C426.437 692.84 421.53 687.453 417.904 680.52C414.384 673.48 412.624 665.427 412.624 656.36C412.624 647.4 414.384 639.453 417.904 632.52C421.53 625.587 426.384 620.253 432.464 616.52C438.65 612.787 445.53 610.92 453.104 610.92ZM482.384 656.68C482.384 651.24 481.317 646.6 479.184 642.76C477.05 638.813 474.17 635.827 470.544 633.8C466.917 631.667 463.024 630.6 458.864 630.6C454.704 630.6 450.864 631.613 447.344 633.64C443.824 635.667 440.944 638.653 438.704 642.6C436.57 646.44 435.504 651.027 435.504 656.36C435.504 661.693 436.57 666.387 438.704 670.44C440.944 674.387 443.824 677.427 447.344 679.56C450.97 681.693 454.81 682.76 458.864 682.76C463.024 682.76 466.917 681.747 470.544 679.72C474.17 677.587 477.05 674.6 479.184 670.76C481.317 666.813 482.384 662.12 482.384 656.68ZM603.986 589.32C615.72 589.32 626.013 591.613 634.866 596.2C643.826 600.787 650.706 607.347 655.506 615.88C660.413 624.307 662.866 634.12 662.866 645.32C662.866 656.52 660.413 666.333 655.506 674.76C650.706 683.08 643.826 689.533 634.866 694.12C626.013 698.707 615.72 701 603.986 701H564.946V589.32H603.986ZM603.186 681.96C614.92 681.96 623.986 678.76 630.386 672.36C636.786 665.96 639.986 656.947 639.986 645.32C639.986 633.693 636.786 624.627 630.386 618.12C623.986 611.507 614.92 608.2 603.186 608.2H587.346V681.96H603.186ZM673.874 656.36C673.874 647.4 675.634 639.453 679.154 632.52C682.78 625.587 687.634 620.253 693.714 616.52C699.9 612.787 706.78 610.92 714.354 610.92C720.967 610.92 726.727 612.253 731.634 614.92C736.647 617.587 740.647 620.947 743.634 625V612.36H766.194V701H743.634V688.04C740.754 692.2 736.754 695.667 731.634 698.44C726.62 701.107 720.807 702.44 714.194 702.44C706.727 702.44 699.9 700.52 693.714 696.68C687.634 692.84 682.78 687.453 679.154 680.52C675.634 673.48 673.874 665.427 673.874 656.36ZM743.634 656.68C743.634 651.24 742.567 646.6 740.434 642.76C738.3 638.813 735.42 635.827 731.794 633.8C728.167 631.667 724.274 630.6 720.114 630.6C715.954 630.6 712.114 631.613 708.594 633.64C705.074 635.667 702.194 638.653 699.954 642.6C697.82 646.44 696.754 651.027 696.754 656.36C696.754 661.693 697.82 666.387 699.954 670.44C702.194 674.387 705.074 677.427 708.594 679.56C712.22 681.693 716.06 682.76 720.114 682.76C724.274 682.76 728.167 681.747 731.794 679.72C735.42 677.587 738.3 674.6 740.434 670.76C742.567 666.813 743.634 662.12 743.634 656.68ZM814.151 630.76V673.64C814.151 676.627 814.845 678.813 816.231 680.2C817.725 681.48 820.178 682.12 823.591 682.12H833.991V701H819.911C801.031 701 791.591 691.827 791.591 673.48V630.76H781.031V612.36H791.591V590.44H814.151V612.36H833.991V630.76H814.151ZM844.342 656.36C844.342 647.4 846.102 639.453 849.622 632.52C853.249 625.587 858.103 620.253 864.183 616.52C870.369 612.787 877.249 610.92 884.823 610.92C891.436 610.92 897.196 612.253 902.103 614.92C907.116 617.587 911.116 620.947 914.103 625V612.36H936.663V701H914.103V688.04C911.223 692.2 907.223 695.667 902.103 698.44C897.089 701.107 891.276 702.44 884.663 702.44C877.196 702.44 870.369 700.52 864.183 696.68C858.103 692.84 853.249 687.453 849.622 680.52C846.102 673.48 844.342 665.427 844.342 656.36ZM914.103 656.68C914.103 651.24 913.036 646.6 910.903 642.76C908.769 638.813 905.889 635.827 902.263 633.8C898.636 631.667 894.743 630.6 890.583 630.6C886.423 630.6 882.583 631.613 879.062 633.64C875.543 635.667 872.663 638.653 870.423 642.6C868.289 646.44 867.223 651.027 867.223 656.36C867.223 661.693 868.289 666.387 870.423 670.44C872.663 674.387 875.543 677.427 879.062 679.56C882.689 681.693 886.529 682.76 890.583 682.76C894.743 682.76 898.636 681.747 902.263 679.72C905.889 677.587 908.769 674.6 910.903 670.76C913.036 666.813 914.103 662.12 914.103 656.68Z" fill="#121212"/>
<circle cx="335" cy="410" r="75" fill="#1E294B"/>
<path d="M305.497 409.3C305.497 403.533 306.53 399.017 308.597 395.75C310.697 392.483 314.163 390.85 318.997 390.85C323.83 390.85 327.28 392.483 329.347 395.75C331.447 399.017 332.497 403.533 332.497 409.3C332.497 415.1 331.447 419.65 329.347 422.95C327.28 426.25 323.83 427.9 318.997 427.9C314.163 427.9 310.697 426.25 308.597 422.95C306.53 419.65 305.497 415.1 305.497 409.3ZM325.597 409.3C325.597 406.833 325.43 404.767 325.097 403.1C324.797 401.4 324.163 400.017 323.197 398.95C322.263 397.883 320.863 397.35 318.997 397.35C317.13 397.35 315.713 397.883 314.747 398.95C313.813 400.017 313.18 401.4 312.847 403.1C312.547 404.767 312.397 406.833 312.397 409.3C312.397 411.833 312.547 413.967 312.847 415.7C313.147 417.4 313.78 418.783 314.747 419.85C315.713 420.883 317.13 421.4 318.997 421.4C320.863 421.4 322.28 420.883 323.247 419.85C324.213 418.783 324.847 417.4 325.147 415.7C325.447 413.967 325.597 411.833 325.597 409.3ZM356.721 400.65C356.388 399.25 355.804 398.2 354.971 397.5C354.171 396.8 353.004 396.45 351.471 396.45C349.171 396.45 347.471 397.383 346.371 399.25C345.304 401.083 344.754 404.083 344.721 408.25C345.521 406.917 346.688 405.883 348.221 405.15C349.754 404.383 351.421 404 353.221 404C355.388 404 357.304 404.467 358.971 405.4C360.638 406.333 361.938 407.7 362.871 409.5C363.804 411.267 364.271 413.4 364.271 415.9C364.271 418.267 363.788 420.383 362.821 422.25C361.888 424.083 360.504 425.517 358.671 426.55C356.838 427.583 354.654 428.1 352.121 428.1C348.654 428.1 345.921 427.333 343.921 425.8C341.954 424.267 340.571 422.133 339.771 419.4C339.004 416.633 338.621 413.233 338.621 409.2C338.621 403.1 339.671 398.5 341.771 395.4C343.871 392.267 347.188 390.7 351.721 390.7C355.221 390.7 357.938 391.65 359.871 393.55C361.804 395.45 362.921 397.817 363.221 400.65H356.721ZM351.621 409.75C349.854 409.75 348.371 410.267 347.171 411.3C345.971 412.333 345.371 413.833 345.371 415.8C345.371 417.767 345.921 419.317 347.021 420.45C348.154 421.583 349.738 422.15 351.771 422.15C353.571 422.15 354.988 421.6 356.021 420.5C357.088 419.4 357.621 417.917 357.621 416.05C357.621 414.117 357.104 412.583 356.071 411.45C355.071 410.317 353.588 409.75 351.621 409.75Z" fill="white"/>
<path fill-rule="evenodd" clip-rule="evenodd" d="M120 987.594C109.579 987.594 101.129 996.042 101.129 1006.46C101.129 1014.8 106.536 1021.88 114.034 1024.37C114.977 1024.55 115.323 1023.96 115.323 1023.46C115.323 1023.01 115.306 1021.53 115.297 1019.95C110.047 1021.09 108.94 1017.72 108.94 1017.72C108.081 1015.54 106.844 1014.96 106.844 1014.96C105.132 1013.79 106.973 1013.82 106.973 1013.82C108.868 1013.95 109.866 1015.76 109.866 1015.76C111.549 1018.65 114.281 1017.81 115.358 1017.33C115.527 1016.11 116.016 1015.28 116.556 1014.81C112.364 1014.33 107.958 1012.71 107.958 1005.48C107.958 1003.42 108.695 1001.74 109.902 1000.41C109.706 999.939 109.06 998.02 110.085 995.421C110.085 995.421 111.669 994.913 115.276 997.355C116.781 996.937 118.396 996.726 120 996.719C121.603 996.726 123.219 996.936 124.727 997.354C128.329 994.913 129.911 995.42 129.911 995.42C130.939 998.019 130.293 999.939 130.097 1000.41C131.307 1001.74 132.039 1003.42 132.039 1005.48C132.039 1012.73 127.624 1014.32 123.422 1014.79C124.099 1015.38 124.702 1016.52 124.702 1018.29C124.702 1020.81 124.681 1022.84 124.681 1023.46C124.681 1023.97 125.021 1024.55 125.977 1024.37C133.471 1021.87 138.872 1014.8 138.872 1006.46C138.871 996.043 130.422 987.594 120 987.594Z" fill="#1E294B"/>
<path d="M108.276 1014.69C108.235 1014.78 108.087 1014.81 107.953 1014.75C107.815 1014.69 107.739 1014.56 107.783 1014.46C107.824 1014.37 107.971 1014.34 108.108 1014.4C108.245 1014.47 108.324 1014.6 108.276 1014.69L108.276 1014.69ZM109.04 1015.54C108.951 1015.62 108.775 1015.59 108.655 1015.45C108.532 1015.32 108.509 1015.15 108.6 1015.06C108.693 1014.98 108.864 1015.02 108.988 1015.15C109.111 1015.28 109.135 1015.46 109.041 1015.54L109.04 1015.54ZM109.785 1016.63C109.669 1016.71 109.48 1016.63 109.363 1016.47C109.247 1016.3 109.247 1016.1 109.366 1016.02C109.483 1015.93 109.669 1016.01 109.788 1016.17C109.903 1016.34 109.903 1016.55 109.785 1016.63ZM110.804 1017.68C110.701 1017.79 110.48 1017.76 110.319 1017.61C110.154 1017.45 110.108 1017.24 110.212 1017.12C110.317 1017.01 110.538 1017.04 110.7 1017.2C110.865 1017.35 110.915 1017.56 110.805 1017.68L110.804 1017.68ZM112.21 1018.29C112.164 1018.44 111.952 1018.5 111.738 1018.44C111.525 1018.38 111.385 1018.2 111.429 1018.05C111.473 1017.9 111.686 1017.83 111.901 1017.9C112.115 1017.97 112.255 1018.14 112.21 1018.29ZM113.755 1018.4C113.76 1018.56 113.579 1018.69 113.355 1018.69C113.129 1018.69 112.946 1018.57 112.944 1018.41C112.944 1018.26 113.121 1018.13 113.347 1018.13C113.571 1018.12 113.755 1018.25 113.755 1018.4L113.755 1018.4ZM115.192 1018.16C115.219 1018.31 115.063 1018.46 114.84 1018.51C114.621 1018.55 114.418 1018.45 114.39 1018.3C114.363 1018.15 114.522 1017.99 114.74 1017.95C114.964 1017.91 115.164 1018 115.192 1018.16Z" fill="#1E294B"/>
<path d="M152.76 1017.21C151.38 1017.21 150.16 1016.97 149.1 1016.49C148.06 1016.01 147.24 1015.34 146.64 1014.48C146.04 1013.62 145.72 1012.66 145.68 1011.6H147.9C148 1012.62 148.45 1013.52 149.25 1014.3C150.05 1015.06 151.22 1015.44 152.76 1015.44C154.18 1015.44 155.3 1015.08 156.12 1014.36C156.96 1013.62 157.38 1012.69 157.38 1011.57C157.38 1010.67 157.15 1009.95 156.69 1009.41C156.23 1008.85 155.66 1008.44 154.98 1008.18C154.3 1007.9 153.36 1007.6 152.16 1007.28C150.76 1006.9 149.65 1006.53 148.83 1006.17C148.01 1005.81 147.31 1005.25 146.73 1004.49C146.15 1003.73 145.86 1002.7 145.86 1001.4C145.86 1000.32 146.14 999.36 146.7 998.52C147.26 997.66 148.05 996.99 149.07 996.51C150.09 996.03 151.26 995.79 152.58 995.79C154.52 995.79 156.08 996.27 157.26 997.23C158.46 998.17 159.15 999.39 159.33 1000.89H157.05C156.91 1000.03 156.44 999.27 155.64 998.61C154.84 997.93 153.76 997.59 152.4 997.59C151.14 997.59 150.09 997.93 149.25 998.61C148.41 999.27 147.99 1000.18 147.99 1001.34C147.99 1002.22 148.22 1002.93 148.68 1003.47C149.14 1004.01 149.71 1004.42 150.39 1004.7C151.09 1004.98 152.03 1005.28 153.21 1005.6C154.57 1005.98 155.67 1006.36 156.51 1006.74C157.35 1007.1 158.06 1007.66 158.64 1008.42C159.22 1009.18 159.51 1010.2 159.51 1011.48C159.51 1012.46 159.25 1013.39 158.73 1014.27C158.21 1015.15 157.44 1015.86 156.42 1016.4C155.4 1016.94 154.18 1017.21 152.76 1017.21ZM184.058 996.3V1017H181.958V1000.47L174.578 1017H173.048L165.668 1000.53V1017H163.568V996.3H165.788L173.798 1014.24L181.808 996.3H184.058ZM190.922 996.03V1017H188.822V996.03H190.922ZM207.947 996.03V997.77H202.127V1017H200.027V997.77H194.177V996.03H207.947ZM220.953 996.03V1011.9C220.953 1013.5 220.463 1014.79 219.483 1015.77C218.503 1016.73 217.193 1017.21 215.553 1017.21C213.853 1017.21 212.493 1016.7 211.473 1015.68C210.473 1014.64 209.973 1013.24 209.973 1011.48H212.103C212.123 1012.62 212.403 1013.55 212.943 1014.27C213.503 1014.99 214.373 1015.35 215.553 1015.35C216.673 1015.35 217.503 1015.02 218.043 1014.36C218.583 1013.7 218.853 1012.88 218.853 1011.9V996.03H220.953ZM228.244 996.03V1009.23C228.244 1011.31 228.734 1012.85 229.714 1013.85C230.714 1014.85 232.074 1015.35 233.794 1015.35C235.514 1015.35 236.854 1014.86 237.814 1013.88C238.794 1012.88 239.284 1011.33 239.284 1009.23V996.03H241.384V1009.2C241.384 1011.86 240.674 1013.86 239.254 1015.2C237.854 1016.54 236.024 1017.21 233.764 1017.21C231.504 1017.21 229.664 1016.54 228.244 1015.2C226.844 1013.86 226.144 1011.86 226.144 1009.2V996.03H228.244ZM254.648 1017L250.418 1010.4L246.338 1017H244.118L249.398 1008.81L244.178 1000.62H246.548L250.718 1007.13L254.768 1000.62H256.958L251.738 1008.72L257.018 1017H254.648Z" fill="#1E294B"/>
</svg>
