<svg width="1920" height="1080" viewBox="0 0 1920 1080" fill="none" xmlns="http://www.w3.org/2000/svg">
<rect width="1920" height="1080" fill="white"/>
<path d="M265.6 645C265.6 634.013 268.053 624.2 272.96 615.56C277.973 606.813 284.747 600.04 293.28 595.24C301.92 590.333 311.573 587.88 322.24 587.88C334.72 587.88 345.653 591.08 355.04 597.48C364.427 603.88 370.987 612.733 374.72 624.04H348.96C346.4 618.707 342.773 614.707 338.08 612.04C333.493 609.373 328.16 608.04 322.08 608.04C315.573 608.04 309.76 609.587 304.64 612.68C299.627 615.667 295.68 619.933 292.8 625.48C290.027 631.027 288.64 637.533 288.64 645C288.64 652.36 290.027 658.867 292.8 664.52C295.68 670.067 299.627 674.387 304.64 677.48C309.76 680.467 315.573 681.96 322.08 681.96C328.16 681.96 333.493 680.627 338.08 677.96C342.773 675.187 346.4 671.133 348.96 665.8H374.72C370.987 677.213 364.427 686.12 355.04 692.52C345.76 698.813 334.827 701.96 322.24 701.96C311.573 701.96 301.92 699.56 293.28 694.76C284.747 689.853 277.973 683.08 272.96 674.44C268.053 665.8 265.6 655.987 265.6 645ZM388.092 656.36C388.092 647.4 389.852 639.453 393.372 632.52C396.999 625.587 401.853 620.253 407.933 616.52C414.119 612.787 420.999 610.92 428.573 610.92C435.186 610.92 440.946 612.253 445.853 614.92C450.866 617.587 454.866 620.947 457.853 625V612.36H480.413V701H457.853V688.04C454.973 692.2 450.973 695.667 445.853 698.44C440.839 701.107 435.026 702.44 428.413 702.44C420.946 702.44 414.119 700.52 407.933 696.68C401.853 692.84 396.999 687.453 393.372 680.52C389.852 673.48 388.092 665.427 388.092 656.36ZM457.853 656.68C457.853 651.24 456.786 646.6 454.653 642.76C452.519 638.813 449.639 635.827 446.013 633.8C442.386 631.667 438.493 630.6 434.333 630.6C430.173 630.6 426.333 631.613 422.812 633.64C419.293 635.667 416.413 638.653 414.173 642.6C412.039 646.44 410.973 651.027 410.973 656.36C410.973 661.693 412.039 666.387 414.173 670.44C416.413 674.387 419.293 677.427 422.812 679.56C426.439 681.693 430.279 682.76 434.333 682.76C438.493 682.76 442.386 681.747 446.013 679.72C449.639 677.587 452.519 674.6 454.653 670.76C456.786 666.813 457.853 662.12 457.853 656.68ZM496.53 656.68C496.53 647.507 498.397 639.507 502.13 632.68C505.863 625.747 511.037 620.413 517.65 616.68C524.263 612.84 531.837 610.92 540.37 610.92C551.357 610.92 560.423 613.693 567.57 619.24C574.823 624.68 579.677 632.36 582.13 642.28H557.97C556.69 638.44 554.503 635.453 551.41 633.32C548.423 631.08 544.69 629.96 540.21 629.96C533.81 629.96 528.743 632.307 525.01 637C521.277 641.587 519.41 648.147 519.41 656.68C519.41 665.107 521.277 671.667 525.01 676.36C528.743 680.947 533.81 683.24 540.21 683.24C549.277 683.24 555.197 679.187 557.97 671.08H582.13C579.677 680.68 574.823 688.307 567.57 693.96C560.317 699.613 551.25 702.44 540.37 702.44C531.837 702.44 524.263 700.573 517.65 696.84C511.037 693 505.863 687.667 502.13 680.84C498.397 673.907 496.53 665.853 496.53 656.68ZM648.46 611.08C655.18 611.08 661.153 612.573 666.38 615.56C671.607 618.44 675.66 622.76 678.54 628.52C681.527 634.173 683.02 641 683.02 649V701H660.62V652.04C660.62 645 658.86 639.613 655.34 635.88C651.82 632.04 647.02 630.12 640.94 630.12C634.753 630.12 629.847 632.04 626.22 635.88C622.7 639.613 620.94 645 620.94 652.04V701H598.54V582.6H620.94V623.4C623.82 619.56 627.66 616.573 632.46 614.44C637.26 612.2 642.593 611.08 648.46 611.08ZM715.681 601.8C711.735 601.8 708.428 600.573 705.761 598.12C703.201 595.56 701.921 592.413 701.921 588.68C701.921 584.947 703.201 581.853 705.761 579.4C708.428 576.84 711.735 575.56 715.681 575.56C719.628 575.56 722.881 576.84 725.441 579.4C728.108 581.853 729.441 584.947 729.441 588.68C729.441 592.413 728.108 595.56 725.441 598.12C722.881 600.573 719.628 601.8 715.681 601.8ZM726.721 612.36V701H704.321V612.36H726.721ZM797.973 611.08C808.533 611.08 817.066 614.44 823.573 621.16C830.079 627.773 833.333 637.053 833.333 649V701H810.933V652.04C810.933 645 809.173 639.613 805.653 635.88C802.133 632.04 797.333 630.12 791.253 630.12C785.066 630.12 780.159 632.04 776.533 635.88C773.013 639.613 771.253 645 771.253 652.04V701H748.853V612.36H771.253V623.4C774.239 619.56 778.026 616.573 782.613 614.44C787.306 612.2 792.426 611.08 797.973 611.08ZM889.354 610.92C895.967 610.92 901.78 612.253 906.794 614.92C911.807 617.48 915.754 620.84 918.634 625V612.36H941.194V701.64C941.194 709.853 939.54 717.16 936.234 723.56C932.927 730.067 927.967 735.187 921.354 738.92C914.74 742.76 906.74 744.68 897.354 744.68C884.767 744.68 874.42 741.747 866.314 735.88C858.314 730.013 853.78 722.013 852.714 711.88H874.954C876.127 715.933 878.634 719.133 882.474 721.48C886.42 723.933 891.167 725.16 896.714 725.16C903.22 725.16 908.5 723.187 912.554 719.24C916.607 715.4 918.634 709.533 918.634 701.64V687.88C915.754 692.04 911.754 695.507 906.634 698.28C901.62 701.053 895.86 702.44 889.354 702.44C881.887 702.44 875.06 700.52 868.874 696.68C862.687 692.84 857.78 687.453 854.154 680.52C850.634 673.48 848.874 665.427 848.874 656.36C848.874 647.4 850.634 639.453 854.154 632.52C857.78 625.587 862.634 620.253 868.714 616.52C874.9 612.787 881.78 610.92 889.354 610.92ZM918.634 656.68C918.634 651.24 917.567 646.6 915.434 642.76C913.3 638.813 910.42 635.827 906.794 633.8C903.167 631.667 899.274 630.6 895.114 630.6C890.954 630.6 887.114 631.613 883.594 633.64C880.074 635.667 877.194 638.653 874.954 642.6C872.82 646.44 871.754 651.027 871.754 656.36C871.754 661.693 872.82 666.387 874.954 670.44C877.194 674.387 880.074 677.427 883.594 679.56C887.22 681.693 891.06 682.76 895.114 682.76C899.274 682.76 903.167 681.747 906.794 679.72C910.42 677.587 913.3 674.6 915.434 670.76C917.567 666.813 918.634 662.12 918.634 656.68Z" fill="#121212"/>
<circle cx="335" cy="410" r="75" fill="#1E294B"/>
<path d="M304.96 409.3C304.96 403.533 305.993 399.017 308.06 395.75C310.16 392.483 313.626 390.85 318.46 390.85C323.293 390.85 326.743 392.483 328.81 395.75C330.91 399.017 331.96 403.533 331.96 409.3C331.96 415.1 330.91 419.65 328.81 422.95C326.743 426.25 323.293 427.9 318.46 427.9C313.626 427.9 310.16 426.25 308.06 422.95C305.993 419.65 304.96 415.1 304.96 409.3ZM325.06 409.3C325.06 406.833 324.893 404.767 324.56 403.1C324.26 401.4 323.626 400.017 322.66 398.95C321.726 397.883 320.326 397.35 318.46 397.35C316.593 397.35 315.176 397.883 314.21 398.95C313.276 400.017 312.643 401.4 312.31 403.1C312.01 404.767 311.86 406.833 311.86 409.3C311.86 411.833 312.01 413.967 312.31 415.7C312.61 417.4 313.243 418.783 314.21 419.85C315.176 420.883 316.593 421.4 318.46 421.4C320.326 421.4 321.743 420.883 322.71 419.85C323.676 418.783 324.31 417.4 324.61 415.7C324.91 413.967 325.06 411.833 325.06 409.3ZM336.984 420.9V415.4L353.334 392H361.484V414.8H365.884V420.9H361.484V428H354.484V420.9H336.984ZM354.934 399.5L344.684 414.8H354.934V399.5Z" fill="white"/>
<path fill-rule="evenodd" clip-rule="evenodd" d="M120 987.595C109.579 987.595 101.129 996.043 101.129 1006.47C101.129 1014.8 106.536 1021.88 114.034 1024.37C114.977 1024.55 115.323 1023.96 115.323 1023.47C115.323 1023.02 115.306 1021.53 115.297 1019.95C110.047 1021.09 108.94 1017.73 108.94 1017.73C108.081 1015.54 106.844 1014.96 106.844 1014.96C105.132 1013.79 106.973 1013.82 106.973 1013.82C108.868 1013.95 109.866 1015.76 109.866 1015.76C111.549 1018.65 114.281 1017.81 115.358 1017.33C115.527 1016.11 116.016 1015.28 116.556 1014.81C112.364 1014.33 107.958 1012.71 107.958 1005.48C107.958 1003.42 108.695 1001.74 109.902 1000.42C109.706 999.94 109.06 998.021 110.085 995.422C110.085 995.422 111.669 994.914 115.276 997.356C116.781 996.938 118.396 996.727 120 996.72C121.603 996.727 123.219 996.937 124.727 997.355C128.329 994.914 129.911 995.421 129.911 995.421C130.939 998.02 130.293 999.94 130.097 1000.41C131.307 1001.74 132.039 1003.42 132.039 1005.48C132.039 1012.73 127.624 1014.32 123.422 1014.79C124.099 1015.38 124.702 1016.53 124.702 1018.29C124.702 1020.81 124.681 1022.84 124.681 1023.47C124.681 1023.97 125.021 1024.56 125.977 1024.37C133.471 1021.87 138.872 1014.8 138.872 1006.47C138.871 996.044 130.422 987.595 120 987.595Z" fill="#1E294B"/>
<path d="M108.276 1014.69C108.235 1014.78 108.087 1014.81 107.953 1014.75C107.815 1014.69 107.739 1014.56 107.783 1014.46C107.824 1014.37 107.972 1014.34 108.108 1014.41C108.246 1014.47 108.324 1014.6 108.276 1014.69L108.276 1014.69ZM109.041 1015.54C108.951 1015.63 108.775 1015.59 108.656 1015.45C108.532 1015.32 108.509 1015.15 108.6 1015.06C108.693 1014.98 108.864 1015.02 108.988 1015.15C109.111 1015.28 109.135 1015.46 109.041 1015.54L109.041 1015.54ZM109.785 1016.63C109.669 1016.71 109.48 1016.63 109.363 1016.47C109.247 1016.3 109.247 1016.1 109.366 1016.02C109.483 1015.94 109.669 1016.01 109.788 1016.17C109.903 1016.35 109.903 1016.55 109.785 1016.63ZM110.804 1017.68C110.701 1017.79 110.48 1017.76 110.319 1017.61C110.154 1017.46 110.108 1017.24 110.212 1017.12C110.317 1017.01 110.538 1017.04 110.701 1017.2C110.865 1017.35 110.915 1017.57 110.805 1017.68L110.804 1017.68ZM112.21 1018.29C112.164 1018.44 111.952 1018.5 111.738 1018.44C111.525 1018.38 111.385 1018.2 111.429 1018.05C111.473 1017.9 111.686 1017.84 111.902 1017.9C112.115 1017.97 112.255 1018.14 112.21 1018.29ZM113.755 1018.4C113.76 1018.56 113.579 1018.69 113.355 1018.69C113.129 1018.69 112.946 1018.57 112.944 1018.42C112.944 1018.26 113.122 1018.13 113.347 1018.13C113.571 1018.12 113.755 1018.25 113.755 1018.4L113.755 1018.4ZM115.192 1018.16C115.219 1018.31 115.063 1018.46 114.84 1018.51C114.621 1018.55 114.418 1018.45 114.39 1018.3C114.363 1018.15 114.522 1017.99 114.741 1017.95C114.964 1017.91 115.164 1018 115.192 1018.16Z" fill="#1E294B"/>
<path d="M152.76 1017.21C151.38 1017.21 150.16 1016.97 149.1 1016.49C148.06 1016.01 147.24 1015.34 146.64 1014.48C146.04 1013.62 145.72 1012.66 145.68 1011.6H147.9C148 1012.62 148.45 1013.52 149.25 1014.3C150.05 1015.06 151.22 1015.44 152.76 1015.44C154.18 1015.44 155.3 1015.08 156.12 1014.36C156.96 1013.62 157.38 1012.69 157.38 1011.57C157.38 1010.67 157.15 1009.95 156.69 1009.41C156.23 1008.85 155.66 1008.44 154.98 1008.18C154.3 1007.9 153.36 1007.6 152.16 1007.28C150.76 1006.9 149.65 1006.53 148.83 1006.17C148.01 1005.81 147.31 1005.25 146.73 1004.49C146.15 1003.73 145.86 1002.7 145.86 1001.4C145.86 1000.32 146.14 999.36 146.7 998.52C147.26 997.66 148.05 996.99 149.07 996.51C150.09 996.03 151.26 995.79 152.58 995.79C154.52 995.79 156.08 996.27 157.26 997.23C158.46 998.17 159.15 999.39 159.33 1000.89H157.05C156.91 1000.03 156.44 999.27 155.64 998.61C154.84 997.93 153.76 997.59 152.4 997.59C151.14 997.59 150.09 997.93 149.25 998.61C148.41 999.27 147.99 1000.18 147.99 1001.34C147.99 1002.22 148.22 1002.93 148.68 1003.47C149.14 1004.01 149.71 1004.42 150.39 1004.7C151.09 1004.98 152.03 1005.28 153.21 1005.6C154.57 1005.98 155.67 1006.36 156.51 1006.74C157.35 1007.1 158.06 1007.66 158.64 1008.42C159.22 1009.18 159.51 1010.2 159.51 1011.48C159.51 1012.46 159.25 1013.39 158.73 1014.27C158.21 1015.15 157.44 1015.86 156.42 1016.4C155.4 1016.94 154.18 1017.21 152.76 1017.21ZM184.058 996.3V1017H181.958V1000.47L174.578 1017H173.048L165.668 1000.53V1017H163.568V996.3H165.788L173.798 1014.24L181.808 996.3H184.058ZM190.922 996.03V1017H188.822V996.03H190.922ZM207.947 996.03V997.77H202.127V1017H200.027V997.77H194.177V996.03H207.947ZM220.953 996.03V1011.9C220.953 1013.5 220.463 1014.79 219.483 1015.77C218.503 1016.73 217.193 1017.21 215.553 1017.21C213.853 1017.21 212.493 1016.7 211.473 1015.68C210.473 1014.64 209.973 1013.24 209.973 1011.48H212.103C212.123 1012.62 212.403 1013.55 212.943 1014.27C213.503 1014.99 214.373 1015.35 215.553 1015.35C216.673 1015.35 217.503 1015.02 218.043 1014.36C218.583 1013.7 218.853 1012.88 218.853 1011.9V996.03H220.953ZM228.244 996.03V1009.23C228.244 1011.31 228.734 1012.85 229.714 1013.85C230.714 1014.85 232.074 1015.35 233.794 1015.35C235.514 1015.35 236.854 1014.86 237.814 1013.88C238.794 1012.88 239.284 1011.33 239.284 1009.23V996.03H241.384V1009.2C241.384 1011.86 240.674 1013.86 239.254 1015.2C237.854 1016.54 236.024 1017.21 233.764 1017.21C231.504 1017.21 229.664 1016.54 228.244 1015.2C226.844 1013.86 226.144 1011.86 226.144 1009.2V996.03H228.244ZM254.648 1017L250.418 1010.4L246.338 1017H244.118L249.398 1008.81L244.178 1000.62H246.548L250.718 1007.13L254.768 1000.62H256.958L251.738 1008.72L257.018 1017H254.648Z" fill="#1E294B"/>
</svg>
