<svg width="1920" height="1080" viewBox="0 0 1920 1080" fill="none" xmlns="http://www.w3.org/2000/svg">
<rect width="1920" height="1080" fill="white"/>
<path d="M265.6 645C265.6 634.013 268.053 624.2 272.96 615.56C277.973 606.813 284.747 600.04 293.28 595.24C301.92 590.333 311.573 587.88 322.24 587.88C334.72 587.88 345.653 591.08 355.04 597.48C364.427 603.88 370.987 612.733 374.72 624.04H348.96C346.4 618.707 342.773 614.707 338.08 612.04C333.493 609.373 328.16 608.04 322.08 608.04C315.573 608.04 309.76 609.587 304.64 612.68C299.627 615.667 295.68 619.933 292.8 625.48C290.027 631.027 288.64 637.533 288.64 645C288.64 652.36 290.027 658.867 292.8 664.52C295.68 670.067 299.627 674.387 304.64 677.48C309.76 680.467 315.573 681.96 322.08 681.96C328.16 681.96 333.493 680.627 338.08 677.96C342.773 675.187 346.4 671.133 348.96 665.8H374.72C370.987 677.213 364.427 686.12 355.04 692.52C345.76 698.813 334.827 701.96 322.24 701.96C311.573 701.96 301.92 699.56 293.28 694.76C284.747 689.853 277.973 683.08 272.96 674.44C268.053 665.8 265.6 655.987 265.6 645ZM432.893 589.32C444.626 589.32 454.919 591.613 463.773 596.2C472.733 600.787 479.613 607.347 484.413 615.88C489.319 624.307 491.773 634.12 491.773 645.32C491.773 656.52 489.319 666.333 484.413 674.76C479.613 683.08 472.733 689.533 463.773 694.12C454.919 698.707 444.626 701 432.893 701H393.853V589.32H432.893ZM432.093 681.96C443.826 681.96 452.893 678.76 459.293 672.36C465.693 665.96 468.893 656.947 468.893 645.32C468.893 633.693 465.693 624.627 459.293 618.12C452.893 611.507 443.826 608.2 432.093 608.2H416.253V681.96H432.093ZM604.06 701H581.66L530.94 624.36V701H508.54V589.16H530.94L581.66 665.96V589.16H604.06V701ZM660.116 702.44C652.863 702.44 646.356 701.16 640.596 698.6C634.836 695.933 630.25 692.36 626.836 687.88C623.53 683.4 621.716 678.44 621.396 673H643.956C644.383 676.413 646.036 679.24 648.916 681.48C651.903 683.72 655.583 684.84 659.956 684.84C664.223 684.84 667.53 683.987 669.876 682.28C672.33 680.573 673.556 678.387 673.556 675.72C673.556 672.84 672.063 670.707 669.076 669.32C666.196 667.827 661.556 666.227 655.156 664.52C648.543 662.92 643.103 661.267 638.836 659.56C634.676 657.853 631.05 655.24 627.956 651.72C624.97 648.2 623.476 643.453 623.476 637.48C623.476 632.573 624.863 628.093 627.636 624.04C630.516 619.987 634.57 616.787 639.796 614.44C645.13 612.093 651.37 610.92 658.516 610.92C669.076 610.92 677.503 613.587 683.796 618.92C690.09 624.147 693.556 631.24 694.196 640.2H672.756C672.436 636.68 670.943 633.907 668.276 631.88C665.716 629.747 662.25 628.68 657.876 628.68C653.823 628.68 650.676 629.427 648.436 630.92C646.303 632.413 645.236 634.493 645.236 637.16C645.236 640.147 646.73 642.44 649.716 644.04C652.703 645.533 657.343 647.08 663.636 648.68C670.036 650.28 675.316 651.933 679.476 653.64C683.636 655.347 687.21 658.013 690.196 661.64C693.29 665.16 694.89 669.853 694.996 675.72C694.996 680.84 693.556 685.427 690.676 689.48C687.903 693.533 683.85 696.733 678.516 699.08C673.29 701.32 667.156 702.44 660.116 702.44Z" fill="#121212"/>
<circle cx="335" cy="410" r="75" fill="#1E294B"/>
<path d="M305.399 409.3C305.399 403.533 306.432 399.017 308.499 395.75C310.599 392.483 314.066 390.85 318.899 390.85C323.732 390.85 327.182 392.483 329.249 395.75C331.349 399.017 332.399 403.533 332.399 409.3C332.399 415.1 331.349 419.65 329.249 422.95C327.182 426.25 323.732 427.9 318.899 427.9C314.066 427.9 310.599 426.25 308.499 422.95C306.432 419.65 305.399 415.1 305.399 409.3ZM325.499 409.3C325.499 406.833 325.332 404.767 324.999 403.1C324.699 401.4 324.066 400.017 323.099 398.95C322.166 397.883 320.766 397.35 318.899 397.35C317.032 397.35 315.616 397.883 314.649 398.95C313.716 400.017 313.082 401.4 312.749 403.1C312.449 404.767 312.299 406.833 312.299 409.3C312.299 411.833 312.449 413.967 312.749 415.7C313.049 417.4 313.682 418.783 314.649 419.85C315.616 420.883 317.032 421.4 318.899 421.4C320.766 421.4 322.182 420.883 323.149 419.85C324.116 418.783 324.749 417.4 325.049 415.7C325.349 413.967 325.499 411.833 325.499 409.3ZM362.223 397.6H346.023V406.15C346.723 405.283 347.723 404.583 349.023 404.05C350.323 403.483 351.707 403.2 353.173 403.2C355.84 403.2 358.023 403.783 359.723 404.95C361.423 406.117 362.657 407.617 363.423 409.45C364.19 411.25 364.573 413.183 364.573 415.25C364.573 419.083 363.473 422.167 361.273 424.5C359.107 426.833 356.007 428 351.973 428C348.173 428 345.14 427.05 342.873 425.15C340.607 423.25 339.323 420.767 339.023 417.7H345.823C346.123 419.033 346.79 420.1 347.823 420.9C348.89 421.7 350.24 422.1 351.873 422.1C353.84 422.1 355.323 421.483 356.323 420.25C357.323 419.017 357.823 417.383 357.823 415.35C357.823 413.283 357.307 411.717 356.273 410.65C355.273 409.55 353.79 409 351.823 409C350.423 409 349.257 409.35 348.323 410.05C347.39 410.75 346.723 411.683 346.323 412.85H339.623V391.45H362.223V397.6Z" fill="white"/>
<path fill-rule="evenodd" clip-rule="evenodd" d="M120 987.595C109.579 987.595 101.129 996.043 101.129 1006.47C101.129 1014.8 106.536 1021.88 114.034 1024.37C114.977 1024.55 115.323 1023.96 115.323 1023.47C115.323 1023.02 115.306 1021.53 115.297 1019.95C110.047 1021.09 108.94 1017.73 108.94 1017.73C108.081 1015.54 106.844 1014.96 106.844 1014.96C105.132 1013.79 106.973 1013.82 106.973 1013.82C108.868 1013.95 109.866 1015.76 109.866 1015.76C111.549 1018.65 114.281 1017.81 115.358 1017.33C115.527 1016.11 116.016 1015.28 116.556 1014.81C112.364 1014.33 107.958 1012.71 107.958 1005.48C107.958 1003.42 108.695 1001.74 109.902 1000.42C109.706 999.94 109.06 998.021 110.085 995.422C110.085 995.422 111.669 994.914 115.276 997.356C116.781 996.938 118.396 996.727 120 996.72C121.603 996.727 123.219 996.937 124.727 997.355C128.329 994.914 129.911 995.421 129.911 995.421C130.939 998.02 130.293 999.94 130.097 1000.41C131.307 1001.74 132.039 1003.42 132.039 1005.48C132.039 1012.73 127.624 1014.32 123.422 1014.79C124.099 1015.38 124.702 1016.53 124.702 1018.29C124.702 1020.81 124.681 1022.84 124.681 1023.47C124.681 1023.97 125.021 1024.56 125.977 1024.37C133.471 1021.87 138.872 1014.8 138.872 1006.47C138.871 996.044 130.422 987.595 120 987.595Z" fill="#1E294B"/>
<path d="M108.276 1014.69C108.235 1014.78 108.087 1014.81 107.953 1014.75C107.815 1014.69 107.739 1014.56 107.783 1014.46C107.824 1014.37 107.972 1014.34 108.108 1014.41C108.246 1014.47 108.324 1014.6 108.276 1014.69L108.276 1014.69ZM109.041 1015.54C108.951 1015.63 108.775 1015.59 108.656 1015.45C108.532 1015.32 108.509 1015.15 108.6 1015.06C108.693 1014.98 108.864 1015.02 108.988 1015.15C109.111 1015.28 109.135 1015.46 109.041 1015.54L109.041 1015.54ZM109.785 1016.63C109.669 1016.71 109.48 1016.63 109.363 1016.47C109.247 1016.3 109.247 1016.1 109.366 1016.02C109.483 1015.94 109.669 1016.01 109.788 1016.17C109.903 1016.35 109.903 1016.55 109.785 1016.63ZM110.804 1017.68C110.701 1017.79 110.48 1017.76 110.319 1017.61C110.154 1017.46 110.108 1017.24 110.212 1017.12C110.317 1017.01 110.538 1017.04 110.701 1017.2C110.865 1017.35 110.915 1017.57 110.805 1017.68L110.804 1017.68ZM112.21 1018.29C112.164 1018.44 111.952 1018.5 111.738 1018.44C111.525 1018.38 111.385 1018.2 111.429 1018.05C111.473 1017.9 111.686 1017.84 111.902 1017.9C112.115 1017.97 112.255 1018.14 112.21 1018.29ZM113.755 1018.4C113.76 1018.56 113.579 1018.69 113.355 1018.69C113.129 1018.69 112.946 1018.57 112.944 1018.42C112.944 1018.26 113.122 1018.13 113.347 1018.13C113.571 1018.12 113.755 1018.25 113.755 1018.4L113.755 1018.4ZM115.192 1018.16C115.219 1018.31 115.063 1018.46 114.84 1018.51C114.621 1018.55 114.418 1018.45 114.39 1018.3C114.363 1018.15 114.522 1017.99 114.741 1017.95C114.964 1017.91 115.164 1018 115.192 1018.16Z" fill="#1E294B"/>
<path d="M152.76 1017.21C151.38 1017.21 150.16 1016.97 149.1 1016.49C148.06 1016.01 147.24 1015.34 146.64 1014.48C146.04 1013.62 145.72 1012.66 145.68 1011.6H147.9C148 1012.62 148.45 1013.52 149.25 1014.3C150.05 1015.06 151.22 1015.44 152.76 1015.44C154.18 1015.44 155.3 1015.08 156.12 1014.36C156.96 1013.62 157.38 1012.69 157.38 1011.57C157.38 1010.67 157.15 1009.95 156.69 1009.41C156.23 1008.85 155.66 1008.44 154.98 1008.18C154.3 1007.9 153.36 1007.6 152.16 1007.28C150.76 1006.9 149.65 1006.53 148.83 1006.17C148.01 1005.81 147.31 1005.25 146.73 1004.49C146.15 1003.73 145.86 1002.7 145.86 1001.4C145.86 1000.32 146.14 999.36 146.7 998.52C147.26 997.66 148.05 996.99 149.07 996.51C150.09 996.03 151.26 995.79 152.58 995.79C154.52 995.79 156.08 996.27 157.26 997.23C158.46 998.17 159.15 999.39 159.33 1000.89H157.05C156.91 1000.03 156.44 999.27 155.64 998.61C154.84 997.93 153.76 997.59 152.4 997.59C151.14 997.59 150.09 997.93 149.25 998.61C148.41 999.27 147.99 1000.18 147.99 1001.34C147.99 1002.22 148.22 1002.93 148.68 1003.47C149.14 1004.01 149.71 1004.42 150.39 1004.7C151.09 1004.98 152.03 1005.28 153.21 1005.6C154.57 1005.98 155.67 1006.36 156.51 1006.74C157.35 1007.1 158.06 1007.66 158.64 1008.42C159.22 1009.18 159.51 1010.2 159.51 1011.48C159.51 1012.46 159.25 1013.39 158.73 1014.27C158.21 1015.15 157.44 1015.86 156.42 1016.4C155.4 1016.94 154.18 1017.21 152.76 1017.21ZM184.058 996.3V1017H181.958V1000.47L174.578 1017H173.048L165.668 1000.53V1017H163.568V996.3H165.788L173.798 1014.24L181.808 996.3H184.058ZM190.922 996.03V1017H188.822V996.03H190.922ZM207.947 996.03V997.77H202.127V1017H200.027V997.77H194.177V996.03H207.947ZM220.953 996.03V1011.9C220.953 1013.5 220.463 1014.79 219.483 1015.77C218.503 1016.73 217.193 1017.21 215.553 1017.21C213.853 1017.21 212.493 1016.7 211.473 1015.68C210.473 1014.64 209.973 1013.24 209.973 1011.48H212.103C212.123 1012.62 212.403 1013.55 212.943 1014.27C213.503 1014.99 214.373 1015.35 215.553 1015.35C216.673 1015.35 217.503 1015.02 218.043 1014.36C218.583 1013.7 218.853 1012.88 218.853 1011.9V996.03H220.953ZM228.244 996.03V1009.23C228.244 1011.31 228.734 1012.85 229.714 1013.85C230.714 1014.85 232.074 1015.35 233.794 1015.35C235.514 1015.35 236.854 1014.86 237.814 1013.88C238.794 1012.88 239.284 1011.33 239.284 1009.23V996.03H241.384V1009.2C241.384 1011.86 240.674 1013.86 239.254 1015.2C237.854 1016.54 236.024 1017.21 233.764 1017.21C231.504 1017.21 229.664 1016.54 228.244 1015.2C226.844 1013.86 226.144 1011.86 226.144 1009.2V996.03H228.244ZM254.648 1017L250.418 1010.4L246.338 1017H244.118L249.398 1008.81L244.178 1000.62H246.548L250.718 1007.13L254.768 1000.62H256.958L251.738 1008.72L257.018 1017H254.648Z" fill="#1E294B"/>
</svg>
