<svg width="1920" height="1080" viewBox="0 0 1920 1080" fill="none" xmlns="http://www.w3.org/2000/svg">
<rect width="1920" height="1080" fill="#1E294B"/>
<path d="M147.2 510.84C141.36 510.84 136.08 509.84 131.36 507.84C126.72 505.84 123.04 502.96 120.32 499.2C117.6 495.44 116.2 491 116.12 485.88H134.12C134.36 489.32 135.56 492.04 137.72 494.04C139.96 496.04 143 497.04 146.84 497.04C150.76 497.04 153.84 496.12 156.08 494.28C158.32 492.36 159.44 489.88 159.44 486.84C159.44 484.36 158.68 482.32 157.16 480.72C155.64 479.12 153.72 477.88 151.4 477C149.16 476.04 146.04 475 142.04 473.88C136.6 472.28 132.16 470.72 128.72 469.2C125.36 467.6 122.44 465.24 119.96 462.12C117.56 458.92 116.36 454.68 116.36 449.4C116.36 444.44 117.6 440.12 120.08 436.44C122.56 432.76 126.04 429.96 130.52 428.04C135 426.04 140.12 425.04 145.88 425.04C154.52 425.04 161.52 427.16 166.88 431.4C172.32 435.56 175.32 441.4 175.88 448.92H157.4C157.24 446.04 156 443.68 153.68 441.84C151.44 439.92 148.44 438.96 144.68 438.96C141.4 438.96 138.76 439.8 136.76 441.48C134.84 443.16 133.88 445.6 133.88 448.8C133.88 451.04 134.6 452.92 136.04 454.44C137.56 455.88 139.4 457.08 141.56 458.04C143.8 458.92 146.92 459.96 150.92 461.16C156.36 462.76 160.8 464.36 164.24 465.96C167.68 467.56 170.64 469.96 173.12 473.16C175.6 476.36 176.84 480.56 176.84 485.76C176.84 490.24 175.68 494.4 173.36 498.24C171.04 502.08 167.64 505.16 163.16 507.48C158.68 509.72 153.36 510.84 147.2 510.84ZM255.005 443.52L213.845 541.44H195.965L210.365 508.32L183.725 443.52H202.565L219.725 489.96L237.125 443.52H255.005ZM289.501 511.08C284.061 511.08 279.181 510.12 274.861 508.2C270.541 506.2 267.101 503.52 264.541 500.16C262.061 496.8 260.701 493.08 260.461 489H277.381C277.701 491.56 278.941 493.68 281.101 495.36C283.341 497.04 286.101 497.88 289.381 497.88C292.581 497.88 295.061 497.24 296.821 495.96C298.661 494.68 299.581 493.04 299.581 491.04C299.581 488.88 298.461 487.28 296.221 486.24C294.061 485.12 290.581 483.92 285.781 482.64C280.821 481.44 276.741 480.2 273.541 478.92C270.421 477.64 267.701 475.68 265.381 473.04C263.141 470.4 262.021 466.84 262.021 462.36C262.021 458.68 263.061 455.32 265.141 452.28C267.301 449.24 270.341 446.84 274.261 445.08C278.261 443.32 282.941 442.44 288.301 442.44C296.221 442.44 302.541 444.44 307.261 448.44C311.981 452.36 314.581 457.68 315.061 464.4H298.981C298.741 461.76 297.621 459.68 295.621 458.16C293.701 456.56 291.101 455.76 287.821 455.76C284.781 455.76 282.421 456.32 280.741 457.44C279.141 458.56 278.341 460.12 278.341 462.12C278.341 464.36 279.461 466.08 281.701 467.28C283.941 468.4 287.421 469.56 292.141 470.76C296.941 471.96 300.901 473.2 304.021 474.48C307.141 475.76 309.821 477.76 312.061 480.48C314.381 483.12 315.581 486.64 315.661 491.04C315.661 494.88 314.581 498.32 312.421 501.36C310.341 504.4 307.301 506.8 303.301 508.56C299.381 510.24 294.781 511.08 289.501 511.08ZM349.012 457.32V489.48C349.012 491.72 349.532 493.36 350.572 494.4C351.692 495.36 353.532 495.84 356.092 495.84H363.892V510H353.332C339.172 510 332.092 503.12 332.092 489.36V457.32H324.172V443.52H332.092V427.08H349.012V443.52H363.892V457.32H349.012ZM437.775 475.32C437.775 477.72 437.615 479.88 437.295 481.8H388.695C389.095 486.6 390.775 490.36 393.735 493.08C396.695 495.8 400.335 497.16 404.655 497.16C410.895 497.16 415.335 494.48 417.975 489.12H436.095C434.175 495.52 430.495 500.8 425.055 504.96C419.615 509.04 412.935 511.08 405.015 511.08C398.615 511.08 392.855 509.68 387.735 506.88C382.695 504 378.735 499.96 375.855 494.76C373.055 489.56 371.655 483.56 371.655 476.76C371.655 469.88 373.055 463.84 375.855 458.64C378.655 453.44 382.575 449.44 387.615 446.64C392.655 443.84 398.455 442.44 405.015 442.44C411.335 442.44 416.975 443.8 421.935 446.52C426.975 449.24 430.855 453.12 433.575 458.16C436.375 463.12 437.775 468.84 437.775 475.32ZM420.375 470.52C420.295 466.2 418.735 462.76 415.695 460.2C412.655 457.56 408.935 456.24 404.535 456.24C400.375 456.24 396.855 457.52 393.975 460.08C391.175 462.56 389.455 466.04 388.815 470.52H420.375ZM532.598 442.56C540.758 442.56 547.318 445.08 552.278 450.12C557.318 455.08 559.838 462.04 559.838 471V510H543.038V473.28C543.038 468.08 541.718 464.12 539.078 461.4C536.438 458.6 532.838 457.2 528.278 457.2C523.718 457.2 520.078 458.6 517.358 461.4C514.718 464.12 513.398 468.08 513.398 473.28V510H496.598V473.28C496.598 468.08 495.278 464.12 492.638 461.4C489.998 458.6 486.398 457.2 481.838 457.2C477.198 457.2 473.518 458.6 470.798 461.4C468.158 464.12 466.838 468.08 466.838 473.28V510H450.038V443.52H466.838V451.56C468.998 448.76 471.758 446.56 475.118 444.96C478.558 443.36 482.318 442.56 486.398 442.56C491.598 442.56 496.238 443.68 500.318 445.92C504.398 448.08 507.558 451.2 509.798 455.28C511.958 451.44 515.078 448.36 519.158 446.04C523.318 443.72 527.798 442.56 532.598 442.56ZM633.654 426.24C642.454 426.24 650.174 427.96 656.814 431.4C663.534 434.84 668.694 439.76 672.294 446.16C675.974 452.48 677.814 459.84 677.814 468.24C677.814 476.64 675.974 484 672.294 490.32C668.694 496.56 663.534 501.4 656.814 504.84C650.174 508.28 642.454 510 633.654 510H604.374V426.24H633.654ZM633.054 495.72C641.854 495.72 648.654 493.32 653.454 488.52C658.254 483.72 660.654 476.96 660.654 468.24C660.654 459.52 658.254 452.72 653.454 447.84C648.654 442.88 641.854 440.4 633.054 440.4H621.174V495.72H633.054ZM752.189 475.32C752.189 477.72 752.029 479.88 751.709 481.8H703.109C703.509 486.6 705.189 490.36 708.149 493.08C711.109 495.8 714.749 497.16 719.069 497.16C725.309 497.16 729.749 494.48 732.389 489.12H750.509C748.589 495.52 744.909 500.8 739.469 504.96C734.029 509.04 727.349 511.08 719.429 511.08C713.029 511.08 707.269 509.68 702.149 506.88C697.109 504 693.149 499.96 690.269 494.76C687.469 489.56 686.069 483.56 686.069 476.76C686.069 469.88 687.469 463.84 690.269 458.64C693.069 453.44 696.989 449.44 702.029 446.64C707.069 443.84 712.869 442.44 719.429 442.44C725.749 442.44 731.389 443.8 736.349 446.52C741.389 449.24 745.269 453.12 747.989 458.16C750.789 463.12 752.189 468.84 752.189 475.32ZM734.789 470.52C734.709 466.2 733.149 462.76 730.109 460.2C727.069 457.56 723.349 456.24 718.949 456.24C714.789 456.24 711.269 457.52 708.389 460.08C705.589 462.56 703.869 466.04 703.229 470.52H734.789ZM789.892 511.08C784.452 511.08 779.572 510.12 775.252 508.2C770.932 506.2 767.492 503.52 764.932 500.16C762.452 496.8 761.092 493.08 760.852 489H777.772C778.092 491.56 779.332 493.68 781.492 495.36C783.732 497.04 786.492 497.88 789.772 497.88C792.972 497.88 795.452 497.24 797.212 495.96C799.052 494.68 799.972 493.04 799.972 491.04C799.972 488.88 798.852 487.28 796.612 486.24C794.452 485.12 790.972 483.92 786.172 482.64C781.212 481.44 777.132 480.2 773.932 478.92C770.812 477.64 768.092 475.68 765.772 473.04C763.532 470.4 762.412 466.84 762.412 462.36C762.412 458.68 763.452 455.32 765.532 452.28C767.692 449.24 770.732 446.84 774.652 445.08C778.652 443.32 783.332 442.44 788.692 442.44C796.612 442.44 802.932 444.44 807.652 448.44C812.372 452.36 814.972 457.68 815.452 464.4H799.372C799.132 461.76 798.012 459.68 796.012 458.16C794.092 456.56 791.492 455.76 788.212 455.76C785.172 455.76 782.812 456.32 781.132 457.44C779.532 458.56 778.732 460.12 778.732 462.12C778.732 464.36 779.852 466.08 782.092 467.28C784.332 468.4 787.812 469.56 792.532 470.76C797.332 471.96 801.292 473.2 804.412 474.48C807.532 475.76 810.212 477.76 812.452 480.48C814.772 483.12 815.972 486.64 816.052 491.04C816.052 494.88 814.972 498.32 812.812 501.36C810.732 504.4 807.692 506.8 803.692 508.56C799.772 510.24 795.172 511.08 789.892 511.08ZM838.363 435.6C835.403 435.6 832.923 434.68 830.923 432.84C829.003 430.92 828.043 428.56 828.043 425.76C828.043 422.96 829.003 420.64 830.923 418.8C832.923 416.88 835.403 415.92 838.363 415.92C841.323 415.92 843.763 416.88 845.683 418.8C847.683 420.64 848.683 422.96 848.683 425.76C848.683 428.56 847.683 430.92 845.683 432.84C843.763 434.68 841.323 435.6 838.363 435.6ZM846.643 443.52V510H829.843V443.52H846.643ZM889.281 442.44C894.241 442.44 898.601 443.44 902.361 445.44C906.121 447.36 909.081 449.88 911.241 453V443.52H928.161V510.48C928.161 516.64 926.921 522.12 924.441 526.92C921.961 531.8 918.241 535.64 913.281 538.44C908.321 541.32 902.321 542.76 895.281 542.76C885.841 542.76 878.081 540.56 872.001 536.16C866.001 531.76 862.601 525.76 861.801 518.16H878.481C879.361 521.2 881.241 523.6 884.121 525.36C887.081 527.2 890.641 528.12 894.801 528.12C899.681 528.12 903.641 526.64 906.681 523.68C909.721 520.8 911.241 516.4 911.241 510.48V500.16C909.081 503.28 906.081 505.88 902.241 507.96C898.481 510.04 894.161 511.08 889.281 511.08C883.681 511.08 878.561 509.64 873.921 506.76C869.281 503.88 865.601 499.84 862.881 494.64C860.241 489.36 858.921 483.32 858.921 476.52C858.921 469.8 860.241 463.84 862.881 458.64C865.601 453.44 869.241 449.44 873.801 446.64C878.441 443.84 883.601 442.44 889.281 442.44ZM911.241 476.76C911.241 472.68 910.441 469.2 908.841 466.32C907.241 463.36 905.081 461.12 902.361 459.6C899.641 458 896.721 457.2 893.601 457.2C890.481 457.2 887.601 457.96 884.961 459.48C882.321 461 880.161 463.24 878.481 466.2C876.881 469.08 876.081 472.52 876.081 476.52C876.081 480.52 876.881 484.04 878.481 487.08C880.161 490.04 882.321 492.32 884.961 493.92C887.681 495.52 890.561 496.32 893.601 496.32C896.721 496.32 899.641 495.56 902.361 494.04C905.081 492.44 907.241 490.2 908.841 487.32C910.441 484.36 911.241 480.84 911.241 476.76ZM981.409 442.56C989.329 442.56 995.729 445.08 1000.61 450.12C1005.49 455.08 1007.93 462.04 1007.93 471V510H991.129V473.28C991.129 468 989.809 463.96 987.169 461.16C984.529 458.28 980.929 456.84 976.369 456.84C971.729 456.84 968.049 458.28 965.329 461.16C962.689 463.96 961.369 468 961.369 473.28V510H944.569V443.52H961.369V451.8C963.609 448.92 966.449 446.68 969.889 445.08C973.409 443.4 977.249 442.56 981.409 442.56ZM179.36 597.16C179.36 601.64 178.28 605.84 176.12 609.76C174.04 613.68 170.72 616.84 166.16 619.24C161.68 621.64 156 622.84 149.12 622.84H135.08V655H118.28V571.24H149.12C155.6 571.24 161.12 572.36 165.68 574.6C170.24 576.84 173.64 579.92 175.88 583.84C178.2 587.76 179.36 592.2 179.36 597.16ZM148.4 609.28C153.04 609.28 156.48 608.24 158.72 606.16C160.96 604 162.08 601 162.08 597.16C162.08 589 157.52 584.92 148.4 584.92H135.08V609.28H148.4ZM208.088 598.84C210.248 595.32 213.048 592.56 216.488 590.56C220.008 588.56 224.008 587.56 228.488 587.56V605.2H224.048C218.768 605.2 214.768 606.44 212.048 608.92C209.408 611.4 208.088 615.72 208.088 621.88V655H191.288V588.52H208.088V598.84ZM248.323 580.6C245.363 580.6 242.883 579.68 240.883 577.84C238.963 575.92 238.003 573.56 238.003 570.76C238.003 567.96 238.963 565.64 240.883 563.8C242.883 561.88 245.363 560.92 248.323 560.92C251.283 560.92 253.723 561.88 255.643 563.8C257.643 565.64 258.643 567.96 258.643 570.76C258.643 573.56 257.643 575.92 255.643 577.84C253.723 579.68 251.283 580.6 248.323 580.6ZM256.603 588.52V655H239.803V588.52H256.603ZM310.042 587.56C317.962 587.56 324.362 590.08 329.242 595.12C334.122 600.08 336.562 607.04 336.562 616V655H319.762V618.28C319.762 613 318.442 608.96 315.802 606.16C313.162 603.28 309.562 601.84 305.002 601.84C300.362 601.84 296.682 603.28 293.962 606.16C291.322 608.96 290.002 613 290.002 618.28V655H273.202V588.52H290.002V596.8C292.242 593.92 295.082 591.68 298.522 590.08C302.042 588.4 305.882 587.56 310.042 587.56ZM348.218 621.76C348.218 614.88 349.618 608.88 352.418 603.76C355.218 598.56 359.098 594.56 364.058 591.76C369.018 588.88 374.698 587.44 381.098 587.44C389.338 587.44 396.138 589.52 401.498 593.68C406.938 597.76 410.578 603.52 412.418 610.96H394.298C393.338 608.08 391.698 605.84 389.378 604.24C387.138 602.56 384.338 601.72 380.978 601.72C376.178 601.72 372.378 603.48 369.578 607C366.778 610.44 365.378 615.36 365.378 621.76C365.378 628.08 366.778 633 369.578 636.52C372.378 639.96 376.178 641.68 380.978 641.68C387.778 641.68 392.218 638.64 394.298 632.56H412.418C410.578 639.76 406.938 645.48 401.498 649.72C396.058 653.96 389.258 656.08 381.098 656.08C374.698 656.08 369.018 654.68 364.058 651.88C359.098 649 355.218 645 352.418 639.88C349.618 634.68 348.218 628.64 348.218 621.76ZM433.245 580.6C430.285 580.6 427.805 579.68 425.805 577.84C423.885 575.92 422.925 573.56 422.925 570.76C422.925 567.96 423.885 565.64 425.805 563.8C427.805 561.88 430.285 560.92 433.245 560.92C436.205 560.92 438.645 561.88 440.565 563.8C442.565 565.64 443.565 567.96 443.565 570.76C443.565 573.56 442.565 575.92 440.565 577.84C438.645 579.68 436.205 580.6 433.245 580.6ZM441.525 588.52V655H424.725V588.52H441.525ZM474.924 598.12C477.084 595.08 480.044 592.56 483.804 590.56C487.644 588.48 492.004 587.44 496.884 587.44C502.564 587.44 507.684 588.84 512.244 591.64C516.884 594.44 520.524 598.44 523.164 603.64C525.884 608.76 527.244 614.72 527.244 621.52C527.244 628.32 525.884 634.36 523.164 639.64C520.524 644.84 516.884 648.88 512.244 651.76C507.684 654.64 502.564 656.08 496.884 656.08C492.004 656.08 487.684 655.08 483.924 653.08C480.244 651.08 477.244 648.56 474.924 645.52V686.68H458.124V588.52H474.924V598.12ZM510.084 621.52C510.084 617.52 509.244 614.08 507.564 611.2C505.964 608.24 503.804 606 501.084 604.48C498.444 602.96 495.564 602.2 492.444 602.2C489.404 602.2 486.524 603 483.804 604.6C481.164 606.12 479.004 608.36 477.324 611.32C475.724 614.28 474.924 617.76 474.924 621.76C474.924 625.76 475.724 629.24 477.324 632.2C479.004 635.16 481.164 637.44 483.804 639.04C486.524 640.56 489.404 641.32 492.444 641.32C495.564 641.32 498.444 640.52 501.084 638.92C503.804 637.32 505.964 635.04 507.564 632.08C509.244 629.12 510.084 625.6 510.084 621.52ZM556.252 566.2V655H539.452V566.2H556.252ZM634.65 620.32C634.65 622.72 634.49 624.88 634.17 626.8H585.57C585.97 631.6 587.65 635.36 590.61 638.08C593.57 640.8 597.21 642.16 601.53 642.16C607.77 642.16 612.21 639.48 614.85 634.12H632.97C631.05 640.52 627.37 645.8 621.93 649.96C616.49 654.04 609.81 656.08 601.89 656.08C595.49 656.08 589.73 654.68 584.61 651.88C579.57 649 575.61 644.96 572.73 639.76C569.93 634.56 568.53 628.56 568.53 621.76C568.53 614.88 569.93 608.84 572.73 603.64C575.53 598.44 579.45 594.44 584.49 591.64C589.53 588.84 595.33 587.44 601.89 587.44C608.21 587.44 613.85 588.8 618.81 591.52C623.85 594.24 627.73 598.12 630.45 603.16C633.25 608.12 634.65 613.84 634.65 620.32ZM617.25 615.52C617.17 611.2 615.61 607.76 612.57 605.2C609.53 602.56 605.81 601.24 601.41 601.24C597.25 601.24 593.73 602.52 590.85 605.08C588.05 607.56 586.33 611.04 585.69 615.52H617.25ZM672.353 656.08C666.913 656.08 662.033 655.12 657.713 653.2C653.393 651.2 649.953 648.52 647.393 645.16C644.913 641.8 643.553 638.08 643.313 634H660.233C660.553 636.56 661.793 638.68 663.953 640.36C666.193 642.04 668.953 642.88 672.233 642.88C675.433 642.88 677.913 642.24 679.673 640.96C681.513 639.68 682.433 638.04 682.433 636.04C682.433 633.88 681.313 632.28 679.073 631.24C676.913 630.12 673.433 628.92 668.633 627.64C663.673 626.44 659.593 625.2 656.393 623.92C653.273 622.64 650.553 620.68 648.233 618.04C645.993 615.4 644.873 611.84 644.873 607.36C644.873 603.68 645.913 600.32 647.993 597.28C650.153 594.24 653.193 591.84 657.113 590.08C661.113 588.32 665.793 587.44 671.153 587.44C679.073 587.44 685.393 589.44 690.113 593.44C694.833 597.36 697.433 602.68 697.913 609.4H681.833C681.593 606.76 680.473 604.68 678.473 603.16C676.553 601.56 673.953 600.76 670.673 600.76C667.633 600.76 665.273 601.32 663.593 602.44C661.993 603.56 661.193 605.12 661.193 607.12C661.193 609.36 662.313 611.08 664.553 612.28C666.793 613.4 670.273 614.56 674.993 615.76C679.793 616.96 683.753 618.2 686.873 619.48C689.993 620.76 692.673 622.76 694.913 625.48C697.233 628.12 698.433 631.64 698.513 636.04C698.513 639.88 697.433 643.32 695.273 646.36C693.193 649.4 690.153 651.8 686.153 653.56C682.233 655.24 677.633 656.08 672.353 656.08Z" fill="white"/>
<path fill-rule="evenodd" clip-rule="evenodd" d="M140 898.189C119.158 898.189 102.257 915.086 102.257 935.932C102.257 952.608 113.072 966.755 128.068 971.746C129.954 972.096 130.646 970.928 130.646 969.931C130.646 969.031 130.611 966.058 130.595 962.904C120.095 965.187 117.879 958.451 117.879 958.451C116.162 954.088 113.689 952.928 113.689 952.928C110.264 950.586 113.947 950.634 113.947 950.634C117.736 950.9 119.732 954.524 119.732 954.524C123.099 960.293 128.562 958.625 130.715 957.661C131.054 955.222 132.032 953.556 133.112 952.614C124.729 951.661 115.915 948.424 115.915 933.962C115.915 929.841 117.39 926.474 119.805 923.831C119.412 922.881 118.12 919.042 120.17 913.843C120.17 913.843 123.339 912.829 130.551 917.712C133.562 916.875 136.792 916.454 140 916.44C143.206 916.454 146.437 916.874 149.454 917.711C156.658 912.828 159.823 913.842 159.823 913.842C161.877 919.04 160.585 922.879 160.194 923.829C162.614 926.473 164.078 929.84 164.078 933.961C164.078 948.457 155.249 951.648 146.844 952.583C148.199 953.754 149.405 956.052 149.405 959.573C149.405 964.623 149.361 968.687 149.361 969.93C149.361 970.934 150.041 972.111 151.954 971.741C166.941 966.744 177.743 952.602 177.743 935.932C177.742 915.088 160.844 898.189 140 898.189Z" fill="white"/>
<path d="M116.552 952.379C116.469 952.567 116.174 952.623 115.905 952.495C115.63 952.372 115.477 952.117 115.566 951.929C115.647 951.735 115.943 951.682 116.216 951.811C116.491 951.934 116.647 952.192 116.552 952.38L116.552 952.379ZM118.081 954.085C117.902 954.252 117.55 954.174 117.311 953.91C117.063 953.647 117.017 953.295 117.2 953.126C117.387 952.96 117.728 953.039 117.975 953.301C118.222 953.567 118.27 953.916 118.082 954.085L118.081 954.085ZM119.57 956.258C119.338 956.419 118.96 956.269 118.726 955.933C118.495 955.597 118.495 955.194 118.732 955.033C118.965 954.872 119.338 955.017 119.576 955.35C119.806 955.69 119.806 956.094 119.57 956.258ZM121.608 958.358C121.402 958.586 120.96 958.525 120.638 958.215C120.308 957.91 120.217 957.477 120.423 957.25C120.633 957.021 121.077 957.085 121.401 957.394C121.73 957.697 121.83 958.131 121.609 958.358L121.608 958.358ZM124.42 959.578C124.328 959.873 123.905 960.008 123.477 959.881C123.05 959.752 122.77 959.406 122.858 959.108C122.945 958.81 123.372 958.67 123.803 958.805C124.23 958.933 124.509 959.277 124.42 959.578ZM127.51 959.803C127.52 960.115 127.158 960.372 126.71 960.378C126.258 960.389 125.892 960.136 125.888 959.83C125.888 959.516 126.243 959.261 126.694 959.253C127.142 959.245 127.51 959.495 127.51 959.803L127.51 959.803ZM130.383 959.315C130.437 959.618 130.125 959.93 129.68 960.013C129.242 960.094 128.836 959.905 128.78 959.605C128.726 959.293 129.043 958.981 129.481 958.901C129.927 958.824 130.327 959.006 130.383 959.315Z" fill="white"/>
<path d="M211.7 960.49C208.293 960.49 205.213 959.907 202.46 958.74C199.753 957.573 197.607 955.893 196.02 953.7C194.433 951.507 193.617 948.917 193.57 945.93H204.07C204.21 947.937 204.91 949.523 206.17 950.69C207.477 951.857 209.25 952.44 211.49 952.44C213.777 952.44 215.573 951.903 216.88 950.83C218.187 949.71 218.84 948.263 218.84 946.49C218.84 945.043 218.397 943.853 217.51 942.92C216.623 941.987 215.503 941.263 214.15 940.75C212.843 940.19 211.023 939.583 208.69 938.93C205.517 937.997 202.927 937.087 200.92 936.2C198.96 935.267 197.257 933.89 195.81 932.07C194.41 930.203 193.71 927.73 193.71 924.65C193.71 921.757 194.433 919.237 195.88 917.09C197.327 914.943 199.357 913.31 201.97 912.19C204.583 911.023 207.57 910.44 210.93 910.44C215.97 910.44 220.053 911.677 223.18 914.15C226.353 916.577 228.103 919.983 228.43 924.37H217.65C217.557 922.69 216.833 921.313 215.48 920.24C214.173 919.12 212.423 918.56 210.23 918.56C208.317 918.56 206.777 919.05 205.61 920.03C204.49 921.01 203.93 922.433 203.93 924.3C203.93 925.607 204.35 926.703 205.19 927.59C206.077 928.43 207.15 929.13 208.41 929.69C209.717 930.203 211.537 930.81 213.87 931.51C217.043 932.443 219.633 933.377 221.64 934.31C223.647 935.243 225.373 936.643 226.82 938.51C228.267 940.377 228.99 942.827 228.99 945.86C228.99 948.473 228.313 950.9 226.96 953.14C225.607 955.38 223.623 957.177 221.01 958.53C218.397 959.837 215.293 960.49 211.7 960.49ZM290.756 911.14V960H280.956V928.22L267.866 960H260.446L247.286 928.22V960H237.486V911.14H248.616L264.156 947.47L279.696 911.14H290.756ZM310.245 911.14V960H300.445V911.14H310.245ZM353.178 911.14V919.05H340.158V960H330.358V919.05H317.338V911.14H353.178ZM388.818 911.14V945.44C388.818 950.2 387.441 953.91 384.688 956.57C381.935 959.183 378.248 960.49 373.628 960.49C368.961 960.49 365.181 959.137 362.288 956.43C359.441 953.723 358.018 949.943 358.018 945.09H367.818C367.865 947.19 368.355 948.823 369.288 949.99C370.268 951.157 371.668 951.74 373.488 951.74C375.261 951.74 376.615 951.18 377.548 950.06C378.481 948.94 378.948 947.4 378.948 945.44V911.14H388.818ZM409.91 911.14V941.38C409.91 944.693 410.773 947.237 412.5 949.01C414.227 950.737 416.653 951.6 419.78 951.6C422.953 951.6 425.403 950.737 427.13 949.01C428.857 947.237 429.72 944.693 429.72 941.38V911.14H439.59V941.31C439.59 945.463 438.68 948.987 436.86 951.88C435.087 954.727 432.683 956.873 429.65 958.32C426.663 959.767 423.327 960.49 419.64 960.49C416 960.49 412.687 959.767 409.7 958.32C406.76 956.873 404.427 954.727 402.7 951.88C400.973 948.987 400.11 945.463 400.11 941.31V911.14H409.91ZM470.479 960L462.499 947.96L455.429 960H444.929L457.599 940.54L444.789 921.22H455.849L463.759 933.19L470.899 921.22H481.399L468.659 940.54L481.539 960H470.479Z" fill="white"/>
<path d="M1920 370L1920 710L1750 710C1656.11 710 1580 633.888 1580 540C1580 446.112 1656.11 370 1750 370L1920 370Z" fill="#1E294B"/>
<circle cx="1749.5" cy="540.5" r="60" stroke="white" stroke-width="5"/>
<path d="M1774.77 541.768C1775.74 540.791 1775.74 539.209 1774.77 538.232L1758.86 522.322C1757.88 521.346 1756.3 521.346 1755.32 522.322C1754.35 523.299 1754.35 524.882 1755.32 525.858L1769.46 540L1755.32 554.142C1754.35 555.118 1754.35 556.701 1755.32 557.678C1756.3 558.654 1757.88 558.654 1758.86 557.678L1774.77 541.768ZM1726 542.5L1773 542.5L1773 537.5L1726 537.5L1726 542.5Z" fill="white"/>
</svg>
