<svg width="1920" height="1080" viewBox="0 0 1920 1080" fill="none" xmlns="http://www.w3.org/2000/svg">
<rect width="1920" height="1080" fill="white"/>
<path d="M310.08 589.32C321.813 589.32 332.107 591.613 340.96 596.2C349.92 600.787 356.8 607.347 361.6 615.88C366.507 624.307 368.96 634.12 368.96 645.32C368.96 656.52 366.507 666.333 361.6 674.76C356.8 683.08 349.92 689.533 340.96 694.12C332.107 698.707 321.813 701 310.08 701H271.04V589.32H310.08ZM309.28 681.96C321.013 681.96 330.08 678.76 336.48 672.36C342.88 665.96 346.08 656.947 346.08 645.32C346.08 633.693 342.88 624.627 336.48 618.12C330.08 611.507 321.013 608.2 309.28 608.2H293.44V681.96H309.28ZM379.967 656.36C379.967 647.4 381.727 639.453 385.247 632.52C388.874 625.587 393.728 620.253 399.808 616.52C405.994 612.787 412.874 610.92 420.448 610.92C427.061 610.92 432.821 612.253 437.728 614.92C442.741 617.587 446.741 620.947 449.728 625V612.36H472.288V701H449.728V688.04C446.848 692.2 442.848 695.667 437.728 698.44C432.714 701.107 426.901 702.44 420.288 702.44C412.821 702.44 405.994 700.52 399.808 696.68C393.728 692.84 388.874 687.453 385.247 680.52C381.727 673.48 379.967 665.427 379.967 656.36ZM449.728 656.68C449.728 651.24 448.661 646.6 446.528 642.76C444.394 638.813 441.514 635.827 437.888 633.8C434.261 631.667 430.368 630.6 426.208 630.6C422.048 630.6 418.208 631.613 414.688 633.64C411.168 635.667 408.288 638.653 406.048 642.6C403.914 646.44 402.848 651.027 402.848 656.36C402.848 661.693 403.914 666.387 406.048 670.44C408.288 674.387 411.168 677.427 414.688 679.56C418.314 681.693 422.154 682.76 426.208 682.76C430.368 682.76 434.261 681.747 437.888 679.72C441.514 677.587 444.394 674.6 446.528 670.76C448.661 666.813 449.728 662.12 449.728 656.68ZM520.245 630.76V673.64C520.245 676.627 520.938 678.813 522.325 680.2C523.818 681.48 526.272 682.12 529.685 682.12H540.085V701H526.005C507.125 701 497.685 691.827 497.685 673.48V630.76H487.125V612.36H497.685V590.44H520.245V612.36H540.085V630.76H520.245ZM550.436 656.36C550.436 647.4 552.196 639.453 555.716 632.52C559.343 625.587 564.196 620.253 570.276 616.52C576.463 612.787 583.343 610.92 590.916 610.92C597.53 610.92 603.29 612.253 608.196 614.92C613.21 617.587 617.21 620.947 620.196 625V612.36H642.756V701H620.196V688.04C617.316 692.2 613.316 695.667 608.196 698.44C603.183 701.107 597.37 702.44 590.756 702.44C583.29 702.44 576.463 700.52 570.276 696.68C564.196 692.84 559.343 687.453 555.716 680.52C552.196 673.48 550.436 665.427 550.436 656.36ZM620.196 656.68C620.196 651.24 619.13 646.6 616.996 642.76C614.863 638.813 611.983 635.827 608.356 633.8C604.73 631.667 600.836 630.6 596.676 630.6C592.516 630.6 588.676 631.613 585.156 633.64C581.636 635.667 578.756 638.653 576.516 642.6C574.383 646.44 573.316 651.027 573.316 656.36C573.316 661.693 574.383 666.387 576.516 670.44C578.756 674.387 581.636 677.427 585.156 679.56C588.783 681.693 592.623 682.76 596.676 682.76C600.836 682.76 604.73 681.747 608.356 679.72C611.983 677.587 614.863 674.6 616.996 670.76C619.13 666.813 620.196 662.12 620.196 656.68ZM687.034 625.32C689.914 621.053 693.86 617.587 698.874 614.92C703.994 612.253 709.807 610.92 716.314 610.92C723.887 610.92 730.714 612.787 736.794 616.52C742.98 620.253 747.834 625.587 751.354 632.52C754.98 639.347 756.794 647.293 756.794 656.36C756.794 665.427 754.98 673.48 751.354 680.52C747.834 687.453 742.98 692.84 736.794 696.68C730.714 700.52 723.887 702.44 716.314 702.44C709.7 702.44 703.887 701.16 698.874 698.6C693.967 695.933 690.02 692.52 687.034 688.36V701H664.634V582.6H687.034V625.32ZM733.914 656.36C733.914 651.027 732.794 646.44 730.554 642.6C728.42 638.653 725.54 635.667 721.914 633.64C718.394 631.613 714.554 630.6 710.394 630.6C706.34 630.6 702.5 631.667 698.874 633.8C695.354 635.827 692.474 638.813 690.234 642.76C688.1 646.707 687.034 651.347 687.034 656.68C687.034 662.013 688.1 666.653 690.234 670.6C692.474 674.547 695.354 677.587 698.874 679.72C702.5 681.747 706.34 682.76 710.394 682.76C714.554 682.76 718.394 681.693 721.914 679.56C725.54 677.427 728.42 674.387 730.554 670.44C732.794 666.493 733.914 661.8 733.914 656.36ZM767.311 656.36C767.311 647.4 769.071 639.453 772.591 632.52C776.218 625.587 781.071 620.253 787.151 616.52C793.338 612.787 800.218 610.92 807.791 610.92C814.405 610.92 820.165 612.253 825.071 614.92C830.085 617.587 834.085 620.947 837.071 625V612.36H859.631V701H837.071V688.04C834.191 692.2 830.191 695.667 825.071 698.44C820.058 701.107 814.245 702.44 807.631 702.44C800.165 702.44 793.338 700.52 787.151 696.68C781.071 692.84 776.218 687.453 772.591 680.52C769.071 673.48 767.311 665.427 767.311 656.36ZM837.071 656.68C837.071 651.24 836.005 646.6 833.871 642.76C831.738 638.813 828.858 635.827 825.231 633.8C821.605 631.667 817.711 630.6 813.551 630.6C809.391 630.6 805.551 631.613 802.031 633.64C798.511 635.667 795.631 638.653 793.391 642.6C791.258 646.44 790.191 651.027 790.191 656.36C790.191 661.693 791.258 666.387 793.391 670.44C795.631 674.387 798.511 677.427 802.031 679.56C805.658 681.693 809.498 682.76 813.551 682.76C817.711 682.76 821.605 681.747 825.231 679.72C828.858 677.587 831.738 674.6 833.871 670.76C836.005 666.813 837.071 662.12 837.071 656.68ZM915.429 702.44C908.175 702.44 901.669 701.16 895.909 698.6C890.149 695.933 885.562 692.36 882.149 687.88C878.842 683.4 877.029 678.44 876.709 673H899.269C899.695 676.413 901.349 679.24 904.229 681.48C907.215 683.72 910.895 684.84 915.269 684.84C919.535 684.84 922.842 683.987 925.189 682.28C927.642 680.573 928.869 678.387 928.869 675.72C928.869 672.84 927.375 670.707 924.389 669.32C921.509 667.827 916.869 666.227 910.469 664.52C903.855 662.92 898.415 661.267 894.149 659.56C889.989 657.853 886.362 655.24 883.269 651.72C880.282 648.2 878.789 643.453 878.789 637.48C878.789 632.573 880.175 628.093 882.949 624.04C885.829 619.987 889.882 616.787 895.109 614.44C900.442 612.093 906.682 610.92 913.829 610.92C924.389 610.92 932.815 613.587 939.109 618.92C945.402 624.147 948.869 631.24 949.509 640.2H928.069C927.749 636.68 926.255 633.907 923.589 631.88C921.029 629.747 917.562 628.68 913.189 628.68C909.135 628.68 905.989 629.427 903.749 630.92C901.615 632.413 900.549 634.493 900.549 637.16C900.549 640.147 902.042 642.44 905.029 644.04C908.015 645.533 912.655 647.08 918.949 648.68C925.349 650.28 930.629 651.933 934.789 653.64C938.949 655.347 942.522 658.013 945.509 661.64C948.602 665.16 950.202 669.853 950.309 675.72C950.309 680.84 948.869 685.427 945.989 689.48C943.215 693.533 939.162 696.733 933.829 699.08C928.602 701.32 922.469 702.44 915.429 702.44ZM1051.1 654.76C1051.1 657.96 1050.88 660.84 1050.46 663.4H985.656C986.19 669.8 988.43 674.813 992.376 678.44C996.323 682.067 1001.18 683.88 1006.94 683.88C1015.26 683.88 1021.18 680.307 1024.7 673.16H1048.86C1046.3 681.693 1041.39 688.733 1034.14 694.28C1026.88 699.72 1017.98 702.44 1007.42 702.44C998.883 702.44 991.203 700.573 984.376 696.84C977.656 693 972.376 687.613 968.536 680.68C964.803 673.747 962.936 665.747 962.936 656.68C962.936 647.507 964.803 639.453 968.536 632.52C972.27 625.587 977.496 620.253 984.216 616.52C990.936 612.787 998.67 610.92 1007.42 610.92C1015.84 610.92 1023.36 612.733 1029.98 616.36C1036.7 619.987 1041.87 625.16 1045.5 631.88C1049.23 638.493 1051.1 646.12 1051.1 654.76ZM1027.9 648.36C1027.79 642.6 1025.71 638.013 1021.66 634.6C1017.6 631.08 1012.64 629.32 1006.78 629.32C1001.23 629.32 996.536 631.027 992.696 634.44C988.963 637.747 986.67 642.387 985.816 648.36H1027.9ZM309.6 902.12C301.813 902.12 294.773 900.787 288.48 898.12C282.293 895.453 277.387 891.613 273.76 886.6C270.133 881.587 268.267 875.667 268.16 868.84H292.16C292.48 873.427 294.08 877.053 296.96 879.72C299.947 882.387 304 883.72 309.12 883.72C314.347 883.72 318.453 882.493 321.44 880.04C324.427 877.48 325.92 874.173 325.92 870.12C325.92 866.813 324.907 864.093 322.88 861.96C320.853 859.827 318.293 858.173 315.2 857C312.213 855.72 308.053 854.333 302.72 852.84C295.467 850.707 289.547 848.627 284.96 846.6C280.48 844.467 276.587 841.32 273.28 837.16C270.08 832.893 268.48 827.24 268.48 820.2C268.48 813.587 270.133 807.827 273.44 802.92C276.747 798.013 281.387 794.28 287.36 791.72C293.333 789.053 300.16 787.72 307.84 787.72C319.36 787.72 328.693 790.547 335.84 796.2C343.093 801.747 347.093 809.533 347.84 819.56H323.2C322.987 815.72 321.333 812.573 318.24 810.12C315.253 807.56 311.253 806.28 306.24 806.28C301.867 806.28 298.347 807.4 295.68 809.64C293.12 811.88 291.84 815.133 291.84 819.4C291.84 822.387 292.8 824.893 294.72 826.92C296.747 828.84 299.2 830.44 302.08 831.72C305.067 832.893 309.227 834.28 314.56 835.88C321.813 838.013 327.733 840.147 332.32 842.28C336.907 844.413 340.853 847.613 344.16 851.88C347.467 856.147 349.12 861.747 349.12 868.68C349.12 874.653 347.573 880.2 344.48 885.32C341.387 890.44 336.853 894.547 330.88 897.64C324.907 900.627 317.813 902.12 309.6 902.12ZM362.78 856.68C362.78 847.507 364.647 839.507 368.38 832.68C372.113 825.747 377.287 820.413 383.9 816.68C390.513 812.84 398.087 810.92 406.62 810.92C417.607 810.92 426.673 813.693 433.82 819.24C441.073 824.68 445.927 832.36 448.38 842.28H424.22C422.94 838.44 420.753 835.453 417.66 833.32C414.673 831.08 410.94 829.96 406.46 829.96C400.06 829.96 394.993 832.307 391.26 837C387.527 841.587 385.66 848.147 385.66 856.68C385.66 865.107 387.527 871.667 391.26 876.36C394.993 880.947 400.06 883.24 406.46 883.24C415.527 883.24 421.447 879.187 424.22 871.08H448.38C445.927 880.68 441.073 888.307 433.82 893.96C426.567 899.613 417.5 902.44 406.62 902.44C398.087 902.44 390.513 900.573 383.9 896.84C377.287 893 372.113 887.667 368.38 880.84C364.647 873.907 362.78 865.853 362.78 856.68ZM459.03 856.36C459.03 847.4 460.79 839.453 464.31 832.52C467.937 825.587 472.79 820.253 478.87 816.52C485.057 812.787 491.937 810.92 499.51 810.92C506.123 810.92 511.883 812.253 516.79 814.92C521.803 817.587 525.803 820.947 528.79 825V812.36H551.35V901H528.79V888.04C525.91 892.2 521.91 895.667 516.79 898.44C511.777 901.107 505.963 902.44 499.35 902.44C491.883 902.44 485.057 900.52 478.87 896.68C472.79 892.84 467.937 887.453 464.31 880.52C460.79 873.48 459.03 865.427 459.03 856.36ZM528.79 856.68C528.79 851.24 527.723 846.6 525.59 842.76C523.457 838.813 520.577 835.827 516.95 833.8C513.323 831.667 509.43 830.6 505.27 830.6C501.11 830.6 497.27 831.613 493.75 833.64C490.23 835.667 487.35 838.653 485.11 842.6C482.977 846.44 481.91 851.027 481.91 856.36C481.91 861.693 482.977 866.387 485.11 870.44C487.35 874.387 490.23 877.427 493.75 879.56C497.377 881.693 501.217 882.76 505.27 882.76C509.43 882.76 513.323 881.747 516.95 879.72C520.577 877.587 523.457 874.6 525.59 870.76C527.723 866.813 528.79 862.12 528.79 856.68ZM595.628 782.6V901H573.228V782.6H595.628ZM629.119 801.8C625.172 801.8 621.865 800.573 619.199 798.12C616.639 795.56 615.359 792.413 615.359 788.68C615.359 784.947 616.639 781.853 619.199 779.4C621.865 776.84 625.172 775.56 629.119 775.56C633.065 775.56 636.319 776.84 638.879 779.4C641.545 781.853 642.879 784.947 642.879 788.68C642.879 792.413 641.545 795.56 638.879 798.12C636.319 800.573 633.065 801.8 629.119 801.8ZM640.159 812.36V901H617.759V812.36H640.159ZM711.41 811.08C721.97 811.08 730.503 814.44 737.01 821.16C743.517 827.773 746.77 837.053 746.77 849V901H724.37V852.04C724.37 845 722.61 839.613 719.09 835.88C715.57 832.04 710.77 830.12 704.69 830.12C698.503 830.12 693.597 832.04 689.97 835.88C686.45 839.613 684.69 845 684.69 852.04V901H662.29V812.36H684.69V823.4C687.677 819.56 691.463 816.573 696.05 814.44C700.743 812.2 705.863 811.08 711.41 811.08ZM802.791 810.92C809.405 810.92 815.218 812.253 820.231 814.92C825.245 817.48 829.191 820.84 832.071 825V812.36H854.631V901.64C854.631 909.853 852.978 917.16 849.671 923.56C846.365 930.067 841.405 935.187 834.791 938.92C828.178 942.76 820.178 944.68 810.791 944.68C798.205 944.68 787.858 941.747 779.751 935.88C771.751 930.013 767.218 922.013 766.151 911.88H788.391C789.565 915.933 792.071 919.133 795.911 921.48C799.858 923.933 804.605 925.16 810.151 925.16C816.658 925.16 821.938 923.187 825.991 919.24C830.045 915.4 832.071 909.533 832.071 901.64V887.88C829.191 892.04 825.191 895.507 820.071 898.28C815.058 901.053 809.298 902.44 802.791 902.44C795.325 902.44 788.498 900.52 782.311 896.68C776.125 892.84 771.218 887.453 767.591 880.52C764.071 873.48 762.311 865.427 762.311 856.36C762.311 847.4 764.071 839.453 767.591 832.52C771.218 825.587 776.071 820.253 782.151 816.52C788.338 812.787 795.218 810.92 802.791 810.92ZM832.071 856.68C832.071 851.24 831.005 846.6 828.871 842.76C826.738 838.813 823.858 835.827 820.231 833.8C816.605 831.667 812.711 830.6 808.551 830.6C804.391 830.6 800.551 831.613 797.031 833.64C793.511 835.667 790.631 838.653 788.391 842.6C786.258 846.44 785.191 851.027 785.191 856.36C785.191 861.693 786.258 866.387 788.391 870.44C790.631 874.387 793.511 877.427 797.031 879.56C800.658 881.693 804.498 882.76 808.551 882.76C812.711 882.76 816.605 881.747 820.231 879.72C823.858 877.587 826.738 874.6 828.871 870.76C831.005 866.813 832.071 862.12 832.071 856.68Z" fill="#121212"/>
<circle cx="335" cy="410" r="75" fill="#1E294B"/>
<path d="M306.522 409.3C306.522 403.533 307.555 399.017 309.622 395.75C311.722 392.483 315.189 390.85 320.022 390.85C324.855 390.85 328.305 392.483 330.372 395.75C332.472 399.017 333.522 403.533 333.522 409.3C333.522 415.1 332.472 419.65 330.372 422.95C328.305 426.25 324.855 427.9 320.022 427.9C315.189 427.9 311.722 426.25 309.622 422.95C307.555 419.65 306.522 415.1 306.522 409.3ZM326.622 409.3C326.622 406.833 326.455 404.767 326.122 403.1C325.822 401.4 325.189 400.017 324.222 398.95C323.289 397.883 321.889 397.35 320.022 397.35C318.155 397.35 316.739 397.883 315.772 398.95C314.839 400.017 314.205 401.4 313.872 403.1C313.572 404.767 313.422 406.833 313.422 409.3C313.422 411.833 313.572 413.967 313.872 415.7C314.172 417.4 314.805 418.783 315.772 419.85C316.739 420.883 318.155 421.4 320.022 421.4C321.889 421.4 323.305 420.883 324.272 419.85C325.239 418.783 325.872 417.4 326.172 415.7C326.472 413.967 326.622 411.833 326.622 409.3ZM338.946 401.15C339.113 397.817 340.28 395.25 342.446 393.45C344.646 391.617 347.53 390.7 351.096 390.7C353.53 390.7 355.613 391.133 357.346 392C359.08 392.833 360.38 393.983 361.246 395.45C362.146 396.883 362.596 398.517 362.596 400.35C362.596 402.45 362.046 404.233 360.946 405.7C359.88 407.133 358.596 408.1 357.096 408.6V408.8C359.03 409.4 360.53 410.467 361.596 412C362.696 413.533 363.246 415.5 363.246 417.9C363.246 419.9 362.78 421.683 361.846 423.25C360.946 424.817 359.596 426.05 357.796 426.95C356.03 427.817 353.896 428.25 351.396 428.25C347.63 428.25 344.563 427.3 342.196 425.4C339.83 423.5 338.58 420.7 338.446 417H345.246C345.313 418.633 345.863 419.95 346.896 420.95C347.963 421.917 349.413 422.4 351.246 422.4C352.946 422.4 354.246 421.933 355.146 421C356.08 420.033 356.546 418.8 356.546 417.3C356.546 415.3 355.913 413.867 354.646 413C353.38 412.133 351.413 411.7 348.746 411.7H347.296V405.95H348.746C353.48 405.95 355.846 404.367 355.846 401.2C355.846 399.767 355.413 398.65 354.546 397.85C353.713 397.05 352.496 396.65 350.896 396.65C349.33 396.65 348.113 397.083 347.246 397.95C346.413 398.783 345.93 399.85 345.796 401.15H338.946Z" fill="white"/>
<path fill-rule="evenodd" clip-rule="evenodd" d="M120 987.595C109.579 987.595 101.129 996.043 101.129 1006.47C101.129 1014.8 106.536 1021.88 114.034 1024.37C114.977 1024.55 115.323 1023.96 115.323 1023.47C115.323 1023.02 115.306 1021.53 115.297 1019.95C110.047 1021.09 108.94 1017.73 108.94 1017.73C108.081 1015.54 106.844 1014.96 106.844 1014.96C105.132 1013.79 106.973 1013.82 106.973 1013.82C108.868 1013.95 109.866 1015.76 109.866 1015.76C111.549 1018.65 114.281 1017.81 115.358 1017.33C115.527 1016.11 116.016 1015.28 116.556 1014.81C112.364 1014.33 107.958 1012.71 107.958 1005.48C107.958 1003.42 108.695 1001.74 109.902 1000.42C109.706 999.94 109.06 998.021 110.085 995.422C110.085 995.422 111.669 994.914 115.276 997.356C116.781 996.938 118.396 996.727 120 996.72C121.603 996.727 123.219 996.937 124.727 997.355C128.329 994.914 129.911 995.421 129.911 995.421C130.939 998.02 130.293 999.94 130.097 1000.41C131.307 1001.74 132.039 1003.42 132.039 1005.48C132.039 1012.73 127.624 1014.32 123.422 1014.79C124.099 1015.38 124.702 1016.53 124.702 1018.29C124.702 1020.81 124.681 1022.84 124.681 1023.47C124.681 1023.97 125.021 1024.56 125.977 1024.37C133.471 1021.87 138.872 1014.8 138.872 1006.47C138.871 996.044 130.422 987.595 120 987.595Z" fill="#1E294B"/>
<path d="M108.276 1014.69C108.235 1014.78 108.087 1014.81 107.953 1014.75C107.815 1014.69 107.739 1014.56 107.783 1014.46C107.824 1014.37 107.972 1014.34 108.108 1014.41C108.246 1014.47 108.324 1014.6 108.276 1014.69L108.276 1014.69ZM109.041 1015.54C108.951 1015.63 108.775 1015.59 108.656 1015.45C108.532 1015.32 108.509 1015.15 108.6 1015.06C108.693 1014.98 108.864 1015.02 108.988 1015.15C109.111 1015.28 109.135 1015.46 109.041 1015.54L109.041 1015.54ZM109.785 1016.63C109.669 1016.71 109.48 1016.63 109.363 1016.47C109.247 1016.3 109.247 1016.1 109.366 1016.02C109.483 1015.94 109.669 1016.01 109.788 1016.17C109.903 1016.35 109.903 1016.55 109.785 1016.63ZM110.804 1017.68C110.701 1017.79 110.48 1017.76 110.319 1017.61C110.154 1017.46 110.108 1017.24 110.212 1017.12C110.317 1017.01 110.538 1017.04 110.701 1017.2C110.865 1017.35 110.915 1017.57 110.805 1017.68L110.804 1017.68ZM112.21 1018.29C112.164 1018.44 111.952 1018.5 111.738 1018.44C111.525 1018.38 111.385 1018.2 111.429 1018.05C111.473 1017.9 111.686 1017.84 111.902 1017.9C112.115 1017.97 112.255 1018.14 112.21 1018.29ZM113.755 1018.4C113.76 1018.56 113.579 1018.69 113.355 1018.69C113.129 1018.69 112.946 1018.57 112.944 1018.42C112.944 1018.26 113.122 1018.13 113.347 1018.13C113.571 1018.12 113.755 1018.25 113.755 1018.4L113.755 1018.4ZM115.192 1018.16C115.219 1018.31 115.063 1018.46 114.84 1018.51C114.621 1018.55 114.418 1018.45 114.39 1018.3C114.363 1018.15 114.522 1017.99 114.741 1017.95C114.964 1017.91 115.164 1018 115.192 1018.16Z" fill="#1E294B"/>
<path d="M152.76 1017.21C151.38 1017.21 150.16 1016.97 149.1 1016.49C148.06 1016.01 147.24 1015.34 146.64 1014.48C146.04 1013.62 145.72 1012.66 145.68 1011.6H147.9C148 1012.62 148.45 1013.52 149.25 1014.3C150.05 1015.06 151.22 1015.44 152.76 1015.44C154.18 1015.44 155.3 1015.08 156.12 1014.36C156.96 1013.62 157.38 1012.69 157.38 1011.57C157.38 1010.67 157.15 1009.95 156.69 1009.41C156.23 1008.85 155.66 1008.44 154.98 1008.18C154.3 1007.9 153.36 1007.6 152.16 1007.28C150.76 1006.9 149.65 1006.53 148.83 1006.17C148.01 1005.81 147.31 1005.25 146.73 1004.49C146.15 1003.73 145.86 1002.7 145.86 1001.4C145.86 1000.32 146.14 999.36 146.7 998.52C147.26 997.66 148.05 996.99 149.07 996.51C150.09 996.03 151.26 995.79 152.58 995.79C154.52 995.79 156.08 996.27 157.26 997.23C158.46 998.17 159.15 999.39 159.33 1000.89H157.05C156.91 1000.03 156.44 999.27 155.64 998.61C154.84 997.93 153.76 997.59 152.4 997.59C151.14 997.59 150.09 997.93 149.25 998.61C148.41 999.27 147.99 1000.18 147.99 1001.34C147.99 1002.22 148.22 1002.93 148.68 1003.47C149.14 1004.01 149.71 1004.42 150.39 1004.7C151.09 1004.98 152.03 1005.28 153.21 1005.6C154.57 1005.98 155.67 1006.36 156.51 1006.74C157.35 1007.1 158.06 1007.66 158.64 1008.42C159.22 1009.18 159.51 1010.2 159.51 1011.48C159.51 1012.46 159.25 1013.39 158.73 1014.27C158.21 1015.15 157.44 1015.86 156.42 1016.4C155.4 1016.94 154.18 1017.21 152.76 1017.21ZM184.058 996.3V1017H181.958V1000.47L174.578 1017H173.048L165.668 1000.53V1017H163.568V996.3H165.788L173.798 1014.24L181.808 996.3H184.058ZM190.922 996.03V1017H188.822V996.03H190.922ZM207.947 996.03V997.77H202.127V1017H200.027V997.77H194.177V996.03H207.947ZM220.953 996.03V1011.9C220.953 1013.5 220.463 1014.79 219.483 1015.77C218.503 1016.73 217.193 1017.21 215.553 1017.21C213.853 1017.21 212.493 1016.7 211.473 1015.68C210.473 1014.64 209.973 1013.24 209.973 1011.48H212.103C212.123 1012.62 212.403 1013.55 212.943 1014.27C213.503 1014.99 214.373 1015.35 215.553 1015.35C216.673 1015.35 217.503 1015.02 218.043 1014.36C218.583 1013.7 218.853 1012.88 218.853 1011.9V996.03H220.953ZM228.244 996.03V1009.23C228.244 1011.31 228.734 1012.85 229.714 1013.85C230.714 1014.85 232.074 1015.35 233.794 1015.35C235.514 1015.35 236.854 1014.86 237.814 1013.88C238.794 1012.88 239.284 1011.33 239.284 1009.23V996.03H241.384V1009.2C241.384 1011.86 240.674 1013.86 239.254 1015.2C237.854 1016.54 236.024 1017.21 233.764 1017.21C231.504 1017.21 229.664 1016.54 228.244 1015.2C226.844 1013.86 226.144 1011.86 226.144 1009.2V996.03H228.244ZM254.648 1017L250.418 1010.4L246.338 1017H244.118L249.398 1008.81L244.178 1000.62H246.548L250.718 1007.13L254.768 1000.62H256.958L251.738 1008.72L257.018 1017H254.648Z" fill="#1E294B"/>
</svg>
