<svg width="1920" height="1080" viewBox="0 0 1920 1080" fill="none" xmlns="http://www.w3.org/2000/svg">
<rect width="1920" height="1080" fill="white"/>
<path d="M340 589.32V607.4H293.44V636.04H329.12V653.8H293.44V701H271.04V589.32H340ZM350.124 656.36C350.124 647.4 351.884 639.453 355.404 632.52C359.03 625.587 363.884 620.253 369.964 616.52C376.15 612.787 383.03 610.92 390.604 610.92C397.217 610.92 402.977 612.253 407.884 614.92C412.897 617.587 416.897 620.947 419.884 625V612.36H442.444V701H419.884V688.04C417.004 692.2 413.004 695.667 407.884 698.44C402.87 701.107 397.057 702.44 390.444 702.44C382.977 702.44 376.15 700.52 369.964 696.68C363.884 692.84 359.03 687.453 355.404 680.52C351.884 673.48 350.124 665.427 350.124 656.36ZM419.884 656.68C419.884 651.24 418.817 646.6 416.684 642.76C414.55 638.813 411.67 635.827 408.044 633.8C404.417 631.667 400.524 630.6 396.364 630.6C392.204 630.6 388.364 631.613 384.844 633.64C381.324 635.667 378.444 638.653 376.204 642.6C374.07 646.44 373.004 651.027 373.004 656.36C373.004 661.693 374.07 666.387 376.204 670.44C378.444 674.387 381.324 677.427 384.844 679.56C388.47 681.693 392.31 682.76 396.364 682.76C400.524 682.76 404.417 681.747 408.044 679.72C411.67 677.587 414.55 674.6 416.684 670.76C418.817 666.813 419.884 662.12 419.884 656.68ZM475.681 601.8C471.735 601.8 468.428 600.573 465.761 598.12C463.201 595.56 461.921 592.413 461.921 588.68C461.921 584.947 463.201 581.853 465.761 579.4C468.428 576.84 471.735 575.56 475.681 575.56C479.628 575.56 482.881 576.84 485.441 579.4C488.108 581.853 489.441 584.947 489.441 588.68C489.441 592.413 488.108 595.56 485.441 598.12C482.881 600.573 479.628 601.8 475.681 601.8ZM486.721 612.36V701H464.321V612.36H486.721ZM531.253 582.6V701H508.853V582.6H531.253ZM592.744 702.44C584.21 702.44 576.53 700.573 569.704 696.84C562.877 693 557.49 687.613 553.544 680.68C549.704 673.747 547.784 665.747 547.784 656.68C547.784 647.613 549.757 639.613 553.704 632.68C557.757 625.747 563.25 620.413 570.184 616.68C577.117 612.84 584.85 610.92 593.384 610.92C601.917 610.92 609.65 612.84 616.584 616.68C623.517 620.413 628.957 625.747 632.904 632.68C636.957 639.613 638.984 647.613 638.984 656.68C638.984 665.747 636.904 673.747 632.744 680.68C628.69 687.613 623.144 693 616.104 696.84C609.17 700.573 601.384 702.44 592.744 702.44ZM592.744 682.92C596.797 682.92 600.584 681.96 604.104 680.04C607.73 678.013 610.61 675.027 612.744 671.08C614.877 667.133 615.944 662.333 615.944 656.68C615.944 648.253 613.704 641.8 609.224 637.32C604.85 632.733 599.464 630.44 593.064 630.44C586.664 630.44 581.277 632.733 576.904 637.32C572.637 641.8 570.504 648.253 570.504 656.68C570.504 665.107 572.584 671.613 576.744 676.2C581.01 680.68 586.344 682.92 592.744 682.92ZM692.375 680.36L714.775 612.36H738.615L705.815 701H678.615L645.975 612.36H669.975L692.375 680.36ZM833.596 654.76C833.596 657.96 833.383 660.84 832.956 663.4H768.156C768.69 669.8 770.93 674.813 774.876 678.44C778.823 682.067 783.676 683.88 789.436 683.88C797.756 683.88 803.676 680.307 807.196 673.16H831.356C828.796 681.693 823.89 688.733 816.636 694.28C809.383 699.72 800.476 702.44 789.916 702.44C781.383 702.44 773.703 700.573 766.876 696.84C760.156 693 754.876 687.613 751.036 680.68C747.303 673.747 745.436 665.747 745.436 656.68C745.436 647.507 747.303 639.453 751.036 632.52C754.77 625.587 759.996 620.253 766.716 616.52C773.436 612.787 781.17 610.92 789.916 610.92C798.343 610.92 805.863 612.733 812.476 616.36C819.196 619.987 824.37 625.16 827.996 631.88C831.73 638.493 833.596 646.12 833.596 654.76ZM810.396 648.36C810.29 642.6 808.21 638.013 804.156 634.6C800.103 631.08 795.143 629.32 789.276 629.32C783.73 629.32 779.036 631.027 775.196 634.44C771.463 637.747 769.17 642.387 768.316 648.36H810.396ZM872.346 626.12C875.226 621.427 878.96 617.747 883.546 615.08C888.24 612.413 893.573 611.08 899.546 611.08V634.6H893.626C886.586 634.6 881.253 636.253 877.626 639.56C874.106 642.867 872.346 648.627 872.346 656.84V701H849.946V612.36H872.346V626.12ZM309.6 902.12C301.813 902.12 294.773 900.787 288.48 898.12C282.293 895.453 277.387 891.613 273.76 886.6C270.133 881.587 268.267 875.667 268.16 868.84H292.16C292.48 873.427 294.08 877.053 296.96 879.72C299.947 882.387 304 883.72 309.12 883.72C314.347 883.72 318.453 882.493 321.44 880.04C324.427 877.48 325.92 874.173 325.92 870.12C325.92 866.813 324.907 864.093 322.88 861.96C320.853 859.827 318.293 858.173 315.2 857C312.213 855.72 308.053 854.333 302.72 852.84C295.467 850.707 289.547 848.627 284.96 846.6C280.48 844.467 276.587 841.32 273.28 837.16C270.08 832.893 268.48 827.24 268.48 820.2C268.48 813.587 270.133 807.827 273.44 802.92C276.747 798.013 281.387 794.28 287.36 791.72C293.333 789.053 300.16 787.72 307.84 787.72C319.36 787.72 328.693 790.547 335.84 796.2C343.093 801.747 347.093 809.533 347.84 819.56H323.2C322.987 815.72 321.333 812.573 318.24 810.12C315.253 807.56 311.253 806.28 306.24 806.28C301.867 806.28 298.347 807.4 295.68 809.64C293.12 811.88 291.84 815.133 291.84 819.4C291.84 822.387 292.8 824.893 294.72 826.92C296.747 828.84 299.2 830.44 302.08 831.72C305.067 832.893 309.227 834.28 314.56 835.88C321.813 838.013 327.733 840.147 332.32 842.28C336.907 844.413 340.853 847.613 344.16 851.88C347.467 856.147 349.12 861.747 349.12 868.68C349.12 874.653 347.573 880.2 344.48 885.32C341.387 890.44 336.853 894.547 330.88 897.64C324.907 900.627 317.813 902.12 309.6 902.12ZM394.62 830.76V873.64C394.62 876.627 395.313 878.813 396.7 880.2C398.193 881.48 400.647 882.12 404.06 882.12H414.46V901H400.38C381.5 901 372.06 891.827 372.06 873.48V830.76H361.5V812.36H372.06V790.44H394.62V812.36H414.46V830.76H394.62ZM452.971 826.12C455.851 821.427 459.585 817.747 464.171 815.08C468.865 812.413 474.198 811.08 480.171 811.08V834.6H474.251C467.211 834.6 461.878 836.253 458.251 839.56C454.731 842.867 452.971 848.627 452.971 856.84V901H430.571V812.36H452.971V826.12ZM489.499 856.36C489.499 847.4 491.259 839.453 494.779 832.52C498.405 825.587 503.259 820.253 509.339 816.52C515.525 812.787 522.405 810.92 529.979 810.92C536.592 810.92 542.352 812.253 547.259 814.92C552.272 817.587 556.272 820.947 559.259 825V812.36H581.819V901H559.259V888.04C556.379 892.2 552.379 895.667 547.259 898.44C542.245 901.107 536.432 902.44 529.819 902.44C522.352 902.44 515.525 900.52 509.339 896.68C503.259 892.84 498.405 887.453 494.779 880.52C491.259 873.48 489.499 865.427 489.499 856.36ZM559.259 856.68C559.259 851.24 558.192 846.6 556.059 842.76C553.925 838.813 551.045 835.827 547.419 833.8C543.792 831.667 539.899 830.6 535.739 830.6C531.579 830.6 527.739 831.613 524.219 833.64C520.699 835.667 517.819 838.653 515.579 842.6C513.445 846.44 512.379 851.027 512.379 856.36C512.379 861.693 513.445 866.387 515.579 870.44C517.819 874.387 520.699 877.427 524.219 879.56C527.845 881.693 531.685 882.76 535.739 882.76C539.899 882.76 543.792 881.747 547.419 879.72C551.045 877.587 553.925 874.6 556.059 870.76C558.192 866.813 559.259 862.12 559.259 856.68ZM629.776 830.76V873.64C629.776 876.627 630.47 878.813 631.856 880.2C633.35 881.48 635.803 882.12 639.216 882.12H649.616V901H635.536C616.656 901 607.216 891.827 607.216 873.48V830.76H596.656V812.36H607.216V790.44H629.776V812.36H649.616V830.76H629.776ZM748.128 854.76C748.128 857.96 747.914 860.84 747.488 863.4H682.688C683.221 869.8 685.461 874.813 689.408 878.44C693.354 882.067 698.208 883.88 703.968 883.88C712.288 883.88 718.208 880.307 721.728 873.16H745.888C743.328 881.693 738.421 888.733 731.168 894.28C723.914 899.72 715.008 902.44 704.448 902.44C695.914 902.44 688.234 900.573 681.408 896.84C674.688 893 669.408 887.613 665.568 880.68C661.834 873.747 659.967 865.747 659.967 856.68C659.967 847.507 661.834 839.453 665.568 832.52C669.301 825.587 674.528 820.253 681.248 816.52C687.968 812.787 695.701 810.92 704.448 810.92C712.874 810.92 720.394 812.733 727.008 816.36C733.728 819.987 738.901 825.16 742.528 831.88C746.261 838.493 748.128 846.12 748.128 854.76ZM724.928 848.36C724.821 842.6 722.741 838.013 718.688 834.6C714.634 831.08 709.674 829.32 703.808 829.32C698.261 829.32 693.568 831.027 689.728 834.44C685.994 837.747 683.701 842.387 682.848 848.36H724.928ZM799.198 810.92C805.811 810.92 811.624 812.253 816.638 814.92C821.651 817.48 825.598 820.84 828.478 825V812.36H851.038V901.64C851.038 909.853 849.384 917.16 846.078 923.56C842.771 930.067 837.811 935.187 831.198 938.92C824.584 942.76 816.584 944.68 807.198 944.68C794.611 944.68 784.264 941.747 776.158 935.88C768.158 930.013 763.624 922.013 762.558 911.88H784.798C785.971 915.933 788.478 919.133 792.318 921.48C796.264 923.933 801.011 925.16 806.558 925.16C813.064 925.16 818.344 923.187 822.398 919.24C826.451 915.4 828.478 909.533 828.478 901.64V887.88C825.598 892.04 821.598 895.507 816.478 898.28C811.464 901.053 805.704 902.44 799.198 902.44C791.731 902.44 784.904 900.52 778.718 896.68C772.531 892.84 767.624 887.453 763.997 880.52C760.477 873.48 758.717 865.427 758.717 856.36C758.717 847.4 760.477 839.453 763.997 832.52C767.624 825.587 772.478 820.253 778.558 816.52C784.744 812.787 791.624 810.92 799.198 810.92ZM828.478 856.68C828.478 851.24 827.411 846.6 825.278 842.76C823.144 838.813 820.264 835.827 816.638 833.8C813.011 831.667 809.118 830.6 804.958 830.6C800.798 830.6 796.958 831.613 793.438 833.64C789.918 835.667 787.038 838.653 784.798 842.6C782.664 846.44 781.598 851.027 781.598 856.36C781.598 861.693 782.664 866.387 784.798 870.44C787.038 874.387 789.918 877.427 793.438 879.56C797.064 881.693 800.904 882.76 804.958 882.76C809.118 882.76 813.011 881.747 816.638 879.72C820.264 877.587 823.144 874.6 825.278 870.76C827.411 866.813 828.478 862.12 828.478 856.68ZM884.275 801.8C880.328 801.8 877.022 800.573 874.355 798.12C871.795 795.56 870.515 792.413 870.515 788.68C870.515 784.947 871.795 781.853 874.355 779.4C877.022 776.84 880.328 775.56 884.275 775.56C888.222 775.56 891.475 776.84 894.035 779.4C896.702 781.853 898.035 784.947 898.035 788.68C898.035 792.413 896.702 795.56 894.035 798.12C891.475 800.573 888.222 801.8 884.275 801.8ZM895.315 812.36V901H872.915V812.36H895.315ZM999.846 854.76C999.846 857.96 999.633 860.84 999.206 863.4H934.406C934.94 869.8 937.18 874.813 941.126 878.44C945.073 882.067 949.926 883.88 955.686 883.88C964.006 883.88 969.926 880.307 973.446 873.16H997.606C995.046 881.693 990.14 888.733 982.886 894.28C975.633 899.72 966.726 902.44 956.166 902.44C947.633 902.44 939.953 900.573 933.126 896.84C926.406 893 921.126 887.613 917.286 880.68C913.553 873.747 911.686 865.747 911.686 856.68C911.686 847.507 913.553 839.453 917.286 832.52C921.02 825.587 926.246 820.253 932.966 816.52C939.686 812.787 947.42 810.92 956.166 810.92C964.593 810.92 972.113 812.733 978.726 816.36C985.446 819.987 990.62 825.16 994.246 831.88C997.98 838.493 999.846 846.12 999.846 854.76ZM976.646 848.36C976.54 842.6 974.46 838.013 970.406 834.6C966.353 831.08 961.393 829.32 955.526 829.32C949.98 829.32 945.286 831.027 941.446 834.44C937.713 837.747 935.42 842.387 934.566 848.36H976.646ZM1050.12 902.44C1042.86 902.44 1036.36 901.16 1030.6 898.6C1024.84 895.933 1020.25 892.36 1016.84 887.88C1013.53 883.4 1011.72 878.44 1011.4 873H1033.96C1034.38 876.413 1036.04 879.24 1038.92 881.48C1041.9 883.72 1045.58 884.84 1049.96 884.84C1054.22 884.84 1057.53 883.987 1059.88 882.28C1062.33 880.573 1063.56 878.387 1063.56 875.72C1063.56 872.84 1062.06 870.707 1059.08 869.32C1056.2 867.827 1051.56 866.227 1045.16 864.52C1038.54 862.92 1033.1 861.267 1028.84 859.56C1024.68 857.853 1021.05 855.24 1017.96 851.72C1014.97 848.2 1013.48 843.453 1013.48 837.48C1013.48 832.573 1014.86 828.093 1017.64 824.04C1020.52 819.987 1024.57 816.787 1029.8 814.44C1035.13 812.093 1041.37 810.92 1048.52 810.92C1059.08 810.92 1067.5 813.587 1073.8 818.92C1080.09 824.147 1083.56 831.24 1084.2 840.2H1062.76C1062.44 836.68 1060.94 833.907 1058.28 831.88C1055.72 829.747 1052.25 828.68 1047.88 828.68C1043.82 828.68 1040.68 829.427 1038.44 830.92C1036.3 832.413 1035.24 834.493 1035.24 837.16C1035.24 840.147 1036.73 842.44 1039.72 844.04C1042.7 845.533 1047.34 847.08 1053.64 848.68C1060.04 850.28 1065.32 851.933 1069.48 853.64C1073.64 855.347 1077.21 858.013 1080.2 861.64C1083.29 865.16 1084.89 869.853 1085 875.72C1085 880.84 1083.56 885.427 1080.68 889.48C1077.9 893.533 1073.85 896.733 1068.52 899.08C1063.29 901.32 1057.16 902.44 1050.12 902.44Z" fill="#121212"/>
<circle cx="335" cy="410" r="75" fill="#1E294B"/>
<path d="M307.132 409.3C307.132 403.533 308.166 399.017 310.232 395.75C312.332 392.483 315.799 390.85 320.632 390.85C325.466 390.85 328.916 392.483 330.982 395.75C333.082 399.017 334.132 403.533 334.132 409.3C334.132 415.1 333.082 419.65 330.982 422.95C328.916 426.25 325.466 427.9 320.632 427.9C315.799 427.9 312.332 426.25 310.232 422.95C308.166 419.65 307.132 415.1 307.132 409.3ZM327.232 409.3C327.232 406.833 327.066 404.767 326.732 403.1C326.432 401.4 325.799 400.017 324.832 398.95C323.899 397.883 322.499 397.35 320.632 397.35C318.766 397.35 317.349 397.883 316.382 398.95C315.449 400.017 314.816 401.4 314.482 403.1C314.182 404.767 314.032 406.833 314.032 409.3C314.032 411.833 314.182 413.967 314.482 415.7C314.782 417.4 315.416 418.783 316.382 419.85C317.349 420.883 318.766 421.4 320.632 421.4C322.499 421.4 323.916 420.883 324.882 419.85C325.849 418.783 326.482 417.4 326.782 415.7C327.082 413.967 327.232 411.833 327.232 409.3ZM341.657 420.1C344.857 417.433 347.407 415.217 349.307 413.45C351.207 411.65 352.79 409.783 354.057 407.85C355.323 405.917 355.957 404.017 355.957 402.15C355.957 400.45 355.557 399.117 354.757 398.15C353.957 397.183 352.723 396.7 351.057 396.7C349.39 396.7 348.107 397.267 347.207 398.4C346.307 399.5 345.84 401.017 345.807 402.95H339.007C339.14 398.95 340.323 395.917 342.557 393.85C344.823 391.783 347.69 390.75 351.157 390.75C354.957 390.75 357.873 391.767 359.907 393.8C361.94 395.8 362.957 398.45 362.957 401.75C362.957 404.35 362.257 406.833 360.857 409.2C359.457 411.567 357.857 413.633 356.057 415.4C354.257 417.133 351.907 419.233 349.007 421.7H363.757V427.5H339.057V422.3L341.657 420.1Z" fill="white"/>
<path fill-rule="evenodd" clip-rule="evenodd" d="M120 987.595C109.579 987.595 101.129 996.043 101.129 1006.47C101.129 1014.8 106.536 1021.88 114.034 1024.37C114.977 1024.55 115.323 1023.96 115.323 1023.47C115.323 1023.02 115.306 1021.53 115.297 1019.95C110.047 1021.09 108.94 1017.73 108.94 1017.73C108.081 1015.54 106.844 1014.96 106.844 1014.96C105.132 1013.79 106.973 1013.82 106.973 1013.82C108.868 1013.95 109.866 1015.76 109.866 1015.76C111.549 1018.65 114.281 1017.81 115.358 1017.33C115.527 1016.11 116.016 1015.28 116.556 1014.81C112.364 1014.33 107.958 1012.71 107.958 1005.48C107.958 1003.42 108.695 1001.74 109.902 1000.42C109.706 999.94 109.06 998.021 110.085 995.422C110.085 995.422 111.669 994.914 115.276 997.356C116.781 996.938 118.396 996.727 120 996.72C121.603 996.727 123.219 996.937 124.727 997.355C128.329 994.914 129.911 995.421 129.911 995.421C130.939 998.02 130.293 999.94 130.097 1000.41C131.307 1001.74 132.039 1003.42 132.039 1005.48C132.039 1012.73 127.624 1014.32 123.422 1014.79C124.099 1015.38 124.702 1016.53 124.702 1018.29C124.702 1020.81 124.681 1022.84 124.681 1023.47C124.681 1023.97 125.021 1024.56 125.977 1024.37C133.471 1021.87 138.872 1014.8 138.872 1006.47C138.871 996.044 130.422 987.595 120 987.595Z" fill="#1E294B"/>
<path d="M108.276 1014.69C108.235 1014.78 108.087 1014.81 107.953 1014.75C107.815 1014.69 107.739 1014.56 107.783 1014.46C107.824 1014.37 107.972 1014.34 108.108 1014.41C108.246 1014.47 108.324 1014.6 108.276 1014.69L108.276 1014.69ZM109.041 1015.54C108.951 1015.63 108.775 1015.59 108.656 1015.45C108.532 1015.32 108.509 1015.15 108.6 1015.06C108.693 1014.98 108.864 1015.02 108.988 1015.15C109.111 1015.28 109.135 1015.46 109.041 1015.54L109.041 1015.54ZM109.785 1016.63C109.669 1016.71 109.48 1016.63 109.363 1016.47C109.247 1016.3 109.247 1016.1 109.366 1016.02C109.483 1015.94 109.669 1016.01 109.788 1016.17C109.903 1016.35 109.903 1016.55 109.785 1016.63ZM110.804 1017.68C110.701 1017.79 110.48 1017.76 110.319 1017.61C110.154 1017.46 110.108 1017.24 110.212 1017.12C110.317 1017.01 110.538 1017.04 110.701 1017.2C110.865 1017.35 110.915 1017.57 110.805 1017.68L110.804 1017.68ZM112.21 1018.29C112.164 1018.44 111.952 1018.5 111.738 1018.44C111.525 1018.38 111.385 1018.2 111.429 1018.05C111.473 1017.9 111.686 1017.84 111.902 1017.9C112.115 1017.97 112.255 1018.14 112.21 1018.29ZM113.755 1018.4C113.76 1018.56 113.579 1018.69 113.355 1018.69C113.129 1018.69 112.946 1018.57 112.944 1018.42C112.944 1018.26 113.122 1018.13 113.347 1018.13C113.571 1018.12 113.755 1018.25 113.755 1018.4L113.755 1018.4ZM115.192 1018.16C115.219 1018.31 115.063 1018.46 114.84 1018.51C114.621 1018.55 114.418 1018.45 114.39 1018.3C114.363 1018.15 114.522 1017.99 114.741 1017.95C114.964 1017.91 115.164 1018 115.192 1018.16Z" fill="#1E294B"/>
<path d="M152.76 1017.21C151.38 1017.21 150.16 1016.97 149.1 1016.49C148.06 1016.01 147.24 1015.34 146.64 1014.48C146.04 1013.62 145.72 1012.66 145.68 1011.6H147.9C148 1012.62 148.45 1013.52 149.25 1014.3C150.05 1015.06 151.22 1015.44 152.76 1015.44C154.18 1015.44 155.3 1015.08 156.12 1014.36C156.96 1013.62 157.38 1012.69 157.38 1011.57C157.38 1010.67 157.15 1009.95 156.69 1009.41C156.23 1008.85 155.66 1008.44 154.98 1008.18C154.3 1007.9 153.36 1007.6 152.16 1007.28C150.76 1006.9 149.65 1006.53 148.83 1006.17C148.01 1005.81 147.31 1005.25 146.73 1004.49C146.15 1003.73 145.86 1002.7 145.86 1001.4C145.86 1000.32 146.14 999.36 146.7 998.52C147.26 997.66 148.05 996.99 149.07 996.51C150.09 996.03 151.26 995.79 152.58 995.79C154.52 995.79 156.08 996.27 157.26 997.23C158.46 998.17 159.15 999.39 159.33 1000.89H157.05C156.91 1000.03 156.44 999.27 155.64 998.61C154.84 997.93 153.76 997.59 152.4 997.59C151.14 997.59 150.09 997.93 149.25 998.61C148.41 999.27 147.99 1000.18 147.99 1001.34C147.99 1002.22 148.22 1002.93 148.68 1003.47C149.14 1004.01 149.71 1004.42 150.39 1004.7C151.09 1004.98 152.03 1005.28 153.21 1005.6C154.57 1005.98 155.67 1006.36 156.51 1006.74C157.35 1007.1 158.06 1007.66 158.64 1008.42C159.22 1009.18 159.51 1010.2 159.51 1011.48C159.51 1012.46 159.25 1013.39 158.73 1014.27C158.21 1015.15 157.44 1015.86 156.42 1016.4C155.4 1016.94 154.18 1017.21 152.76 1017.21ZM184.058 996.3V1017H181.958V1000.47L174.578 1017H173.048L165.668 1000.53V1017H163.568V996.3H165.788L173.798 1014.24L181.808 996.3H184.058ZM190.922 996.03V1017H188.822V996.03H190.922ZM207.947 996.03V997.77H202.127V1017H200.027V997.77H194.177V996.03H207.947ZM220.953 996.03V1011.9C220.953 1013.5 220.463 1014.79 219.483 1015.77C218.503 1016.73 217.193 1017.21 215.553 1017.21C213.853 1017.21 212.493 1016.7 211.473 1015.68C210.473 1014.64 209.973 1013.24 209.973 1011.48H212.103C212.123 1012.62 212.403 1013.55 212.943 1014.27C213.503 1014.99 214.373 1015.35 215.553 1015.35C216.673 1015.35 217.503 1015.02 218.043 1014.36C218.583 1013.7 218.853 1012.88 218.853 1011.9V996.03H220.953ZM228.244 996.03V1009.23C228.244 1011.31 228.734 1012.85 229.714 1013.85C230.714 1014.85 232.074 1015.35 233.794 1015.35C235.514 1015.35 236.854 1014.86 237.814 1013.88C238.794 1012.88 239.284 1011.33 239.284 1009.23V996.03H241.384V1009.2C241.384 1011.86 240.674 1013.86 239.254 1015.2C237.854 1016.54 236.024 1017.21 233.764 1017.21C231.504 1017.21 229.664 1016.54 228.244 1015.2C226.844 1013.86 226.144 1011.86 226.144 1009.2V996.03H228.244ZM254.648 1017L250.418 1010.4L246.338 1017H244.118L249.398 1008.81L244.178 1000.62H246.548L250.718 1007.13L254.768 1000.62H256.958L251.738 1008.72L257.018 1017H254.648Z" fill="#1E294B"/>
</svg>
