<svg width="1920" height="1080" viewBox="0 0 1920 1080" fill="none" xmlns="http://www.w3.org/2000/svg">
<rect width="1920" height="1080" fill="white"/>
<path d="M309.6 702.12C301.813 702.12 294.773 700.787 288.48 698.12C282.293 695.453 277.387 691.613 273.76 686.6C270.133 681.587 268.267 675.667 268.16 668.84H292.16C292.48 673.427 294.08 677.053 296.96 679.72C299.947 682.387 304 683.72 309.12 683.72C314.347 683.72 318.453 682.493 321.44 680.04C324.427 677.48 325.92 674.173 325.92 670.12C325.92 666.813 324.907 664.093 322.88 661.96C320.853 659.827 318.293 658.173 315.2 657C312.213 655.72 308.053 654.333 302.72 652.84C295.467 650.707 289.547 648.627 284.96 646.6C280.48 644.467 276.587 641.32 273.28 637.16C270.08 632.893 268.48 627.24 268.48 620.2C268.48 613.587 270.133 607.827 273.44 602.92C276.747 598.013 281.387 594.28 287.36 591.72C293.333 589.053 300.16 587.72 307.84 587.72C319.36 587.72 328.693 590.547 335.84 596.2C343.093 601.747 347.093 609.533 347.84 619.56H323.2C322.987 615.72 321.333 612.573 318.24 610.12C315.253 607.56 311.253 606.28 306.24 606.28C301.867 606.28 298.347 607.4 295.68 609.64C293.12 611.88 291.84 615.133 291.84 619.4C291.84 622.387 292.8 624.893 294.72 626.92C296.747 628.84 299.2 630.44 302.08 631.72C305.067 632.893 309.227 634.28 314.56 635.88C321.813 638.013 327.733 640.147 332.32 642.28C336.907 644.413 340.853 647.613 344.16 651.88C347.467 656.147 349.12 661.747 349.12 668.68C349.12 674.653 347.573 680.2 344.48 685.32C341.387 690.44 336.853 694.547 330.88 697.64C324.907 700.627 317.813 702.12 309.6 702.12ZM362.78 656.68C362.78 647.507 364.647 639.507 368.38 632.68C372.113 625.747 377.287 620.413 383.9 616.68C390.513 612.84 398.087 610.92 406.62 610.92C417.607 610.92 426.673 613.693 433.82 619.24C441.073 624.68 445.927 632.36 448.38 642.28H424.22C422.94 638.44 420.753 635.453 417.66 633.32C414.673 631.08 410.94 629.96 406.46 629.96C400.06 629.96 394.993 632.307 391.26 637C387.527 641.587 385.66 648.147 385.66 656.68C385.66 665.107 387.527 671.667 391.26 676.36C394.993 680.947 400.06 683.24 406.46 683.24C415.527 683.24 421.447 679.187 424.22 671.08H448.38C445.927 680.68 441.073 688.307 433.82 693.96C426.567 699.613 417.5 702.44 406.62 702.44C398.087 702.44 390.513 700.573 383.9 696.84C377.287 693 372.113 687.667 368.38 680.84C364.647 673.907 362.78 665.853 362.78 656.68ZM459.03 656.36C459.03 647.4 460.79 639.453 464.31 632.52C467.937 625.587 472.79 620.253 478.87 616.52C485.057 612.787 491.937 610.92 499.51 610.92C506.123 610.92 511.883 612.253 516.79 614.92C521.803 617.587 525.803 620.947 528.79 625V612.36H551.35V701H528.79V688.04C525.91 692.2 521.91 695.667 516.79 698.44C511.777 701.107 505.963 702.44 499.35 702.44C491.883 702.44 485.057 700.52 478.87 696.68C472.79 692.84 467.937 687.453 464.31 680.52C460.79 673.48 459.03 665.427 459.03 656.36ZM528.79 656.68C528.79 651.24 527.723 646.6 525.59 642.76C523.457 638.813 520.577 635.827 516.95 633.8C513.323 631.667 509.43 630.6 505.27 630.6C501.11 630.6 497.27 631.613 493.75 633.64C490.23 635.667 487.35 638.653 485.11 642.6C482.977 646.44 481.91 651.027 481.91 656.36C481.91 661.693 482.977 666.387 485.11 670.44C487.35 674.387 490.23 677.427 493.75 679.56C497.377 681.693 501.217 682.76 505.27 682.76C509.43 682.76 513.323 681.747 516.95 679.72C520.577 677.587 523.457 674.6 525.59 670.76C527.723 666.813 528.79 662.12 528.79 656.68ZM595.628 582.6V701H573.228V582.6H595.628ZM611.999 656.36C611.999 647.4 613.759 639.453 617.279 632.52C620.905 625.587 625.759 620.253 631.839 616.52C638.025 612.787 644.905 610.92 652.479 610.92C659.092 610.92 664.852 612.253 669.759 614.92C674.772 617.587 678.772 620.947 681.759 625V612.36H704.319V701H681.759V688.04C678.879 692.2 674.879 695.667 669.759 698.44C664.745 701.107 658.932 702.44 652.319 702.44C644.852 702.44 638.025 700.52 631.839 696.68C625.759 692.84 620.905 687.453 617.279 680.52C613.759 673.48 611.999 665.427 611.999 656.36ZM681.759 656.68C681.759 651.24 680.692 646.6 678.559 642.76C676.425 638.813 673.545 635.827 669.919 633.8C666.292 631.667 662.399 630.6 658.239 630.6C654.079 630.6 650.239 631.613 646.719 633.64C643.199 635.667 640.319 638.653 638.079 642.6C635.945 646.44 634.879 651.027 634.879 656.36C634.879 661.693 635.945 666.387 638.079 670.44C640.319 674.387 643.199 677.427 646.719 679.56C650.345 681.693 654.185 682.76 658.239 682.76C662.399 682.76 666.292 681.747 669.919 679.72C673.545 677.587 676.425 674.6 678.559 670.76C680.692 666.813 681.759 662.12 681.759 656.68ZM748.596 625.32C751.476 621.053 755.423 617.587 760.436 614.92C765.556 612.253 771.37 610.92 777.876 610.92C785.45 610.92 792.276 612.787 798.356 616.52C804.543 620.253 809.396 625.587 812.916 632.52C816.543 639.347 818.356 647.293 818.356 656.36C818.356 665.427 816.543 673.48 812.916 680.52C809.396 687.453 804.543 692.84 798.356 696.68C792.276 700.52 785.45 702.44 777.876 702.44C771.263 702.44 765.45 701.16 760.436 698.6C755.53 695.933 751.583 692.52 748.596 688.36V701H726.196V582.6H748.596V625.32ZM795.476 656.36C795.476 651.027 794.356 646.44 792.116 642.6C789.983 638.653 787.103 635.667 783.476 633.64C779.956 631.613 776.116 630.6 771.956 630.6C767.903 630.6 764.063 631.667 760.436 633.8C756.916 635.827 754.036 638.813 751.796 642.76C749.663 646.707 748.596 651.347 748.596 656.68C748.596 662.013 749.663 666.653 751.796 670.6C754.036 674.547 756.916 677.587 760.436 679.72C764.063 681.747 767.903 682.76 771.956 682.76C776.116 682.76 779.956 681.693 783.476 679.56C787.103 677.427 789.983 674.387 792.116 670.44C794.356 666.493 795.476 661.8 795.476 656.36ZM845.994 601.8C842.047 601.8 838.74 600.573 836.074 598.12C833.514 595.56 832.234 592.413 832.234 588.68C832.234 584.947 833.514 581.853 836.074 579.4C838.74 576.84 842.047 575.56 845.994 575.56C849.94 575.56 853.194 576.84 855.754 579.4C858.42 581.853 859.754 584.947 859.754 588.68C859.754 592.413 858.42 595.56 855.754 598.12C853.194 600.573 849.94 601.8 845.994 601.8ZM857.034 612.36V701H834.634V612.36H857.034ZM901.565 582.6V701H879.165V582.6H901.565ZM935.056 601.8C931.11 601.8 927.803 600.573 925.136 598.12C922.576 595.56 921.296 592.413 921.296 588.68C921.296 584.947 922.576 581.853 925.136 579.4C927.803 576.84 931.11 575.56 935.056 575.56C939.003 575.56 942.256 576.84 944.816 579.4C947.483 581.853 948.816 584.947 948.816 588.68C948.816 592.413 947.483 595.56 944.816 598.12C942.256 600.573 939.003 601.8 935.056 601.8ZM946.096 612.36V701H923.696V612.36H946.096ZM994.308 630.76V673.64C994.308 676.627 995.001 678.813 996.388 680.2C997.881 681.48 1000.33 682.12 1003.75 682.12H1014.15V701H1000.07C981.188 701 971.748 691.827 971.748 673.48V630.76H961.188V612.36H971.748V590.44H994.308V612.36H1014.15V630.76H994.308ZM1115.06 612.36L1060.18 742.92H1036.34L1055.54 698.76L1020.02 612.36H1045.14L1068.02 674.28L1091.22 612.36H1115.06Z" fill="#121212"/>
<circle cx="335" cy="410" r="75" fill="#1E294B"/>
<path d="M312.43 409.3C312.43 403.533 313.464 399.017 315.53 395.75C317.63 392.483 321.097 390.85 325.93 390.85C330.764 390.85 334.214 392.483 336.28 395.75C338.38 399.017 339.43 403.533 339.43 409.3C339.43 415.1 338.38 419.65 336.28 422.95C334.214 426.25 330.764 427.9 325.93 427.9C321.097 427.9 317.63 426.25 315.53 422.95C313.464 419.65 312.43 415.1 312.43 409.3ZM332.53 409.3C332.53 406.833 332.364 404.767 332.03 403.1C331.73 401.4 331.097 400.017 330.13 398.95C329.197 397.883 327.797 397.35 325.93 397.35C324.064 397.35 322.647 397.883 321.68 398.95C320.747 400.017 320.114 401.4 319.78 403.1C319.48 404.767 319.33 406.833 319.33 409.3C319.33 411.833 319.48 413.967 319.78 415.7C320.08 417.4 320.714 418.783 321.68 419.85C322.647 420.883 324.064 421.4 325.93 421.4C327.797 421.4 329.214 420.883 330.18 419.85C331.147 418.783 331.78 417.4 332.08 415.7C332.38 413.967 332.53 411.833 332.53 409.3ZM343.904 398V391.55H355.954V428H348.754V398H343.904Z" fill="white"/>
<path fill-rule="evenodd" clip-rule="evenodd" d="M120 987.594C109.579 987.594 101.129 996.042 101.129 1006.46C101.129 1014.8 106.536 1021.88 114.034 1024.37C114.977 1024.55 115.323 1023.96 115.323 1023.46C115.323 1023.01 115.306 1021.53 115.297 1019.95C110.047 1021.09 108.94 1017.72 108.94 1017.72C108.081 1015.54 106.844 1014.96 106.844 1014.96C105.132 1013.79 106.973 1013.82 106.973 1013.82C108.868 1013.95 109.866 1015.76 109.866 1015.76C111.549 1018.65 114.281 1017.81 115.358 1017.33C115.527 1016.11 116.016 1015.28 116.556 1014.81C112.364 1014.33 107.958 1012.71 107.958 1005.48C107.958 1003.42 108.695 1001.74 109.902 1000.41C109.706 999.939 109.06 998.02 110.085 995.421C110.085 995.421 111.669 994.913 115.276 997.355C116.781 996.937 118.396 996.726 120 996.719C121.603 996.726 123.219 996.936 124.727 997.354C128.329 994.913 129.911 995.42 129.911 995.42C130.939 998.019 130.293 999.939 130.097 1000.41C131.307 1001.74 132.039 1003.42 132.039 1005.48C132.039 1012.73 127.624 1014.32 123.422 1014.79C124.099 1015.38 124.702 1016.52 124.702 1018.29C124.702 1020.81 124.681 1022.84 124.681 1023.46C124.681 1023.97 125.021 1024.55 125.977 1024.37C133.471 1021.87 138.872 1014.8 138.872 1006.46C138.871 996.043 130.422 987.594 120 987.594Z" fill="#1E294B"/>
<path d="M108.276 1014.69C108.235 1014.78 108.087 1014.81 107.953 1014.75C107.815 1014.69 107.739 1014.56 107.783 1014.46C107.824 1014.37 107.972 1014.34 108.108 1014.4C108.246 1014.47 108.324 1014.6 108.276 1014.69L108.276 1014.69ZM109.041 1015.54C108.951 1015.62 108.775 1015.59 108.656 1015.45C108.532 1015.32 108.509 1015.15 108.6 1015.06C108.693 1014.98 108.864 1015.02 108.988 1015.15C109.111 1015.28 109.135 1015.46 109.041 1015.54L109.041 1015.54ZM109.785 1016.63C109.669 1016.71 109.48 1016.63 109.363 1016.47C109.247 1016.3 109.247 1016.1 109.366 1016.02C109.483 1015.93 109.669 1016.01 109.788 1016.17C109.903 1016.34 109.903 1016.55 109.785 1016.63ZM110.804 1017.68C110.701 1017.79 110.48 1017.76 110.319 1017.61C110.154 1017.45 110.108 1017.24 110.212 1017.12C110.317 1017.01 110.538 1017.04 110.701 1017.2C110.865 1017.35 110.915 1017.56 110.805 1017.68L110.804 1017.68ZM112.21 1018.29C112.164 1018.44 111.952 1018.5 111.738 1018.44C111.525 1018.38 111.385 1018.2 111.429 1018.05C111.473 1017.9 111.686 1017.83 111.902 1017.9C112.115 1017.97 112.255 1018.14 112.21 1018.29ZM113.755 1018.4C113.76 1018.56 113.579 1018.69 113.355 1018.69C113.129 1018.69 112.946 1018.57 112.944 1018.41C112.944 1018.26 113.122 1018.13 113.347 1018.13C113.571 1018.12 113.755 1018.25 113.755 1018.4L113.755 1018.4ZM115.192 1018.16C115.219 1018.31 115.063 1018.46 114.84 1018.51C114.621 1018.55 114.418 1018.45 114.39 1018.3C114.363 1018.15 114.522 1017.99 114.741 1017.95C114.964 1017.91 115.164 1018 115.192 1018.16Z" fill="#1E294B"/>
<path d="M152.76 1017.21C151.38 1017.21 150.16 1016.97 149.1 1016.49C148.06 1016.01 147.24 1015.34 146.64 1014.48C146.04 1013.62 145.72 1012.66 145.68 1011.6H147.9C148 1012.62 148.45 1013.52 149.25 1014.3C150.05 1015.06 151.22 1015.44 152.76 1015.44C154.18 1015.44 155.3 1015.08 156.12 1014.36C156.96 1013.62 157.38 1012.69 157.38 1011.57C157.38 1010.67 157.15 1009.95 156.69 1009.41C156.23 1008.85 155.66 1008.44 154.98 1008.18C154.3 1007.9 153.36 1007.6 152.16 1007.28C150.76 1006.9 149.65 1006.53 148.83 1006.17C148.01 1005.81 147.31 1005.25 146.73 1004.49C146.15 1003.73 145.86 1002.7 145.86 1001.4C145.86 1000.32 146.14 999.36 146.7 998.52C147.26 997.66 148.05 996.99 149.07 996.51C150.09 996.03 151.26 995.79 152.58 995.79C154.52 995.79 156.08 996.27 157.26 997.23C158.46 998.17 159.15 999.39 159.33 1000.89H157.05C156.91 1000.03 156.44 999.27 155.64 998.61C154.84 997.93 153.76 997.59 152.4 997.59C151.14 997.59 150.09 997.93 149.25 998.61C148.41 999.27 147.99 1000.18 147.99 1001.34C147.99 1002.22 148.22 1002.93 148.68 1003.47C149.14 1004.01 149.71 1004.42 150.39 1004.7C151.09 1004.98 152.03 1005.28 153.21 1005.6C154.57 1005.98 155.67 1006.36 156.51 1006.74C157.35 1007.1 158.06 1007.66 158.64 1008.42C159.22 1009.18 159.51 1010.2 159.51 1011.48C159.51 1012.46 159.25 1013.39 158.73 1014.27C158.21 1015.15 157.44 1015.86 156.42 1016.4C155.4 1016.94 154.18 1017.21 152.76 1017.21ZM184.058 996.3V1017H181.958V1000.47L174.578 1017H173.048L165.668 1000.53V1017H163.568V996.3H165.788L173.798 1014.24L181.808 996.3H184.058ZM190.922 996.03V1017H188.822V996.03H190.922ZM207.947 996.03V997.77H202.127V1017H200.027V997.77H194.177V996.03H207.947ZM220.953 996.03V1011.9C220.953 1013.5 220.463 1014.79 219.483 1015.77C218.503 1016.73 217.193 1017.21 215.553 1017.21C213.853 1017.21 212.493 1016.7 211.473 1015.68C210.473 1014.64 209.973 1013.24 209.973 1011.48H212.103C212.123 1012.62 212.403 1013.55 212.943 1014.27C213.503 1014.99 214.373 1015.35 215.553 1015.35C216.673 1015.35 217.503 1015.02 218.043 1014.36C218.583 1013.7 218.853 1012.88 218.853 1011.9V996.03H220.953ZM228.244 996.03V1009.23C228.244 1011.31 228.734 1012.85 229.714 1013.85C230.714 1014.85 232.074 1015.35 233.794 1015.35C235.514 1015.35 236.854 1014.86 237.814 1013.88C238.794 1012.88 239.284 1011.33 239.284 1009.23V996.03H241.384V1009.2C241.384 1011.86 240.674 1013.86 239.254 1015.2C237.854 1016.54 236.024 1017.21 233.764 1017.21C231.504 1017.21 229.664 1016.54 228.244 1015.2C226.844 1013.86 226.144 1011.86 226.144 1009.2V996.03H228.244ZM254.648 1017L250.418 1010.4L246.338 1017H244.118L249.398 1008.81L244.178 1000.62H246.548L250.718 1007.13L254.768 1000.62H256.958L251.738 1008.72L257.018 1017H254.648Z" fill="#1E294B"/>
</svg>
