<svg width="1920" height="1080" viewBox="0 0 1920 1080" fill="none" xmlns="http://www.w3.org/2000/svg">
<rect width="1920" height="1080" fill="white"/>
<path d="M251.75 805.5C251.75 802.067 252.517 799 254.05 796.3C255.617 793.567 257.733 791.45 260.4 789.95C263.1 788.417 266.117 787.65 269.45 787.65C273.35 787.65 276.767 788.65 279.7 790.65C282.633 792.65 284.683 795.417 285.85 798.95H277.8C277 797.283 275.867 796.033 274.4 795.2C272.967 794.367 271.3 793.95 269.4 793.95C267.367 793.95 265.55 794.433 263.95 795.4C262.383 796.333 261.15 797.667 260.25 799.4C259.383 801.133 258.95 803.167 258.95 805.5C258.95 807.8 259.383 809.833 260.25 811.6C261.15 813.333 262.383 814.683 263.95 815.65C265.55 816.583 267.367 817.05 269.4 817.05C271.3 817.05 272.967 816.633 274.4 815.8C275.867 814.933 277 813.667 277.8 812H285.85C284.683 815.567 282.633 818.35 279.7 820.35C276.8 822.317 273.383 823.3 269.45 823.3C266.117 823.3 263.1 822.55 260.4 821.05C257.733 819.517 255.617 817.4 254.05 814.7C252.517 812 251.75 808.933 251.75 805.5ZM304.029 788.1C307.696 788.1 310.912 788.817 313.679 790.25C316.479 791.683 318.629 793.733 320.129 796.4C321.662 799.033 322.429 802.1 322.429 805.6C322.429 809.1 321.662 812.167 320.129 814.8C318.629 817.4 316.479 819.417 313.679 820.85C310.912 822.283 307.696 823 304.029 823H291.829V788.1H304.029ZM303.779 817.05C307.446 817.05 310.279 816.05 312.279 814.05C314.279 812.05 315.279 809.233 315.279 805.6C315.279 801.967 314.279 799.133 312.279 797.1C310.279 795.033 307.446 794 303.779 794H298.829V817.05H303.779ZM357.519 823H350.519L334.669 799.05V823H327.669V788.05H334.669L350.519 812.05V788.05H357.519V823ZM375.036 823.45C372.77 823.45 370.736 823.05 368.936 822.25C367.136 821.417 365.703 820.3 364.636 818.9C363.603 817.5 363.036 815.95 362.936 814.25H369.986C370.12 815.317 370.636 816.2 371.536 816.9C372.47 817.6 373.62 817.95 374.986 817.95C376.32 817.95 377.353 817.683 378.086 817.15C378.853 816.617 379.236 815.933 379.236 815.1C379.236 814.2 378.77 813.533 377.836 813.1C376.936 812.633 375.486 812.133 373.486 811.6C371.42 811.1 369.72 810.583 368.386 810.05C367.086 809.517 365.953 808.7 364.986 807.6C364.053 806.5 363.586 805.017 363.586 803.15C363.586 801.617 364.02 800.217 364.886 798.95C365.786 797.683 367.053 796.683 368.686 795.95C370.353 795.217 372.303 794.85 374.536 794.85C377.836 794.85 380.47 795.683 382.436 797.35C384.403 798.983 385.486 801.2 385.686 804H378.986C378.886 802.9 378.42 802.033 377.586 801.4C376.786 800.733 375.703 800.4 374.336 800.4C373.07 800.4 372.086 800.633 371.386 801.1C370.72 801.567 370.386 802.217 370.386 803.05C370.386 803.983 370.853 804.7 371.786 805.2C372.72 805.667 374.17 806.15 376.136 806.65C378.136 807.15 379.786 807.667 381.086 808.2C382.386 808.733 383.503 809.567 384.436 810.7C385.403 811.8 385.903 813.267 385.936 815.1C385.936 816.7 385.486 818.133 384.586 819.4C383.72 820.667 382.453 821.667 380.786 822.4C379.153 823.1 377.236 823.45 375.036 823.45Z" fill="#121212"/>
<circle cx="155" cy="805" r="55" fill="#1E294B"/>
<path d="M133.428 805.076C133.428 813.692 136.668 818 143.148 818C146.58 818 149.052 816.848 150.564 814.544C152.076 812.24 152.832 809.084 152.832 805.076C152.832 801.092 152.076 797.948 150.564 795.644C149.052 793.34 146.58 792.188 143.148 792.188C136.668 792.188 133.428 796.484 133.428 805.076ZM147.828 805.076C147.828 807.692 147.504 809.708 146.856 811.124C146.232 812.516 144.996 813.212 143.148 813.212C141.276 813.212 140.016 812.516 139.368 811.124C138.744 809.708 138.432 807.692 138.432 805.076C138.432 802.484 138.744 800.492 139.368 799.1C140.016 797.684 141.276 796.976 143.148 796.976C144.996 796.976 146.232 797.684 146.856 799.1C147.504 800.492 147.828 802.484 147.828 805.076ZM174.354 796.544H162.294V802.952C162.846 802.304 163.602 801.788 164.562 801.404C165.546 800.996 166.626 800.792 167.802 800.792C169.554 800.792 171.006 801.176 172.158 801.944C173.334 802.688 174.198 803.696 174.75 804.968C175.326 806.216 175.614 807.608 175.614 809.144C175.614 811.856 174.846 814.028 173.31 815.66C171.798 817.292 169.626 818.108 166.794 818.108C164.946 818.108 163.338 817.784 161.97 817.136C160.602 816.464 159.534 815.54 158.766 814.364C157.998 813.164 157.578 811.772 157.506 810.188H162.438C162.63 811.268 163.074 812.132 163.77 812.78C164.466 813.404 165.39 813.716 166.542 813.716C167.934 813.716 168.966 813.296 169.638 812.456C170.334 811.592 170.682 810.452 170.682 809.036C170.682 807.692 170.322 806.648 169.602 805.904C168.882 805.16 167.862 804.788 166.542 804.788C165.582 804.788 164.766 805.004 164.094 805.436C163.422 805.844 162.93 806.396 162.618 807.092H157.686V792.08H174.354V796.544Z" fill="white"/>
<path d="M1193.25 788.1C1195.22 788.467 1196.83 789.45 1198.1 791.05C1199.37 792.65 1200 794.483 1200 796.55C1200 798.417 1199.53 800.067 1198.6 801.5C1197.7 802.9 1196.38 804 1194.65 804.8C1192.92 805.6 1190.87 806 1188.5 806H1173.45V771.1H1187.85C1190.22 771.1 1192.25 771.483 1193.95 772.25C1195.68 773.017 1196.98 774.083 1197.85 775.45C1198.75 776.817 1199.2 778.367 1199.2 780.1C1199.2 782.133 1198.65 783.833 1197.55 785.2C1196.48 786.567 1195.05 787.533 1193.25 788.1ZM1180.45 785.5H1186.85C1188.52 785.5 1189.8 785.133 1190.7 784.4C1191.6 783.633 1192.05 782.55 1192.05 781.15C1192.05 779.75 1191.6 778.667 1190.7 777.9C1189.8 777.133 1188.52 776.75 1186.85 776.75H1180.45V785.5ZM1187.5 800.3C1189.2 800.3 1190.52 799.9 1191.45 799.1C1192.42 798.3 1192.9 797.167 1192.9 795.7C1192.9 794.2 1192.4 793.033 1191.4 792.2C1190.4 791.333 1189.05 790.9 1187.35 790.9H1180.45V800.3H1187.5ZM1209.13 775C1207.9 775 1206.86 774.617 1206.03 773.85C1205.23 773.05 1204.83 772.067 1204.83 770.9C1204.83 769.733 1205.23 768.767 1206.03 768C1206.86 767.2 1207.9 766.8 1209.13 766.8C1210.36 766.8 1211.38 767.2 1212.18 768C1213.01 768.767 1213.43 769.733 1213.43 770.9C1213.43 772.067 1213.01 773.05 1212.18 773.85C1211.38 774.617 1210.36 775 1209.13 775ZM1212.58 778.3V806H1205.58V778.3H1212.58ZM1230.34 777.85C1232.41 777.85 1234.23 778.267 1235.79 779.1C1237.36 779.9 1238.59 780.95 1239.49 782.25V778.3H1246.54V806.2C1246.54 808.767 1246.03 811.05 1244.99 813.05C1243.96 815.083 1242.41 816.683 1240.34 817.85C1238.28 819.05 1235.78 819.65 1232.84 819.65C1228.91 819.65 1225.68 818.733 1223.14 816.9C1220.64 815.067 1219.23 812.567 1218.89 809.4H1225.84C1226.21 810.667 1226.99 811.667 1228.19 812.4C1229.43 813.167 1230.91 813.55 1232.64 813.55C1234.68 813.55 1236.33 812.933 1237.59 811.7C1238.86 810.5 1239.49 808.667 1239.49 806.2V801.9C1238.59 803.2 1237.34 804.283 1235.74 805.15C1234.18 806.017 1232.38 806.45 1230.34 806.45C1228.01 806.45 1225.88 805.85 1223.94 804.65C1222.01 803.45 1220.48 801.767 1219.34 799.6C1218.24 797.4 1217.69 794.883 1217.69 792.05C1217.69 789.25 1218.24 786.767 1219.34 784.6C1220.48 782.433 1221.99 780.767 1223.89 779.6C1225.83 778.433 1227.98 777.85 1230.34 777.85ZM1239.49 792.15C1239.49 790.45 1239.16 789 1238.49 787.8C1237.83 786.567 1236.93 785.633 1235.79 785C1234.66 784.333 1233.44 784 1232.14 784C1230.84 784 1229.64 784.317 1228.54 784.95C1227.44 785.583 1226.54 786.517 1225.84 787.75C1225.18 788.95 1224.84 790.383 1224.84 792.05C1224.84 793.717 1225.18 795.183 1225.84 796.45C1226.54 797.683 1227.44 798.633 1228.54 799.3C1229.68 799.967 1230.88 800.3 1232.14 800.3C1233.44 800.3 1234.66 799.983 1235.79 799.35C1236.93 798.683 1237.83 797.75 1238.49 796.55C1239.16 795.317 1239.49 793.85 1239.49 792.15ZM1277.5 771.1C1281.16 771.1 1284.38 771.817 1287.15 773.25C1289.95 774.683 1292.1 776.733 1293.6 779.4C1295.13 782.033 1295.9 785.1 1295.9 788.6C1295.9 792.1 1295.13 795.167 1293.6 797.8C1292.1 800.4 1289.95 802.417 1287.15 803.85C1284.38 805.283 1281.16 806 1277.5 806H1265.3V771.1H1277.5ZM1277.25 800.05C1280.91 800.05 1283.75 799.05 1285.75 797.05C1287.75 795.05 1288.75 792.233 1288.75 788.6C1288.75 784.967 1287.75 782.133 1285.75 780.1C1283.75 778.033 1280.91 777 1277.25 777H1272.3V800.05H1277.25ZM1299.34 792.05C1299.34 789.25 1299.89 786.767 1300.99 784.6C1302.12 782.433 1303.64 780.767 1305.54 779.6C1307.47 778.433 1309.62 777.85 1311.99 777.85C1314.05 777.85 1315.85 778.267 1317.39 779.1C1318.95 779.933 1320.2 780.983 1321.14 782.25V778.3H1328.19V806H1321.14V801.95C1320.24 803.25 1318.99 804.333 1317.39 805.2C1315.82 806.033 1314 806.45 1311.94 806.45C1309.6 806.45 1307.47 805.85 1305.54 804.65C1303.64 803.45 1302.12 801.767 1300.99 799.6C1299.89 797.4 1299.34 794.883 1299.34 792.05ZM1321.14 792.15C1321.14 790.45 1320.8 789 1320.14 787.8C1319.47 786.567 1318.57 785.633 1317.44 785C1316.3 784.333 1315.09 784 1313.79 784C1312.49 784 1311.29 784.317 1310.19 784.95C1309.09 785.583 1308.19 786.517 1307.49 787.75C1306.82 788.95 1306.49 790.383 1306.49 792.05C1306.49 793.717 1306.82 795.183 1307.49 796.45C1308.19 797.683 1309.09 798.633 1310.19 799.3C1311.32 799.967 1312.52 800.3 1313.79 800.3C1315.09 800.3 1316.3 799.983 1317.44 799.35C1318.57 798.683 1319.47 797.75 1320.14 796.55C1320.8 795.317 1321.14 793.85 1321.14 792.15ZM1343.17 784.05V797.45C1343.17 798.383 1343.39 799.067 1343.82 799.5C1344.29 799.9 1345.06 800.1 1346.12 800.1H1349.37V806H1344.97C1339.07 806 1336.12 803.133 1336.12 797.4V784.05H1332.82V778.3H1336.12V771.45H1343.17V778.3H1349.37V784.05H1343.17ZM1352.61 792.05C1352.61 789.25 1353.16 786.767 1354.26 784.6C1355.39 782.433 1356.91 780.767 1358.81 779.6C1360.74 778.433 1362.89 777.85 1365.26 777.85C1367.32 777.85 1369.12 778.267 1370.66 779.1C1372.22 779.933 1373.47 780.983 1374.41 782.25V778.3H1381.46V806H1374.41V801.95C1373.51 803.25 1372.26 804.333 1370.66 805.2C1369.09 806.033 1367.27 806.45 1365.21 806.45C1362.87 806.45 1360.74 805.85 1358.81 804.65C1356.91 803.45 1355.39 801.767 1354.26 799.6C1353.16 797.4 1352.61 794.883 1352.61 792.05ZM1374.41 792.15C1374.41 790.45 1374.07 789 1373.41 787.8C1372.74 786.567 1371.84 785.633 1370.71 785C1369.57 784.333 1368.36 784 1367.06 784C1365.76 784 1364.56 784.317 1363.46 784.95C1362.36 785.583 1361.46 786.517 1360.76 787.75C1360.09 788.95 1359.76 790.383 1359.76 792.05C1359.76 793.717 1360.09 795.183 1360.76 796.45C1361.46 797.683 1362.36 798.633 1363.46 799.3C1364.59 799.967 1365.79 800.3 1367.06 800.3C1368.36 800.3 1369.57 799.983 1370.71 799.35C1371.84 798.683 1372.74 797.75 1373.41 796.55C1374.07 795.317 1374.41 793.85 1374.41 792.15Z" fill="#121212"/>
<circle cx="1075" cy="788" r="55" fill="#1E294B"/>
<path d="M1053.26 787.536C1053.26 783.384 1054 780.132 1055.49 777.78C1057 775.428 1059.5 774.252 1062.98 774.252C1066.46 774.252 1068.94 775.428 1070.43 777.78C1071.94 780.132 1072.7 783.384 1072.7 787.536C1072.7 791.712 1071.94 794.988 1070.43 797.364C1068.94 799.74 1066.46 800.928 1062.98 800.928C1059.5 800.928 1057 799.74 1055.49 797.364C1054 794.988 1053.26 791.712 1053.26 787.536ZM1067.73 787.536C1067.73 785.76 1067.61 784.272 1067.37 783.072C1067.15 781.848 1066.7 780.852 1066 780.084C1065.33 779.316 1064.32 778.932 1062.98 778.932C1061.63 778.932 1060.61 779.316 1059.92 780.084C1059.25 780.852 1058.79 781.848 1058.55 783.072C1058.33 784.272 1058.23 785.76 1058.23 787.536C1058.23 789.36 1058.33 790.896 1058.55 792.144C1058.77 793.368 1059.22 794.364 1059.92 795.132C1060.61 795.876 1061.63 796.248 1062.98 796.248C1064.32 796.248 1065.34 795.876 1066.04 795.132C1066.73 794.364 1067.19 793.368 1067.41 792.144C1067.62 790.896 1067.73 789.36 1067.73 787.536ZM1090.14 781.308C1089.9 780.3 1089.48 779.544 1088.88 779.04C1088.3 778.536 1087.46 778.284 1086.36 778.284C1084.7 778.284 1083.48 778.956 1082.69 780.3C1081.92 781.62 1081.52 783.78 1081.5 786.78C1082.08 785.82 1082.92 785.076 1084.02 784.548C1085.12 783.996 1086.32 783.72 1087.62 783.72C1089.18 783.72 1090.56 784.056 1091.76 784.728C1092.96 785.4 1093.9 786.384 1094.57 787.68C1095.24 788.952 1095.58 790.488 1095.58 792.288C1095.58 793.992 1095.23 795.516 1094.53 796.86C1093.86 798.18 1092.86 799.212 1091.54 799.956C1090.22 800.7 1088.65 801.072 1086.83 801.072C1084.33 801.072 1082.36 800.52 1080.92 799.416C1079.51 798.312 1078.51 796.776 1077.94 794.808C1077.38 792.816 1077.11 790.368 1077.11 787.464C1077.11 783.072 1077.86 779.76 1079.38 777.528C1080.89 775.272 1083.28 774.144 1086.54 774.144C1089.06 774.144 1091.02 774.828 1092.41 776.196C1093.8 777.564 1094.6 779.268 1094.82 781.308H1090.14ZM1086.47 787.86C1085.2 787.86 1084.13 788.232 1083.26 788.976C1082.4 789.72 1081.97 790.8 1081.97 792.216C1081.97 793.632 1082.36 794.748 1083.16 795.564C1083.97 796.38 1085.11 796.788 1086.58 796.788C1087.87 796.788 1088.89 796.392 1089.64 795.6C1090.4 794.808 1090.79 793.74 1090.79 792.396C1090.79 791.004 1090.42 789.9 1089.67 789.084C1088.95 788.268 1087.88 787.86 1086.47 787.86Z" fill="white"/>
<path d="M1171.75 578.5C1171.75 575.067 1172.52 572 1174.05 569.3C1175.62 566.567 1177.73 564.45 1180.4 562.95C1183.1 561.417 1186.12 560.65 1189.45 560.65C1193.35 560.65 1196.77 561.65 1199.7 563.65C1202.63 565.65 1204.68 568.417 1205.85 571.95H1197.8C1197 570.283 1195.87 569.033 1194.4 568.2C1192.97 567.367 1191.3 566.95 1189.4 566.95C1187.37 566.95 1185.55 567.433 1183.95 568.4C1182.38 569.333 1181.15 570.667 1180.25 572.4C1179.38 574.133 1178.95 576.167 1178.95 578.5C1178.95 580.8 1179.38 582.833 1180.25 584.6C1181.15 586.333 1182.38 587.683 1183.95 588.65C1185.55 589.583 1187.37 590.05 1189.4 590.05C1191.3 590.05 1192.97 589.633 1194.4 588.8C1195.87 587.933 1197 586.667 1197.8 585H1205.85C1204.68 588.567 1202.63 591.35 1199.7 593.35C1196.8 595.317 1193.38 596.3 1189.45 596.3C1186.12 596.3 1183.1 595.55 1180.4 594.05C1177.73 592.517 1175.62 590.4 1174.05 587.7C1172.52 585 1171.75 581.933 1171.75 578.5ZM1210.03 582.05C1210.03 579.25 1210.58 576.767 1211.68 574.6C1212.81 572.433 1214.33 570.767 1216.23 569.6C1218.16 568.433 1220.31 567.85 1222.68 567.85C1224.75 567.85 1226.55 568.267 1228.08 569.1C1229.65 569.933 1230.9 570.983 1231.83 572.25V568.3H1238.88V596H1231.83V591.95C1230.93 593.25 1229.68 594.333 1228.08 595.2C1226.51 596.033 1224.7 596.45 1222.63 596.45C1220.3 596.45 1218.16 595.85 1216.23 594.65C1214.33 593.45 1212.81 591.767 1211.68 589.6C1210.58 587.4 1210.03 584.883 1210.03 582.05ZM1231.83 582.15C1231.83 580.45 1231.5 579 1230.83 577.8C1230.16 576.567 1229.26 575.633 1228.13 575C1227 574.333 1225.78 574 1224.48 574C1223.18 574 1221.98 574.317 1220.88 574.95C1219.78 575.583 1218.88 576.517 1218.18 577.75C1217.51 578.95 1217.18 580.383 1217.18 582.05C1217.18 583.717 1217.51 585.183 1218.18 586.45C1218.88 587.683 1219.78 588.633 1220.88 589.3C1222.01 589.967 1223.21 590.3 1224.48 590.3C1225.78 590.3 1227 589.983 1228.13 589.35C1229.26 588.683 1230.16 587.75 1230.83 586.55C1231.5 585.317 1231.83 583.85 1231.83 582.15ZM1243.92 582.15C1243.92 579.283 1244.5 576.783 1245.67 574.65C1246.83 572.483 1248.45 570.817 1250.52 569.65C1252.58 568.45 1254.95 567.85 1257.62 567.85C1261.05 567.85 1263.88 568.717 1266.12 570.45C1268.38 572.15 1269.9 574.55 1270.67 577.65H1263.12C1262.72 576.45 1262.03 575.517 1261.07 574.85C1260.13 574.15 1258.97 573.8 1257.57 573.8C1255.57 573.8 1253.98 574.533 1252.82 576C1251.65 577.433 1251.07 579.483 1251.07 582.15C1251.07 584.783 1251.65 586.833 1252.82 588.3C1253.98 589.733 1255.57 590.45 1257.57 590.45C1260.4 590.45 1262.25 589.183 1263.12 586.65H1270.67C1269.9 589.65 1268.38 592.033 1266.12 593.8C1263.85 595.567 1261.02 596.45 1257.62 596.45C1254.95 596.45 1252.58 595.867 1250.52 594.7C1248.45 593.5 1246.83 591.833 1245.67 589.7C1244.5 587.533 1243.92 585.017 1243.92 582.15ZM1291.39 567.9C1293.49 567.9 1295.36 568.367 1296.99 569.3C1298.63 570.2 1299.89 571.55 1300.79 573.35C1301.73 575.117 1302.19 577.25 1302.19 579.75V596H1295.19V580.7C1295.19 578.5 1294.64 576.817 1293.54 575.65C1292.44 574.45 1290.94 573.85 1289.04 573.85C1287.11 573.85 1285.58 574.45 1284.44 575.65C1283.34 576.817 1282.79 578.5 1282.79 580.7V596H1275.79V559H1282.79V571.75C1283.69 570.55 1284.89 569.617 1286.39 568.95C1287.89 568.25 1289.56 567.9 1291.39 567.9ZM1312.4 565C1311.17 565 1310.13 564.617 1309.3 563.85C1308.5 563.05 1308.1 562.067 1308.1 560.9C1308.1 559.733 1308.5 558.767 1309.3 558C1310.13 557.2 1311.17 556.8 1312.4 556.8C1313.63 556.8 1314.65 557.2 1315.45 558C1316.28 558.767 1316.7 559.733 1316.7 560.9C1316.7 562.067 1316.28 563.05 1315.45 563.85C1314.65 564.617 1313.63 565 1312.4 565ZM1315.85 568.3V596H1308.85V568.3H1315.85ZM1338.12 567.9C1341.42 567.9 1344.08 568.95 1346.12 571.05C1348.15 573.117 1349.17 576.017 1349.17 579.75V596H1342.17V580.7C1342.17 578.5 1341.62 576.817 1340.52 575.65C1339.42 574.45 1337.92 573.85 1336.02 573.85C1334.08 573.85 1332.55 574.45 1331.42 575.65C1330.32 576.817 1329.77 578.5 1329.77 580.7V596H1322.77V568.3H1329.77V571.75C1330.7 570.55 1331.88 569.617 1333.32 568.95C1334.78 568.25 1336.38 567.9 1338.12 567.9ZM1366.67 567.85C1368.74 567.85 1370.56 568.267 1372.12 569.1C1373.69 569.9 1374.92 570.95 1375.82 572.25V568.3H1382.87V596.2C1382.87 598.767 1382.36 601.05 1381.32 603.05C1380.29 605.083 1378.74 606.683 1376.67 607.85C1374.61 609.05 1372.11 609.65 1369.17 609.65C1365.24 609.65 1362.01 608.733 1359.47 606.9C1356.97 605.067 1355.56 602.567 1355.22 599.4H1362.17C1362.54 600.667 1363.32 601.667 1364.52 602.4C1365.76 603.167 1367.24 603.55 1368.97 603.55C1371.01 603.55 1372.66 602.933 1373.92 601.7C1375.19 600.5 1375.82 598.667 1375.82 596.2V591.9C1374.92 593.2 1373.67 594.283 1372.07 595.15C1370.51 596.017 1368.71 596.45 1366.67 596.45C1364.34 596.45 1362.21 595.85 1360.27 594.65C1358.34 593.45 1356.81 591.767 1355.67 589.6C1354.57 587.4 1354.02 584.883 1354.02 582.05C1354.02 579.25 1354.57 576.767 1355.67 574.6C1356.81 572.433 1358.32 570.767 1360.22 569.6C1362.16 568.433 1364.31 567.85 1366.67 567.85ZM1375.82 582.15C1375.82 580.45 1375.49 579 1374.82 577.8C1374.16 576.567 1373.26 575.633 1372.12 575C1370.99 574.333 1369.77 574 1368.47 574C1367.17 574 1365.97 574.317 1364.87 574.95C1363.77 575.583 1362.87 576.517 1362.17 577.75C1361.51 578.95 1361.17 580.383 1361.17 582.05C1361.17 583.717 1361.51 585.183 1362.17 586.45C1362.87 587.683 1363.77 588.633 1364.87 589.3C1366.01 589.967 1367.21 590.3 1368.47 590.3C1369.77 590.3 1370.99 589.983 1372.12 589.35C1373.26 588.683 1374.16 587.75 1374.82 586.55C1375.49 585.317 1375.82 583.85 1375.82 582.15Z" fill="#121212"/>
<circle cx="1075" cy="578" r="55" fill="#1E294B"/>
<path d="M1053.08 578.076C1053.08 586.692 1056.32 591 1062.8 591C1066.23 591 1068.7 589.848 1070.21 587.544C1071.72 585.24 1072.48 582.084 1072.48 578.076C1072.48 574.092 1071.72 570.948 1070.21 568.644C1068.7 566.34 1066.23 565.188 1062.8 565.188C1056.32 565.188 1053.08 569.484 1053.08 578.076ZM1067.48 578.076C1067.48 580.692 1067.15 582.708 1066.5 584.124C1065.88 585.516 1064.64 586.212 1062.8 586.212C1060.92 586.212 1059.66 585.516 1059.02 584.124C1058.39 582.708 1058.08 580.692 1058.08 578.076C1058.08 575.484 1058.39 573.492 1059.02 572.1C1059.66 570.684 1060.92 569.976 1062.8 569.976C1064.64 569.976 1065.88 570.684 1066.5 572.1C1067.15 573.492 1067.48 575.484 1067.48 578.076ZM1075.53 585.888V581.676L1087.7 565.296H1093.14V581.496H1096.45V585.888H1093.14V591H1088.03V585.888H1075.53ZM1088.42 571.236L1080.72 581.496H1088.42V571.236Z" fill="white"/>
<path d="M265.65 561.1C269.317 561.1 272.533 561.817 275.3 563.25C278.1 564.683 280.25 566.733 281.75 569.4C283.283 572.033 284.05 575.1 284.05 578.6C284.05 582.1 283.283 585.167 281.75 587.8C280.25 590.4 278.1 592.417 275.3 593.85C272.533 595.283 269.317 596 265.65 596H253.45V561.1H265.65ZM265.4 590.05C269.067 590.05 271.9 589.05 273.9 587.05C275.9 585.05 276.9 582.233 276.9 578.6C276.9 574.967 275.9 572.133 273.9 570.1C271.9 568.033 269.067 567 265.4 567H260.45V590.05H265.4ZM287.49 582.05C287.49 579.25 288.04 576.767 289.14 574.6C290.273 572.433 291.79 570.767 293.69 569.6C295.623 568.433 297.773 567.85 300.14 567.85C302.207 567.85 304.007 568.267 305.54 569.1C307.107 569.933 308.357 570.983 309.29 572.25V568.3H316.34V596H309.29V591.95C308.39 593.25 307.14 594.333 305.54 595.2C303.973 596.033 302.157 596.45 300.09 596.45C297.757 596.45 295.623 595.85 293.69 594.65C291.79 593.45 290.273 591.767 289.14 589.6C288.04 587.4 287.49 584.883 287.49 582.05ZM309.29 582.15C309.29 580.45 308.957 579 308.29 577.8C307.623 576.567 306.723 575.633 305.59 575C304.457 574.333 303.24 574 301.94 574C300.64 574 299.44 574.317 298.34 574.95C297.24 575.583 296.34 576.517 295.64 577.75C294.973 578.95 294.64 580.383 294.64 582.05C294.64 583.717 294.973 585.183 295.64 586.45C296.34 587.683 297.24 588.633 298.34 589.3C299.473 589.967 300.673 590.3 301.94 590.3C303.24 590.3 304.457 589.983 305.59 589.35C306.723 588.683 307.623 587.75 308.29 586.55C308.957 585.317 309.29 583.85 309.29 582.15ZM331.327 574.05V587.45C331.327 588.383 331.543 589.067 331.977 589.5C332.443 589.9 333.21 590.1 334.277 590.1H337.527V596H333.127C327.227 596 324.277 593.133 324.277 587.4V574.05H320.977V568.3H324.277V561.45H331.327V568.3H337.527V574.05H331.327ZM340.761 582.05C340.761 579.25 341.311 576.767 342.411 574.6C343.545 572.433 345.061 570.767 346.961 569.6C348.895 568.433 351.045 567.85 353.411 567.85C355.478 567.85 357.278 568.267 358.811 569.1C360.378 569.933 361.628 570.983 362.561 572.25V568.3H369.611V596H362.561V591.95C361.661 593.25 360.411 594.333 358.811 595.2C357.245 596.033 355.428 596.45 353.361 596.45C351.028 596.45 348.895 595.85 346.961 594.65C345.061 593.45 343.545 591.767 342.411 589.6C341.311 587.4 340.761 584.883 340.761 582.05ZM362.561 582.15C362.561 580.45 362.228 579 361.561 577.8C360.895 576.567 359.995 575.633 358.861 575C357.728 574.333 356.511 574 355.211 574C353.911 574 352.711 574.317 351.611 574.95C350.511 575.583 349.611 576.517 348.911 577.75C348.245 578.95 347.911 580.383 347.911 582.05C347.911 583.717 348.245 585.183 348.911 586.45C349.611 587.683 350.511 588.633 351.611 589.3C352.745 589.967 353.945 590.3 355.211 590.3C356.511 590.3 357.728 589.983 358.861 589.35C359.995 588.683 360.895 587.75 361.561 586.55C362.228 585.317 362.561 583.85 362.561 582.15ZM383.448 572.35C384.348 571.017 385.581 569.933 387.148 569.1C388.748 568.267 390.565 567.85 392.598 567.85C394.965 567.85 397.098 568.433 398.998 569.6C400.931 570.767 402.448 572.433 403.548 574.6C404.681 576.733 405.248 579.217 405.248 582.05C405.248 584.883 404.681 587.4 403.548 589.6C402.448 591.767 400.931 593.45 398.998 594.65C397.098 595.85 394.965 596.45 392.598 596.45C390.531 596.45 388.715 596.05 387.148 595.25C385.615 594.417 384.381 593.35 383.448 592.05V596H376.448V559H383.448V572.35ZM398.098 582.05C398.098 580.383 397.748 578.95 397.048 577.75C396.381 576.517 395.481 575.583 394.348 574.95C393.248 574.317 392.048 574 390.748 574C389.481 574 388.281 574.333 387.148 575C386.048 575.633 385.148 576.567 384.448 577.8C383.781 579.033 383.448 580.483 383.448 582.15C383.448 583.817 383.781 585.267 384.448 586.5C385.148 587.733 386.048 588.683 387.148 589.35C388.281 589.983 389.481 590.3 390.748 590.3C392.048 590.3 393.248 589.967 394.348 589.3C395.481 588.633 396.381 587.683 397.048 586.45C397.748 585.217 398.098 583.75 398.098 582.05ZM408.535 582.05C408.535 579.25 409.085 576.767 410.185 574.6C411.318 572.433 412.835 570.767 414.735 569.6C416.668 568.433 418.818 567.85 421.185 567.85C423.251 567.85 425.051 568.267 426.585 569.1C428.151 569.933 429.401 570.983 430.335 572.25V568.3H437.385V596H430.335V591.95C429.435 593.25 428.185 594.333 426.585 595.2C425.018 596.033 423.201 596.45 421.135 596.45C418.801 596.45 416.668 595.85 414.735 594.65C412.835 593.45 411.318 591.767 410.185 589.6C409.085 587.4 408.535 584.883 408.535 582.05ZM430.335 582.15C430.335 580.45 430.001 579 429.335 577.8C428.668 576.567 427.768 575.633 426.635 575C425.501 574.333 424.285 574 422.985 574C421.685 574 420.485 574.317 419.385 574.95C418.285 575.583 417.385 576.517 416.685 577.75C416.018 578.95 415.685 580.383 415.685 582.05C415.685 583.717 416.018 585.183 416.685 586.45C417.385 587.683 418.285 588.633 419.385 589.3C420.518 589.967 421.718 590.3 422.985 590.3C424.285 590.3 425.501 589.983 426.635 589.35C427.768 588.683 428.668 587.75 429.335 586.55C430.001 585.317 430.335 583.85 430.335 582.15ZM454.821 596.45C452.555 596.45 450.521 596.05 448.721 595.25C446.921 594.417 445.488 593.3 444.421 591.9C443.388 590.5 442.821 588.95 442.721 587.25H449.771C449.905 588.317 450.421 589.2 451.321 589.9C452.255 590.6 453.405 590.95 454.771 590.95C456.105 590.95 457.138 590.683 457.871 590.15C458.638 589.617 459.021 588.933 459.021 588.1C459.021 587.2 458.555 586.533 457.621 586.1C456.721 585.633 455.271 585.133 453.271 584.6C451.205 584.1 449.505 583.583 448.171 583.05C446.871 582.517 445.738 581.7 444.771 580.6C443.838 579.5 443.371 578.017 443.371 576.15C443.371 574.617 443.805 573.217 444.671 571.95C445.571 570.683 446.838 569.683 448.471 568.95C450.138 568.217 452.088 567.85 454.321 567.85C457.621 567.85 460.255 568.683 462.221 570.35C464.188 571.983 465.271 574.2 465.471 577H458.771C458.671 575.9 458.205 575.033 457.371 574.4C456.571 573.733 455.488 573.4 454.121 573.4C452.855 573.4 451.871 573.633 451.171 574.1C450.505 574.567 450.171 575.217 450.171 576.05C450.171 576.983 450.638 577.7 451.571 578.2C452.505 578.667 453.955 579.15 455.921 579.65C457.921 580.15 459.571 580.667 460.871 581.2C462.171 581.733 463.288 582.567 464.221 583.7C465.188 584.8 465.688 586.267 465.721 588.1C465.721 589.7 465.271 591.133 464.371 592.4C463.505 593.667 462.238 594.667 460.571 595.4C458.938 596.1 457.021 596.45 454.821 596.45ZM497.218 581.55C497.218 582.55 497.151 583.45 497.018 584.25H476.768C476.934 586.25 477.634 587.817 478.868 588.95C480.101 590.083 481.618 590.65 483.418 590.65C486.018 590.65 487.868 589.533 488.968 587.3H496.518C495.718 589.967 494.184 592.167 491.918 593.9C489.651 595.6 486.868 596.45 483.568 596.45C480.901 596.45 478.501 595.867 476.368 594.7C474.268 593.5 472.618 591.817 471.418 589.65C470.251 587.483 469.668 584.983 469.668 582.15C469.668 579.283 470.251 576.767 471.418 574.6C472.584 572.433 474.218 570.767 476.318 569.6C478.418 568.433 480.834 567.85 483.568 567.85C486.201 567.85 488.551 568.417 490.618 569.55C492.718 570.683 494.334 572.3 495.468 574.4C496.634 576.467 497.218 578.85 497.218 581.55ZM489.968 579.55C489.934 577.75 489.284 576.317 488.018 575.25C486.751 574.15 485.201 573.6 483.368 573.6C481.634 573.6 480.168 574.133 478.968 575.2C477.801 576.233 477.084 577.683 476.818 579.55H489.968ZM526.291 596.35C523.858 596.35 521.658 595.933 519.691 595.1C517.758 594.267 516.224 593.067 515.091 591.5C513.958 589.933 513.374 588.083 513.341 585.95H520.841C520.941 587.383 521.441 588.517 522.341 589.35C523.274 590.183 524.541 590.6 526.141 590.6C527.774 590.6 529.058 590.217 529.991 589.45C530.924 588.65 531.391 587.617 531.391 586.35C531.391 585.317 531.074 584.467 530.441 583.8C529.808 583.133 529.008 582.617 528.041 582.25C527.108 581.85 525.808 581.417 524.141 580.95C521.874 580.283 520.024 579.633 518.591 579C517.191 578.333 515.974 577.35 514.941 576.05C513.941 574.717 513.441 572.95 513.441 570.75C513.441 568.683 513.958 566.883 514.991 565.35C516.024 563.817 517.474 562.65 519.341 561.85C521.208 561.017 523.341 560.6 525.741 560.6C529.341 560.6 532.258 561.483 534.491 563.25C536.758 564.983 538.008 567.417 538.241 570.55H530.541C530.474 569.35 529.958 568.367 528.991 567.6C528.058 566.8 526.808 566.4 525.241 566.4C523.874 566.4 522.774 566.75 521.941 567.45C521.141 568.15 520.741 569.167 520.741 570.5C520.741 571.433 521.041 572.217 521.641 572.85C522.274 573.45 523.041 573.95 523.941 574.35C524.874 574.717 526.174 575.15 527.841 575.65C530.108 576.317 531.958 576.983 533.391 577.65C534.824 578.317 536.058 579.317 537.091 580.65C538.124 581.983 538.641 583.733 538.641 585.9C538.641 587.767 538.158 589.5 537.191 591.1C536.224 592.7 534.808 593.983 532.941 594.95C531.074 595.883 528.858 596.35 526.291 596.35ZM542.91 582.15C542.91 579.283 543.493 576.783 544.66 574.65C545.826 572.483 547.443 570.817 549.51 569.65C551.576 568.45 553.943 567.85 556.61 567.85C560.043 567.85 562.876 568.717 565.11 570.45C567.376 572.15 568.893 574.55 569.66 577.65H562.11C561.71 576.45 561.026 575.517 560.06 574.85C559.126 574.15 557.96 573.8 556.56 573.8C554.56 573.8 552.976 574.533 551.81 576C550.643 577.433 550.06 579.483 550.06 582.15C550.06 584.783 550.643 586.833 551.81 588.3C552.976 589.733 554.56 590.45 556.56 590.45C559.393 590.45 561.243 589.183 562.11 586.65H569.66C568.893 589.65 567.376 592.033 565.11 593.8C562.843 595.567 560.01 596.45 556.61 596.45C553.943 596.45 551.576 595.867 549.51 594.7C547.443 593.5 545.826 591.833 544.66 589.7C543.493 587.533 542.91 585.017 542.91 582.15ZM572.988 582.05C572.988 579.25 573.538 576.767 574.638 574.6C575.771 572.433 577.288 570.767 579.188 569.6C581.121 568.433 583.271 567.85 585.638 567.85C587.705 567.85 589.505 568.267 591.038 569.1C592.605 569.933 593.855 570.983 594.788 572.25V568.3H601.838V596H594.788V591.95C593.888 593.25 592.638 594.333 591.038 595.2C589.471 596.033 587.655 596.45 585.588 596.45C583.255 596.45 581.121 595.85 579.188 594.65C577.288 593.45 575.771 591.767 574.638 589.6C573.538 587.4 572.988 584.883 572.988 582.05ZM594.788 582.15C594.788 580.45 594.455 579 593.788 577.8C593.121 576.567 592.221 575.633 591.088 575C589.955 574.333 588.738 574 587.438 574C586.138 574 584.938 574.317 583.838 574.95C582.738 575.583 581.838 576.517 581.138 577.75C580.471 578.95 580.138 580.383 580.138 582.05C580.138 583.717 580.471 585.183 581.138 586.45C581.838 587.683 582.738 588.633 583.838 589.3C584.971 589.967 586.171 590.3 587.438 590.3C588.738 590.3 589.955 589.983 591.088 589.35C592.221 588.683 593.121 587.75 593.788 586.55C594.455 585.317 594.788 583.85 594.788 582.15ZM615.675 559V596H608.675V559H615.675ZM626.141 565C624.907 565 623.874 564.617 623.041 563.85C622.241 563.05 621.841 562.067 621.841 560.9C621.841 559.733 622.241 558.767 623.041 558C623.874 557.2 624.907 556.8 626.141 556.8C627.374 556.8 628.391 557.2 629.191 558C630.024 558.767 630.441 559.733 630.441 560.9C630.441 562.067 630.024 563.05 629.191 563.85C628.391 564.617 627.374 565 626.141 565ZM629.591 568.3V596H622.591V568.3H629.591ZM651.857 567.9C655.157 567.9 657.823 568.95 659.857 571.05C661.89 573.117 662.907 576.017 662.907 579.75V596H655.907V580.7C655.907 578.5 655.357 576.817 654.257 575.65C653.157 574.45 651.657 573.85 649.757 573.85C647.823 573.85 646.29 574.45 645.157 575.65C644.057 576.817 643.507 578.5 643.507 580.7V596H636.507V568.3H643.507V571.75C644.44 570.55 645.623 569.617 647.057 568.95C648.523 568.25 650.123 567.9 651.857 567.9ZM680.413 567.85C682.48 567.85 684.297 568.267 685.863 569.1C687.43 569.9 688.663 570.95 689.563 572.25V568.3H696.613V596.2C696.613 598.767 696.097 601.05 695.063 603.05C694.03 605.083 692.48 606.683 690.413 607.85C688.347 609.05 685.847 609.65 682.913 609.65C678.98 609.65 675.747 608.733 673.213 606.9C670.713 605.067 669.297 602.567 668.963 599.4H675.913C676.28 600.667 677.063 601.667 678.263 602.4C679.497 603.167 680.98 603.55 682.713 603.55C684.747 603.55 686.397 602.933 687.663 601.7C688.93 600.5 689.563 598.667 689.563 596.2V591.9C688.663 593.2 687.413 594.283 685.813 595.15C684.247 596.017 682.447 596.45 680.413 596.45C678.08 596.45 675.947 595.85 674.013 594.65C672.08 593.45 670.547 591.767 669.413 589.6C668.313 587.4 667.763 584.883 667.763 582.05C667.763 579.25 668.313 576.767 669.413 574.6C670.547 572.433 672.063 570.767 673.963 569.6C675.897 568.433 678.047 567.85 680.413 567.85ZM689.563 582.15C689.563 580.45 689.23 579 688.563 577.8C687.897 576.567 686.997 575.633 685.863 575C684.73 574.333 683.513 574 682.213 574C680.913 574 679.713 574.317 678.613 574.95C677.513 575.583 676.613 576.517 675.913 577.75C675.247 578.95 674.913 580.383 674.913 582.05C674.913 583.717 675.247 585.183 675.913 586.45C676.613 587.683 677.513 588.633 678.613 589.3C679.747 589.967 680.947 590.3 682.213 590.3C683.513 590.3 684.73 589.983 685.863 589.35C686.997 588.683 687.897 587.75 688.563 586.55C689.23 585.317 689.563 583.85 689.563 582.15Z" fill="#121212"/>
<circle cx="155" cy="578" r="55" fill="#1E294B"/>
<path d="M134.044 578.076C134.044 586.692 137.284 591 143.764 591C147.196 591 149.668 589.848 151.18 587.544C152.692 585.24 153.448 582.084 153.448 578.076C153.448 574.092 152.692 570.948 151.18 568.644C149.668 566.34 147.196 565.188 143.764 565.188C137.284 565.188 134.044 569.484 134.044 578.076ZM148.444 578.076C148.444 580.692 148.12 582.708 147.472 584.124C146.848 585.516 145.612 586.212 143.764 586.212C141.892 586.212 140.632 585.516 139.984 584.124C139.36 582.708 139.048 580.692 139.048 578.076C139.048 575.484 139.36 573.492 139.984 572.1C140.632 570.684 141.892 569.976 143.764 569.976C145.612 569.976 146.848 570.684 147.472 572.1C148.12 573.492 148.444 575.484 148.444 578.076ZM165.934 564.612C167.662 564.612 169.138 564.912 170.362 565.512C171.61 566.112 172.546 566.94 173.17 567.996C173.818 569.052 174.142 570.228 174.142 571.524C174.142 573.156 173.698 574.5 172.81 575.556C171.922 576.588 170.746 577.224 169.282 577.464V577.644C172.834 578.7 174.61 580.788 174.61 583.908C174.61 586.092 173.878 587.868 172.414 589.236C170.95 590.58 168.886 591.252 166.222 591.252C163.39 591.252 161.134 590.556 159.454 589.164C157.774 587.748 156.838 585.624 156.646 582.792H161.614C161.734 584.088 162.154 585.12 162.874 585.888C163.618 586.632 164.662 587.004 166.006 587.004C167.158 587.004 168.058 586.692 168.706 586.068C169.354 585.42 169.678 584.58 169.678 583.548C169.678 582.324 169.21 581.388 168.274 580.74C167.338 580.092 165.958 579.768 164.134 579.768H163.09V575.628H164.134C167.494 575.676 169.174 574.512 169.174 572.136C169.174 571.104 168.874 570.3 168.274 569.724C167.674 569.124 166.858 568.824 165.826 568.824C164.746 568.824 163.858 569.172 163.162 569.868C162.466 570.54 162.07 571.488 161.974 572.712H157.006C157.15 570.12 157.99 568.128 159.526 566.736C161.062 565.32 163.198 564.612 165.934 564.612Z" fill="white"/>
<path d="M1195 334.1V339.75H1180.45V348.7H1191.6V354.25H1180.45V369H1173.45V334.1H1195ZM1198.16 355.05C1198.16 352.25 1198.71 349.767 1199.81 347.6C1200.95 345.433 1202.46 343.767 1204.36 342.6C1206.3 341.433 1208.45 340.85 1210.81 340.85C1212.88 340.85 1214.68 341.267 1216.21 342.1C1217.78 342.933 1219.03 343.983 1219.96 345.25V341.3H1227.01V369H1219.96V364.95C1219.06 366.25 1217.81 367.333 1216.21 368.2C1214.65 369.033 1212.83 369.45 1210.76 369.45C1208.43 369.45 1206.3 368.85 1204.36 367.65C1202.46 366.45 1200.95 364.767 1199.81 362.6C1198.71 360.4 1198.16 357.883 1198.16 355.05ZM1219.96 355.15C1219.96 353.45 1219.63 352 1218.96 350.8C1218.3 349.567 1217.4 348.633 1216.26 348C1215.13 347.333 1213.91 347 1212.61 347C1211.31 347 1210.11 347.317 1209.01 347.95C1207.91 348.583 1207.01 349.517 1206.31 350.75C1205.65 351.95 1205.31 353.383 1205.31 355.05C1205.31 356.717 1205.65 358.183 1206.31 359.45C1207.01 360.683 1207.91 361.633 1209.01 362.3C1210.15 362.967 1211.35 363.3 1212.61 363.3C1213.91 363.3 1215.13 362.983 1216.26 362.35C1217.4 361.683 1218.3 360.75 1218.96 359.55C1219.63 358.317 1219.96 356.85 1219.96 355.15ZM1237.4 338C1236.17 338 1235.13 337.617 1234.3 336.85C1233.5 336.05 1233.1 335.067 1233.1 333.9C1233.1 332.733 1233.5 331.767 1234.3 331C1235.13 330.2 1236.17 329.8 1237.4 329.8C1238.63 329.8 1239.65 330.2 1240.45 331C1241.28 331.767 1241.7 332.733 1241.7 333.9C1241.7 335.067 1241.28 336.05 1240.45 336.85C1239.65 337.617 1238.63 338 1237.4 338ZM1240.85 341.3V369H1233.85V341.3H1240.85ZM1254.77 332V369H1247.77V332H1254.77ZM1273.98 369.45C1271.32 369.45 1268.92 368.867 1266.78 367.7C1264.65 366.5 1262.97 364.817 1261.73 362.65C1260.53 360.483 1259.93 357.983 1259.93 355.15C1259.93 352.317 1260.55 349.817 1261.78 347.65C1263.05 345.483 1264.77 343.817 1266.93 342.65C1269.1 341.45 1271.52 340.85 1274.18 340.85C1276.85 340.85 1279.27 341.45 1281.43 342.65C1283.6 343.817 1285.3 345.483 1286.53 347.65C1287.8 349.817 1288.43 352.317 1288.43 355.15C1288.43 357.983 1287.78 360.483 1286.48 362.65C1285.22 364.817 1283.48 366.5 1281.28 367.7C1279.12 368.867 1276.68 369.45 1273.98 369.45ZM1273.98 363.35C1275.25 363.35 1276.43 363.05 1277.53 362.45C1278.67 361.817 1279.57 360.883 1280.23 359.65C1280.9 358.417 1281.23 356.917 1281.23 355.15C1281.23 352.517 1280.53 350.5 1279.13 349.1C1277.77 347.667 1276.08 346.95 1274.08 346.95C1272.08 346.95 1270.4 347.667 1269.03 349.1C1267.7 350.5 1267.03 352.517 1267.03 355.15C1267.03 357.783 1267.68 359.817 1268.98 361.25C1270.32 362.65 1271.98 363.35 1273.98 363.35ZM1305.12 362.55L1312.12 341.3H1319.57L1309.32 369H1300.82L1290.62 341.3H1298.12L1305.12 362.55ZM1349.25 354.55C1349.25 355.55 1349.18 356.45 1349.05 357.25H1328.8C1328.97 359.25 1329.67 360.817 1330.9 361.95C1332.13 363.083 1333.65 363.65 1335.45 363.65C1338.05 363.65 1339.9 362.533 1341 360.3H1348.55C1347.75 362.967 1346.22 365.167 1343.95 366.9C1341.68 368.6 1338.9 369.45 1335.6 369.45C1332.93 369.45 1330.53 368.867 1328.4 367.7C1326.3 366.5 1324.65 364.817 1323.45 362.65C1322.28 360.483 1321.7 357.983 1321.7 355.15C1321.7 352.283 1322.28 349.767 1323.45 347.6C1324.62 345.433 1326.25 343.767 1328.35 342.6C1330.45 341.433 1332.87 340.85 1335.6 340.85C1338.23 340.85 1340.58 341.417 1342.65 342.55C1344.75 343.683 1346.37 345.3 1347.5 347.4C1348.67 349.467 1349.25 351.85 1349.25 354.55ZM1342 352.55C1341.97 350.75 1341.32 349.317 1340.05 348.25C1338.78 347.15 1337.23 346.6 1335.4 346.6C1333.67 346.6 1332.2 347.133 1331 348.2C1329.83 349.233 1329.12 350.683 1328.85 352.55H1342ZM1361.36 345.6C1362.26 344.133 1363.42 342.983 1364.86 342.15C1366.32 341.317 1367.99 340.9 1369.86 340.9V348.25H1368.01C1365.81 348.25 1364.14 348.767 1363.01 349.8C1361.91 350.833 1361.36 352.633 1361.36 355.2V369H1354.36V341.3H1361.36V345.6ZM1398.54 369.35C1396.1 369.35 1393.9 368.933 1391.94 368.1C1390 367.267 1388.47 366.067 1387.34 364.5C1386.2 362.933 1385.62 361.083 1385.59 358.95H1393.09C1393.19 360.383 1393.69 361.517 1394.59 362.35C1395.52 363.183 1396.79 363.6 1398.39 363.6C1400.02 363.6 1401.3 363.217 1402.24 362.45C1403.17 361.65 1403.64 360.617 1403.64 359.35C1403.64 358.317 1403.32 357.467 1402.69 356.8C1402.05 356.133 1401.25 355.617 1400.29 355.25C1399.35 354.85 1398.05 354.417 1396.39 353.95C1394.12 353.283 1392.27 352.633 1390.84 352C1389.44 351.333 1388.22 350.35 1387.19 349.05C1386.19 347.717 1385.69 345.95 1385.69 343.75C1385.69 341.683 1386.2 339.883 1387.24 338.35C1388.27 336.817 1389.72 335.65 1391.59 334.85C1393.45 334.017 1395.59 333.6 1397.99 333.6C1401.59 333.6 1404.5 334.483 1406.74 336.25C1409 337.983 1410.25 340.417 1410.49 343.55H1402.79C1402.72 342.35 1402.2 341.367 1401.24 340.6C1400.3 339.8 1399.05 339.4 1397.49 339.4C1396.12 339.4 1395.02 339.75 1394.19 340.45C1393.39 341.15 1392.99 342.167 1392.99 343.5C1392.99 344.433 1393.29 345.217 1393.89 345.85C1394.52 346.45 1395.29 346.95 1396.19 347.35C1397.12 347.717 1398.42 348.15 1400.09 348.65C1402.35 349.317 1404.2 349.983 1405.64 350.65C1407.07 351.317 1408.3 352.317 1409.34 353.65C1410.37 354.983 1410.89 356.733 1410.89 358.9C1410.89 360.767 1410.4 362.5 1409.44 364.1C1408.47 365.7 1407.05 366.983 1405.19 367.95C1403.32 368.883 1401.1 369.35 1398.54 369.35ZM1425.11 347.05V360.45C1425.11 361.383 1425.32 362.067 1425.76 362.5C1426.22 362.9 1426.99 363.1 1428.06 363.1H1431.31V369H1426.91C1421.01 369 1418.06 366.133 1418.06 360.4V347.05H1414.76V341.3H1418.06V334.45H1425.11V341.3H1431.31V347.05H1425.11ZM1443.34 345.6C1444.24 344.133 1445.41 342.983 1446.84 342.15C1448.31 341.317 1449.97 340.9 1451.84 340.9V348.25H1449.99C1447.79 348.25 1446.12 348.767 1444.99 349.8C1443.89 350.833 1443.34 352.633 1443.34 355.2V369H1436.34V341.3H1443.34V345.6ZM1454.76 355.05C1454.76 352.25 1455.31 349.767 1456.41 347.6C1457.54 345.433 1459.06 343.767 1460.96 342.6C1462.89 341.433 1465.04 340.85 1467.41 340.85C1469.47 340.85 1471.27 341.267 1472.81 342.1C1474.37 342.933 1475.62 343.983 1476.56 345.25V341.3H1483.61V369H1476.56V364.95C1475.66 366.25 1474.41 367.333 1472.81 368.2C1471.24 369.033 1469.42 369.45 1467.36 369.45C1465.02 369.45 1462.89 368.85 1460.96 367.65C1459.06 366.45 1457.54 364.767 1456.41 362.6C1455.31 360.4 1454.76 357.883 1454.76 355.05ZM1476.56 355.15C1476.56 353.45 1476.22 352 1475.56 350.8C1474.89 349.567 1473.99 348.633 1472.86 348C1471.72 347.333 1470.51 347 1469.21 347C1467.91 347 1466.71 347.317 1465.61 347.95C1464.51 348.583 1463.61 349.517 1462.91 350.75C1462.24 351.95 1461.91 353.383 1461.91 355.05C1461.91 356.717 1462.24 358.183 1462.91 359.45C1463.61 360.683 1464.51 361.633 1465.61 362.3C1466.74 362.967 1467.94 363.3 1469.21 363.3C1470.51 363.3 1471.72 362.983 1472.86 362.35C1473.99 361.683 1474.89 360.75 1475.56 359.55C1476.22 358.317 1476.56 356.85 1476.56 355.15ZM1498.59 347.05V360.45C1498.59 361.383 1498.81 362.067 1499.24 362.5C1499.71 362.9 1500.48 363.1 1501.54 363.1H1504.79V369H1500.39C1494.49 369 1491.54 366.133 1491.54 360.4V347.05H1488.24V341.3H1491.54V334.45H1498.59V341.3H1504.79V347.05H1498.59ZM1535.58 354.55C1535.58 355.55 1535.51 356.45 1535.38 357.25H1515.13C1515.29 359.25 1515.99 360.817 1517.23 361.95C1518.46 363.083 1519.98 363.65 1521.78 363.65C1524.38 363.65 1526.23 362.533 1527.33 360.3H1534.88C1534.08 362.967 1532.54 365.167 1530.28 366.9C1528.01 368.6 1525.23 369.45 1521.93 369.45C1519.26 369.45 1516.86 368.867 1514.73 367.7C1512.63 366.5 1510.98 364.817 1509.78 362.65C1508.61 360.483 1508.03 357.983 1508.03 355.15C1508.03 352.283 1508.61 349.767 1509.78 347.6C1510.94 345.433 1512.58 343.767 1514.68 342.6C1516.78 341.433 1519.19 340.85 1521.93 340.85C1524.56 340.85 1526.91 341.417 1528.98 342.55C1531.08 343.683 1532.69 345.3 1533.83 347.4C1534.99 349.467 1535.58 351.85 1535.58 354.55ZM1528.33 352.55C1528.29 350.75 1527.64 349.317 1526.38 348.25C1525.11 347.15 1523.56 346.6 1521.73 346.6C1519.99 346.6 1518.53 347.133 1517.33 348.2C1516.16 349.233 1515.44 350.683 1515.18 352.55H1528.33ZM1551.54 340.85C1553.6 340.85 1555.42 341.267 1556.99 342.1C1558.55 342.9 1559.79 343.95 1560.69 345.25V341.3H1567.74V369.2C1567.74 371.767 1567.22 374.05 1566.19 376.05C1565.15 378.083 1563.6 379.683 1561.54 380.85C1559.47 382.05 1556.97 382.65 1554.04 382.65C1550.1 382.65 1546.87 381.733 1544.34 379.9C1541.84 378.067 1540.42 375.567 1540.09 372.4H1547.04C1547.4 373.667 1548.19 374.667 1549.39 375.4C1550.62 376.167 1552.1 376.55 1553.84 376.55C1555.87 376.55 1557.52 375.933 1558.79 374.7C1560.05 373.5 1560.69 371.667 1560.69 369.2V364.9C1559.79 366.2 1558.54 367.283 1556.94 368.15C1555.37 369.017 1553.57 369.45 1551.54 369.45C1549.2 369.45 1547.07 368.85 1545.14 367.65C1543.2 366.45 1541.67 364.767 1540.54 362.6C1539.44 360.4 1538.89 357.883 1538.89 355.05C1538.89 352.25 1539.44 349.767 1540.54 347.6C1541.67 345.433 1543.19 343.767 1545.09 342.6C1547.02 341.433 1549.17 340.85 1551.54 340.85ZM1560.69 355.15C1560.69 353.45 1560.35 352 1559.69 350.8C1559.02 349.567 1558.12 348.633 1556.99 348C1555.85 347.333 1554.64 347 1553.34 347C1552.04 347 1550.84 347.317 1549.74 347.95C1548.64 348.583 1547.74 349.517 1547.04 350.75C1546.37 351.95 1546.04 353.383 1546.04 355.05C1546.04 356.717 1546.37 358.183 1547.04 359.45C1547.74 360.683 1548.64 361.633 1549.74 362.3C1550.87 362.967 1552.07 363.3 1553.34 363.3C1554.64 363.3 1555.85 362.983 1556.99 362.35C1558.12 361.683 1559.02 360.75 1559.69 359.55C1560.35 358.317 1560.69 356.85 1560.69 355.15ZM1578.12 338C1576.89 338 1575.86 337.617 1575.02 336.85C1574.22 336.05 1573.82 335.067 1573.82 333.9C1573.82 332.733 1574.22 331.767 1575.02 331C1575.86 330.2 1576.89 329.8 1578.12 329.8C1579.36 329.8 1580.37 330.2 1581.17 331C1582.01 331.767 1582.42 332.733 1582.42 333.9C1582.42 335.067 1582.01 336.05 1581.17 336.85C1580.37 337.617 1579.36 338 1578.12 338ZM1581.57 341.3V369H1574.57V341.3H1581.57ZM1614.24 354.55C1614.24 355.55 1614.17 356.45 1614.04 357.25H1593.79C1593.96 359.25 1594.66 360.817 1595.89 361.95C1597.12 363.083 1598.64 363.65 1600.44 363.65C1603.04 363.65 1604.89 362.533 1605.99 360.3H1613.54C1612.74 362.967 1611.21 365.167 1608.94 366.9C1606.67 368.6 1603.89 369.45 1600.59 369.45C1597.92 369.45 1595.52 368.867 1593.39 367.7C1591.29 366.5 1589.64 364.817 1588.44 362.65C1587.27 360.483 1586.69 357.983 1586.69 355.15C1586.69 352.283 1587.27 349.767 1588.44 347.6C1589.61 345.433 1591.24 343.767 1593.34 342.6C1595.44 341.433 1597.86 340.85 1600.59 340.85C1603.22 340.85 1605.57 341.417 1607.64 342.55C1609.74 343.683 1611.36 345.3 1612.49 347.4C1613.66 349.467 1614.24 351.85 1614.24 354.55ZM1606.99 352.55C1606.96 350.75 1606.31 349.317 1605.04 348.25C1603.77 347.15 1602.22 346.6 1600.39 346.6C1598.66 346.6 1597.19 347.133 1595.99 348.2C1594.82 349.233 1594.11 350.683 1593.84 352.55H1606.99ZM1629.95 369.45C1627.68 369.45 1625.65 369.05 1623.85 368.25C1622.05 367.417 1620.62 366.3 1619.55 364.9C1618.52 363.5 1617.95 361.95 1617.85 360.25H1624.9C1625.03 361.317 1625.55 362.2 1626.45 362.9C1627.38 363.6 1628.53 363.95 1629.9 363.95C1631.23 363.95 1632.27 363.683 1633 363.15C1633.77 362.617 1634.15 361.933 1634.15 361.1C1634.15 360.2 1633.68 359.533 1632.75 359.1C1631.85 358.633 1630.4 358.133 1628.4 357.6C1626.33 357.1 1624.63 356.583 1623.3 356.05C1622 355.517 1620.87 354.7 1619.9 353.6C1618.97 352.5 1618.5 351.017 1618.5 349.15C1618.5 347.617 1618.93 346.217 1619.8 344.95C1620.7 343.683 1621.97 342.683 1623.6 341.95C1625.27 341.217 1627.22 340.85 1629.45 340.85C1632.75 340.85 1635.38 341.683 1637.35 343.35C1639.32 344.983 1640.4 347.2 1640.6 350H1633.9C1633.8 348.9 1633.33 348.033 1632.5 347.4C1631.7 346.733 1630.62 346.4 1629.25 346.4C1627.98 346.4 1627 346.633 1626.3 347.1C1625.63 347.567 1625.3 348.217 1625.3 349.05C1625.3 349.983 1625.77 350.7 1626.7 351.2C1627.63 351.667 1629.08 352.15 1631.05 352.65C1633.05 353.15 1634.7 353.667 1636 354.2C1637.3 354.733 1638.42 355.567 1639.35 356.7C1640.32 357.8 1640.82 359.267 1640.85 361.1C1640.85 362.7 1640.4 364.133 1639.5 365.4C1638.63 366.667 1637.37 367.667 1635.7 368.4C1634.07 369.1 1632.15 369.45 1629.95 369.45Z" fill="#121212"/>
<circle cx="1075" cy="351" r="55" fill="#1E294B"/>
<path d="M1054.62 351.076C1054.62 359.692 1057.86 364 1064.34 364C1067.78 364 1070.25 362.848 1071.76 360.544C1073.27 358.24 1074.03 355.084 1074.03 351.076C1074.03 347.092 1073.27 343.948 1071.76 341.644C1070.25 339.34 1067.78 338.188 1064.34 338.188C1057.86 338.188 1054.62 342.484 1054.62 351.076ZM1069.02 351.076C1069.02 353.692 1068.7 355.708 1068.05 357.124C1067.43 358.516 1066.19 359.212 1064.34 359.212C1062.47 359.212 1061.21 358.516 1060.56 357.124C1059.94 355.708 1059.63 353.692 1059.63 351.076C1059.63 348.484 1059.94 346.492 1060.56 345.1C1061.21 343.684 1062.47 342.976 1064.34 342.976C1066.19 342.976 1067.43 343.684 1068.05 345.1C1068.7 346.492 1069.02 348.484 1069.02 351.076ZM1077.01 360.004C1085.15 354.364 1089.21 349.684 1089.21 345.964C1089.21 344.836 1088.94 343.948 1088.39 343.3C1087.86 342.652 1087.02 342.328 1085.87 342.328C1083.49 342.328 1082.23 343.948 1082.09 347.188H1077.15C1077.3 344.188 1078.21 341.92 1079.89 340.384C1081.57 338.824 1083.69 338.044 1086.26 338.044C1088.88 338.044 1090.88 338.728 1092.27 340.096C1093.69 341.44 1094.4 343.24 1094.4 345.496C1094.4 347.272 1093.87 349.06 1092.81 350.86C1091.78 352.636 1090.46 354.28 1088.85 355.792C1087.25 357.28 1085.55 358.564 1083.78 359.644H1094.9V363.784H1077.01V360.004Z" fill="white"/>
<path d="M265.5 369.35C263.067 369.35 260.867 368.933 258.9 368.1C256.967 367.267 255.433 366.067 254.3 364.5C253.167 362.933 252.583 361.083 252.55 358.95H260.05C260.15 360.383 260.65 361.517 261.55 362.35C262.483 363.183 263.75 363.6 265.35 363.6C266.983 363.6 268.267 363.217 269.2 362.45C270.133 361.65 270.6 360.617 270.6 359.35C270.6 358.317 270.283 357.467 269.65 356.8C269.017 356.133 268.217 355.617 267.25 355.25C266.317 354.85 265.017 354.417 263.35 353.95C261.083 353.283 259.233 352.633 257.8 352C256.4 351.333 255.183 350.35 254.15 349.05C253.15 347.717 252.65 345.95 252.65 343.75C252.65 341.683 253.167 339.883 254.2 338.35C255.233 336.817 256.683 335.65 258.55 334.85C260.417 334.017 262.55 333.6 264.95 333.6C268.55 333.6 271.467 334.483 273.7 336.25C275.967 337.983 277.217 340.417 277.45 343.55H269.75C269.683 342.35 269.167 341.367 268.2 340.6C267.267 339.8 266.017 339.4 264.45 339.4C263.083 339.4 261.983 339.75 261.15 340.45C260.35 341.15 259.95 342.167 259.95 343.5C259.95 344.433 260.25 345.217 260.85 345.85C261.483 346.45 262.25 346.95 263.15 347.35C264.083 347.717 265.383 348.15 267.05 348.65C269.317 349.317 271.167 349.983 272.6 350.65C274.033 351.317 275.267 352.317 276.3 353.65C277.333 354.983 277.85 356.733 277.85 358.9C277.85 360.767 277.367 362.5 276.4 364.1C275.433 365.7 274.017 366.983 272.15 367.95C270.283 368.883 268.067 369.35 265.5 369.35ZM282.119 355.15C282.119 352.283 282.702 349.783 283.869 347.65C285.035 345.483 286.652 343.817 288.719 342.65C290.785 341.45 293.152 340.85 295.819 340.85C299.252 340.85 302.085 341.717 304.319 343.45C306.585 345.15 308.102 347.55 308.869 350.65H301.319C300.919 349.45 300.235 348.517 299.269 347.85C298.335 347.15 297.169 346.8 295.769 346.8C293.769 346.8 292.185 347.533 291.019 349C289.852 350.433 289.269 352.483 289.269 355.15C289.269 357.783 289.852 359.833 291.019 361.3C292.185 362.733 293.769 363.45 295.769 363.45C298.602 363.45 300.452 362.183 301.319 359.65H308.869C308.102 362.65 306.585 365.033 304.319 366.8C302.052 368.567 299.219 369.45 295.819 369.45C293.152 369.45 290.785 368.867 288.719 367.7C286.652 366.5 285.035 364.833 283.869 362.7C282.702 360.533 282.119 358.017 282.119 355.15ZM312.197 355.05C312.197 352.25 312.747 349.767 313.847 347.6C314.98 345.433 316.497 343.767 318.397 342.6C320.33 341.433 322.48 340.85 324.847 340.85C326.914 340.85 328.714 341.267 330.247 342.1C331.814 342.933 333.064 343.983 333.997 345.25V341.3H341.047V369H333.997V364.95C333.097 366.25 331.847 367.333 330.247 368.2C328.68 369.033 326.864 369.45 324.797 369.45C322.464 369.45 320.33 368.85 318.397 367.65C316.497 366.45 314.98 364.767 313.847 362.6C312.747 360.4 312.197 357.883 312.197 355.05ZM333.997 355.15C333.997 353.45 333.664 352 332.997 350.8C332.33 349.567 331.43 348.633 330.297 348C329.164 347.333 327.947 347 326.647 347C325.347 347 324.147 347.317 323.047 347.95C321.947 348.583 321.047 349.517 320.347 350.75C319.68 351.95 319.347 353.383 319.347 355.05C319.347 356.717 319.68 358.183 320.347 359.45C321.047 360.683 321.947 361.633 323.047 362.3C324.18 362.967 325.38 363.3 326.647 363.3C327.947 363.3 329.164 362.983 330.297 362.35C331.43 361.683 332.33 360.75 332.997 359.55C333.664 358.317 333.997 356.85 333.997 355.15ZM354.884 332V369H347.884V332H354.884ZM360 355.05C360 352.25 360.55 349.767 361.65 347.6C362.783 345.433 364.3 343.767 366.2 342.6C368.133 341.433 370.283 340.85 372.65 340.85C374.716 340.85 376.516 341.267 378.05 342.1C379.616 342.933 380.866 343.983 381.8 345.25V341.3H388.85V369H381.8V364.95C380.9 366.25 379.65 367.333 378.05 368.2C376.483 369.033 374.666 369.45 372.6 369.45C370.266 369.45 368.133 368.85 366.2 367.65C364.3 366.45 362.783 364.767 361.65 362.6C360.55 360.4 360 357.883 360 355.05ZM381.8 355.15C381.8 353.45 381.466 352 380.8 350.8C380.133 349.567 379.233 348.633 378.1 348C376.966 347.333 375.75 347 374.45 347C373.15 347 371.95 347.317 370.85 347.95C369.75 348.583 368.85 349.517 368.15 350.75C367.483 351.95 367.15 353.383 367.15 355.05C367.15 356.717 367.483 358.183 368.15 359.45C368.85 360.683 369.75 361.633 370.85 362.3C371.983 362.967 373.183 363.3 374.45 363.3C375.75 363.3 376.966 362.983 378.1 362.35C379.233 361.683 380.133 360.75 380.8 359.55C381.466 358.317 381.8 356.85 381.8 355.15ZM402.686 345.35C403.586 344.017 404.82 342.933 406.386 342.1C407.986 341.267 409.803 340.85 411.836 340.85C414.203 340.85 416.336 341.433 418.236 342.6C420.17 343.767 421.686 345.433 422.786 347.6C423.92 349.733 424.486 352.217 424.486 355.05C424.486 357.883 423.92 360.4 422.786 362.6C421.686 364.767 420.17 366.45 418.236 367.65C416.336 368.85 414.203 369.45 411.836 369.45C409.77 369.45 407.953 369.05 406.386 368.25C404.853 367.417 403.62 366.35 402.686 365.05V369H395.686V332H402.686V345.35ZM417.336 355.05C417.336 353.383 416.986 351.95 416.286 350.75C415.62 349.517 414.72 348.583 413.586 347.95C412.486 347.317 411.286 347 409.986 347C408.72 347 407.52 347.333 406.386 348C405.286 348.633 404.386 349.567 403.686 350.8C403.02 352.033 402.686 353.483 402.686 355.15C402.686 356.817 403.02 358.267 403.686 359.5C404.386 360.733 405.286 361.683 406.386 362.35C407.52 362.983 408.72 363.3 409.986 363.3C411.286 363.3 412.486 362.967 413.586 362.3C414.72 361.633 415.62 360.683 416.286 359.45C416.986 358.217 417.336 356.75 417.336 355.05ZM433.123 338C431.89 338 430.856 337.617 430.023 336.85C429.223 336.05 428.823 335.067 428.823 333.9C428.823 332.733 429.223 331.767 430.023 331C430.856 330.2 431.89 329.8 433.123 329.8C434.356 329.8 435.373 330.2 436.173 331C437.006 331.767 437.423 332.733 437.423 333.9C437.423 335.067 437.006 336.05 436.173 336.85C435.373 337.617 434.356 338 433.123 338ZM436.573 341.3V369H429.573V341.3H436.573ZM450.489 332V369H443.489V332H450.489ZM460.955 338C459.722 338 458.688 337.617 457.855 336.85C457.055 336.05 456.655 335.067 456.655 333.9C456.655 332.733 457.055 331.767 457.855 331C458.688 330.2 459.722 329.8 460.955 329.8C462.188 329.8 463.205 330.2 464.005 331C464.838 331.767 465.255 332.733 465.255 333.9C465.255 335.067 464.838 336.05 464.005 336.85C463.205 337.617 462.188 338 460.955 338ZM464.405 341.3V369H457.405V341.3H464.405ZM479.471 347.05V360.45C479.471 361.383 479.688 362.067 480.121 362.5C480.588 362.9 481.354 363.1 482.421 363.1H485.671V369H481.271C475.371 369 472.421 366.133 472.421 360.4V347.05H469.121V341.3H472.421V334.45H479.471V341.3H485.671V347.05H479.471ZM517.206 341.3L500.056 382.1H492.606L498.606 368.3L487.506 341.3H495.356L502.506 360.65L509.756 341.3H517.206Z" fill="#121212"/>
<circle cx="155" cy="351" r="55" fill="#1E294B"/>
<path d="M138.25 350.536C138.25 346.384 138.994 343.132 140.482 340.78C141.994 338.428 144.49 337.252 147.97 337.252C151.45 337.252 153.934 338.428 155.422 340.78C156.934 343.132 157.69 346.384 157.69 350.536C157.69 354.712 156.934 357.988 155.422 360.364C153.934 362.74 151.45 363.928 147.97 363.928C144.49 363.928 141.994 362.74 140.482 360.364C138.994 357.988 138.25 354.712 138.25 350.536ZM152.722 350.536C152.722 348.76 152.602 347.272 152.362 346.072C152.146 344.848 151.69 343.852 150.994 343.084C150.322 342.316 149.314 341.932 147.97 341.932C146.626 341.932 145.606 342.316 144.91 343.084C144.238 343.852 143.782 344.848 143.542 346.072C143.326 347.272 143.218 348.76 143.218 350.536C143.218 352.36 143.326 353.896 143.542 355.144C143.758 356.368 144.214 357.364 144.91 358.132C145.606 358.876 146.626 359.248 147.97 359.248C149.314 359.248 150.334 358.876 151.03 358.132C151.726 357.364 152.182 356.368 152.398 355.144C152.614 353.896 152.722 352.36 152.722 350.536ZM160.911 342.4V337.756H169.587V364H164.403V342.4H160.911Z" fill="white"/>
<path d="M108.76 137.21C107.38 137.21 106.16 136.97 105.1 136.49C104.06 136.01 103.24 135.34 102.64 134.48C102.04 133.62 101.72 132.66 101.68 131.6H103.9C104 132.62 104.45 133.52 105.25 134.3C106.05 135.06 107.22 135.44 108.76 135.44C110.18 135.44 111.3 135.08 112.12 134.36C112.96 133.62 113.38 132.69 113.38 131.57C113.38 130.67 113.15 129.95 112.69 129.41C112.23 128.85 111.66 128.44 110.98 128.18C110.3 127.9 109.36 127.6 108.16 127.28C106.76 126.9 105.65 126.53 104.83 126.17C104.01 125.81 103.31 125.25 102.73 124.49C102.15 123.73 101.86 122.7 101.86 121.4C101.86 120.32 102.14 119.36 102.7 118.52C103.26 117.66 104.05 116.99 105.07 116.51C106.09 116.03 107.26 115.79 108.58 115.79C110.52 115.79 112.08 116.27 113.26 117.23C114.46 118.17 115.15 119.39 115.33 120.89H113.05C112.91 120.03 112.44 119.27 111.64 118.61C110.84 117.93 109.76 117.59 108.4 117.59C107.14 117.59 106.09 117.93 105.25 118.61C104.41 119.27 103.99 120.18 103.99 121.34C103.99 122.22 104.22 122.93 104.68 123.47C105.14 124.01 105.71 124.42 106.39 124.7C107.09 124.98 108.03 125.28 109.21 125.6C110.57 125.98 111.67 126.36 112.51 126.74C113.35 127.1 114.06 127.66 114.64 128.42C115.22 129.18 115.51 130.2 115.51 131.48C115.51 132.46 115.25 133.39 114.73 134.27C114.21 135.15 113.44 135.86 112.42 136.4C111.4 136.94 110.18 137.21 108.76 137.21ZM133.758 120.62V137H131.658V134.12C131.178 135.14 130.438 135.92 129.438 136.46C128.438 137 127.318 137.27 126.078 137.27C124.118 137.27 122.518 136.67 121.278 135.47C120.038 134.25 119.418 132.49 119.418 130.19V120.62H121.488V129.95C121.488 131.73 121.928 133.09 122.808 134.03C123.708 134.97 124.928 135.44 126.468 135.44C128.048 135.44 129.308 134.94 130.248 133.94C131.188 132.94 131.658 131.47 131.658 129.53V120.62H133.758ZM158.052 120.32C159.972 120.32 161.532 120.93 162.732 122.15C163.952 123.35 164.562 125.1 164.562 127.4V137H162.492V127.64C162.492 125.86 162.062 124.5 161.202 123.56C160.342 122.62 159.172 122.15 157.692 122.15C156.152 122.15 154.922 122.66 154.002 123.68C153.082 124.7 152.622 126.18 152.622 128.12V137H150.552V127.64C150.552 125.86 150.122 124.5 149.262 123.56C148.402 122.62 147.222 122.15 145.722 122.15C144.182 122.15 142.952 122.66 142.032 123.68C141.112 124.7 140.652 126.18 140.652 128.12V137H138.552V120.62H140.652V123.44C141.172 122.42 141.912 121.65 142.872 121.13C143.832 120.59 144.902 120.32 146.082 120.32C147.502 120.32 148.742 120.66 149.802 121.34C150.882 122.02 151.662 123.02 152.142 124.34C152.582 123.04 153.332 122.05 154.392 121.37C155.472 120.67 156.692 120.32 158.052 120.32ZM188.726 120.32C190.646 120.32 192.206 120.93 193.406 122.15C194.626 123.35 195.236 125.1 195.236 127.4V137H193.166V127.64C193.166 125.86 192.736 124.5 191.876 123.56C191.016 122.62 189.846 122.15 188.366 122.15C186.826 122.15 185.596 122.66 184.676 123.68C183.756 124.7 183.296 126.18 183.296 128.12V137H181.226V127.64C181.226 125.86 180.796 124.5 179.936 123.56C179.076 122.62 177.896 122.15 176.396 122.15C174.856 122.15 173.626 122.66 172.706 123.68C171.786 124.7 171.326 126.18 171.326 128.12V137H169.226V120.62H171.326V123.44C171.846 122.42 172.586 121.65 173.546 121.13C174.506 120.59 175.576 120.32 176.756 120.32C178.176 120.32 179.416 120.66 180.476 121.34C181.556 122.02 182.336 123.02 182.816 124.34C183.256 123.04 184.006 122.05 185.066 121.37C186.146 120.67 187.366 120.32 188.726 120.32ZM198.94 128.78C198.94 127.1 199.27 125.63 199.93 124.37C200.61 123.09 201.54 122.11 202.72 121.43C203.92 120.73 205.27 120.38 206.77 120.38C208.33 120.38 209.67 120.74 210.79 121.46C211.93 122.18 212.75 123.1 213.25 124.22V120.62H215.35V137H213.25V133.37C212.73 134.49 211.9 135.42 210.76 136.16C209.64 136.88 208.3 137.24 206.74 137.24C205.26 137.24 203.92 136.89 202.72 136.19C201.54 135.49 200.61 134.5 199.93 133.22C199.27 131.94 198.94 130.46 198.94 128.78ZM213.25 128.81C213.25 127.49 212.98 126.33 212.44 125.33C211.9 124.33 211.16 123.56 210.22 123.02C209.3 122.48 208.28 122.21 207.16 122.21C206 122.21 204.96 122.47 204.04 122.99C203.12 123.51 202.39 124.27 201.85 125.27C201.33 126.25 201.07 127.42 201.07 128.78C201.07 130.12 201.33 131.3 201.85 132.32C202.39 133.32 203.12 134.09 204.04 134.63C204.96 135.15 206 135.41 207.16 135.41C208.28 135.41 209.3 135.14 210.22 134.6C211.16 134.06 211.9 133.29 212.44 132.29C212.98 131.29 213.25 130.13 213.25 128.81ZM222.244 123.53C222.704 122.51 223.404 121.72 224.344 121.16C225.304 120.6 226.474 120.32 227.854 120.32V122.51H227.284C225.764 122.51 224.544 122.92 223.624 123.74C222.704 124.56 222.244 125.93 222.244 127.85V137H220.144V120.62H222.244V123.53ZM244.513 120.62L234.793 144.71H232.603L235.783 136.91L229.063 120.62H231.373L236.953 134.6L242.353 120.62H244.513Z" fill="#121212"/>
<path fill-rule="evenodd" clip-rule="evenodd" d="M120 987.594C109.579 987.594 101.129 996.042 101.129 1006.46C101.129 1014.8 106.536 1021.88 114.034 1024.37C114.977 1024.55 115.323 1023.96 115.323 1023.46C115.323 1023.01 115.306 1021.53 115.297 1019.95C110.047 1021.09 108.94 1017.72 108.94 1017.72C108.081 1015.54 106.844 1014.96 106.844 1014.96C105.132 1013.79 106.973 1013.82 106.973 1013.82C108.868 1013.95 109.866 1015.76 109.866 1015.76C111.549 1018.65 114.281 1017.81 115.358 1017.33C115.527 1016.11 116.016 1015.28 116.556 1014.81C112.364 1014.33 107.958 1012.71 107.958 1005.48C107.958 1003.42 108.695 1001.74 109.902 1000.41C109.706 999.939 109.06 998.02 110.085 995.421C110.085 995.421 111.669 994.913 115.276 997.355C116.781 996.937 118.396 996.726 120 996.719C121.603 996.726 123.219 996.936 124.727 997.354C128.329 994.913 129.911 995.42 129.911 995.42C130.939 998.019 130.293 999.939 130.097 1000.41C131.307 1001.74 132.039 1003.42 132.039 1005.48C132.039 1012.73 127.624 1014.32 123.422 1014.79C124.099 1015.38 124.702 1016.52 124.702 1018.29C124.702 1020.81 124.681 1022.84 124.681 1023.46C124.681 1023.97 125.021 1024.55 125.977 1024.37C133.471 1021.87 138.872 1014.8 138.872 1006.46C138.871 996.043 130.422 987.594 120 987.594Z" fill="#1E294B"/>
<path d="M108.276 1014.69C108.235 1014.78 108.087 1014.81 107.953 1014.75C107.815 1014.69 107.739 1014.56 107.783 1014.46C107.824 1014.37 107.971 1014.34 108.108 1014.4C108.245 1014.47 108.324 1014.6 108.276 1014.69L108.276 1014.69ZM109.04 1015.54C108.951 1015.62 108.775 1015.59 108.655 1015.45C108.532 1015.32 108.509 1015.15 108.6 1015.06C108.693 1014.98 108.864 1015.02 108.988 1015.15C109.111 1015.28 109.135 1015.46 109.041 1015.54L109.04 1015.54ZM109.785 1016.63C109.669 1016.71 109.48 1016.63 109.363 1016.47C109.247 1016.3 109.247 1016.1 109.366 1016.02C109.483 1015.93 109.669 1016.01 109.788 1016.17C109.903 1016.34 109.903 1016.55 109.785 1016.63ZM110.804 1017.68C110.701 1017.79 110.48 1017.76 110.319 1017.61C110.154 1017.45 110.108 1017.24 110.212 1017.12C110.317 1017.01 110.538 1017.04 110.7 1017.2C110.865 1017.35 110.915 1017.56 110.805 1017.68L110.804 1017.68ZM112.21 1018.29C112.164 1018.44 111.952 1018.5 111.738 1018.44C111.525 1018.38 111.385 1018.2 111.429 1018.05C111.473 1017.9 111.686 1017.83 111.901 1017.9C112.115 1017.97 112.255 1018.14 112.21 1018.29ZM113.755 1018.4C113.76 1018.56 113.579 1018.69 113.355 1018.69C113.129 1018.69 112.946 1018.57 112.944 1018.41C112.944 1018.26 113.121 1018.13 113.347 1018.13C113.571 1018.12 113.755 1018.25 113.755 1018.4L113.755 1018.4ZM115.192 1018.16C115.219 1018.31 115.063 1018.46 114.84 1018.51C114.621 1018.55 114.418 1018.45 114.39 1018.3C114.363 1018.15 114.522 1017.99 114.74 1017.95C114.964 1017.91 115.164 1018 115.192 1018.16Z" fill="#1E294B"/>
<path d="M152.76 1017.21C151.38 1017.21 150.16 1016.97 149.1 1016.49C148.06 1016.01 147.24 1015.34 146.64 1014.48C146.04 1013.62 145.72 1012.66 145.68 1011.6H147.9C148 1012.62 148.45 1013.52 149.25 1014.3C150.05 1015.06 151.22 1015.44 152.76 1015.44C154.18 1015.44 155.3 1015.08 156.12 1014.36C156.96 1013.62 157.38 1012.69 157.38 1011.57C157.38 1010.67 157.15 1009.95 156.69 1009.41C156.23 1008.85 155.66 1008.44 154.98 1008.18C154.3 1007.9 153.36 1007.6 152.16 1007.28C150.76 1006.9 149.65 1006.53 148.83 1006.17C148.01 1005.81 147.31 1005.25 146.73 1004.49C146.15 1003.73 145.86 1002.7 145.86 1001.4C145.86 1000.32 146.14 999.36 146.7 998.52C147.26 997.66 148.05 996.99 149.07 996.51C150.09 996.03 151.26 995.79 152.58 995.79C154.52 995.79 156.08 996.27 157.26 997.23C158.46 998.17 159.15 999.39 159.33 1000.89H157.05C156.91 1000.03 156.44 999.27 155.64 998.61C154.84 997.93 153.76 997.59 152.4 997.59C151.14 997.59 150.09 997.93 149.25 998.61C148.41 999.27 147.99 1000.18 147.99 1001.34C147.99 1002.22 148.22 1002.93 148.68 1003.47C149.14 1004.01 149.71 1004.42 150.39 1004.7C151.09 1004.98 152.03 1005.28 153.21 1005.6C154.57 1005.98 155.67 1006.36 156.51 1006.74C157.35 1007.1 158.06 1007.66 158.64 1008.42C159.22 1009.18 159.51 1010.2 159.51 1011.48C159.51 1012.46 159.25 1013.39 158.73 1014.27C158.21 1015.15 157.44 1015.86 156.42 1016.4C155.4 1016.94 154.18 1017.21 152.76 1017.21ZM184.058 996.3V1017H181.958V1000.47L174.578 1017H173.048L165.668 1000.53V1017H163.568V996.3H165.788L173.798 1014.24L181.808 996.3H184.058ZM190.922 996.03V1017H188.822V996.03H190.922ZM207.947 996.03V997.77H202.127V1017H200.027V997.77H194.177V996.03H207.947ZM220.953 996.03V1011.9C220.953 1013.5 220.463 1014.79 219.483 1015.77C218.503 1016.73 217.193 1017.21 215.553 1017.21C213.853 1017.21 212.493 1016.7 211.473 1015.68C210.473 1014.64 209.973 1013.24 209.973 1011.48H212.103C212.123 1012.62 212.403 1013.55 212.943 1014.27C213.503 1014.99 214.373 1015.35 215.553 1015.35C216.673 1015.35 217.503 1015.02 218.043 1014.36C218.583 1013.7 218.853 1012.88 218.853 1011.9V996.03H220.953ZM228.244 996.03V1009.23C228.244 1011.31 228.734 1012.85 229.714 1013.85C230.714 1014.85 232.074 1015.35 233.794 1015.35C235.514 1015.35 236.854 1014.86 237.814 1013.88C238.794 1012.88 239.284 1011.33 239.284 1009.23V996.03H241.384V1009.2C241.384 1011.86 240.674 1013.86 239.254 1015.2C237.854 1016.54 236.024 1017.21 233.764 1017.21C231.504 1017.21 229.664 1016.54 228.244 1015.2C226.844 1013.86 226.144 1011.86 226.144 1009.2V996.03H228.244ZM254.648 1017L250.418 1010.4L246.338 1017H244.118L249.398 1008.81L244.178 1000.62H246.548L250.718 1007.13L254.768 1000.62H256.958L251.738 1008.72L257.018 1017H254.648Z" fill="#1E294B"/>
</svg>
